<svg xmlns="http://www.w3.org/2000/svg" id="Logo" viewBox="0 0 144 95" width="144" height="95"><style>.st0{fill:#650f15}.st1{fill:#873e1e}.st2{fill:#661016}.st3{fill:#661116}.st4{fill:#fcfcfb}.st5{fill:#fbfbfb}.st6{fill:#941e22}.st7{fill:#942023}.st8{fill:#941f22}.st9{fill:#6d231c}.st10{fill:#6c1f1a}.st11{fill:#681d19}.st12{fill:#932122}.st13{fill:#c99c43}.st14{fill:#fdfaf3}.st15{fill:#941f23}.st16{fill:#fdfaf2}.st17{fill:#7b3a25}.st18{fill:#f8f3eb}.st19{fill:#982f28}.st20{fill:#fefaf2}.st21{fill:#fbf7ef}.st22{fill:#972e27}.st23{fill:#fcf8ef}.st24{fill:#edd27c}.st25{fill:#993827}.st26{fill:#932f27}.st27{fill:#99332d}.st28{fill:#fdf8ef}.st29{fill:#fcf7ed}.st30{fill:#fcf8f1}.st31{fill:#fefbf4}.st32{fill:#fcf7ee}.st33{fill:#a75536}.st34{fill:#d4a531}.st35{fill:#fdf9f0}.st36{fill:#fdf8f0}.st37{fill:#fdf9ef}.st38{fill:#894221}.st39{fill:#fbf6ea}.st40{fill:#faf5ed}.st41{fill:#fefbf3}.st42{fill:#fbf6ec}.st43{fill:#fdf9f4}.st44{fill:#c89b4f}.st45{fill:#fcf7ec}.st46{fill:#cfa653}.st47{fill:#f5e9cf}.st48{fill:#fdfaf1}.st49{fill:#fefbf6}.st50{fill:#fef9f0}.st51{fill:#8d481f}.st52{fill:#f9efd8}.st53{fill:#f9f2e0}.st54{fill:#b07b3b}.st55{fill:#f8f4f0}.st56{fill:#fbf5e6}.st57{fill:#f9f5f0}.st58{fill:#fcf7ea}.st59{fill:#faf4e9}.st60{fill:#fefaf0}.st61{fill:#f9f1e0}.st62{fill:#fdf8eb}.st63{fill:#bd8635}.st64{fill:#e7c467}.st65{fill:#ba832c}.st66{fill:#fbf6eb}.st67{fill:#bf8e46}.st68{fill:#d0a649}.st69{fill:#fdf9ee}.st70{fill:#fdf8ec}.st71{fill:#fefaf1}.st72{fill:#a76c30}.st73{fill:#fcf6e6}.st74{fill:#fef9ef}.st75{fill:#f0e1c1}.st76{fill:#d9b56c}.st77{fill:#fbf3df}.st78{fill:#faf3e6}.st79{fill:#fbf6e6}.st80{fill:#fdf7ed}.st81{fill:#fcf6e7}.st82{fill:#f8efdd}.st83{fill:#faf4e2}.st84{fill:#fbf7eb}.st85{fill:#fdf6e7}.st86{fill:#f9f0d7}.st87{fill:#fbf3e3}.st88{fill:#f8edcc}.st89{fill:#fdf5e6}.st90{fill:#b78453}.st91{fill:#faf1da}.st92{fill:#fdfcfb}.st93{fill:#931e22}.st94{fill:#931d22}.st95{fill:#931f23}.st96{fill:#921d22}.st97{fill:#942225}.st98{fill:#dfd0cf}.st99{fill:#f4eeee}.st100{fill:#f4efef}.st101{fill:#922023}.st102{fill:#e9dfde}.st103{fill:#8f1c21}.st104{fill:#d8c5c2}.st105{fill:#ddcecc}.st106{fill:#ecdcdb}.st107{fill:#eadedd}.st108{fill:#952326}.st109{fill:#e7dbdb}.st110{fill:#e4d8d7}.st111{fill:#f4ecec}.st112{fill:#f0e4e3}.st113{fill:#f0e6e5}.st114{fill:#600e13}.st115{fill:#d6c2c1}.st116{fill:#5f1416}.st117{fill:#541010}.st118{fill:#e1cfd1}.st119{fill:#972f2f}.st120{fill:#ddcbcb}.st121{fill:#873e3e}.st122{fill:#dbc9c8}.st123{fill:#5a0c10}.st124{fill:#d9c2c1}.st125{fill:#5e0a0f}.st126{fill:#7a1415}.st127{fill:#5c0c11}.st128{fill:#e5d7d8}.st129{fill:#531110}.st130{fill:#570f10}.st131{fill:#a97b7b}.st132{fill:#742429}.st133{fill:#c9aaab}.st134{fill:#d7c0c1}.st135{fill:#6b151c}.st136{fill:#9d6468}.st137{fill:#c4a3a4}.st138{fill:#56100f}.st139{fill:#9f696c}.st140{fill:#581012}.st141{fill:#ece3e3}.st142{fill:#c6a5a7}.st143{fill:#501414}.st144{fill:#d9afb1}.st145{fill:#5b0c10}.st146{fill:#b88e91}.st147{fill:#ebdfe0}.st148{fill:#d2b9b0}.st149{fill:#550f10}.st150{fill:#560f10}.st151{fill:#551011}.st152{fill:#531010}.st153{fill:#5a131d}.st154{fill:#5a0d19}.st155{fill:#fcfbfb}.st156{fill:#911d21}.st157{fill:#911d22}.st158{fill:#b1783a}.st159{fill:#ccb1aa}.st160{fill:#590c19}.st161{fill:#d2b8b1}.st162{fill:#58131a}.st163{fill:#901d21}.st164{fill:#952727}.st165{fill:#962c29}.st166{fill:#5a111c}.st167{fill:#71281e}.st168{fill:#70241d}.st169{fill:#fff}.st170{fill:#94282a}.st171{fill:#f0e4e4}.st172{fill:#793335}.st173{fill:#4d1212}.st174{fill:#713233}.st175{fill:#722a2c}</style><path d="M44.4 80.1c-3.1-.7-6.2-1.6-9.2-2.8-5.1-1.8-9.9-4.3-14.3-7.3-4.9-3.4-9.2-7.5-12-12.9-.2-.3-.4-.6-.4-1-.2-.5-.4-.9-.6-1.4-.2-.6.2-.5.5-.5.4.1.9-.2 1-.6s-.1-.8-.4-1.1c-.5-.6-1.3-.6-1.9-.9-.2-.3-.3-.7-.3-1.1 0-.4.1-.8-.1-1.1s0-.7-.2-1.1v-4.2c.4-.8.6-1.7.7-2.6 1.6-5.2 4.8-9.9 9-13.4 7.5-6.6 16.4-10.6 25.9-13.4 4.5-1.2 9.1-2.2 13.7-2.9h1.4c1.5-.3 3.1-.2 4.7-.5 1.8-.3 3.5-.4 5.3-.4.7-.3.6.3.7.7-.6 2.4-1.2 4.8-1.6 7.3 0 .8-.2 1.6-.4 2.4-.3.9-.4 1.9-.4 2.9 0 1.2 0 2.3-.2 3.5-.1.6-.2.9-.9.9-.8.1-1.4.8-1.5 1.6 0 .4 0 .7.3.9s.6.1.9 0c.3-.1 1.2-.6 1.2.7v1.5c.1.6-.4 1.2-1 1.3.5.6.6 1.4.2 2.1.2-.6.4-1.3.4-2 0-.2 0-.5.3-.4s.2.2.3.4 0 1.5.6 2.1.1.3 0 .4c-.7.6-1.5.9-2.4.9-1.2-.2-2.3-.7-3.2-1.5 0 .3.5.2.6.7-.8.3-1.7.1-2.3-.5-.6-.4-1-.6-1.6-.1-.2.2-.5.2-.8.1h-1.8c-.2 0-.5.1-.6-.1s-1.2-.2-1.9-.1c-2.4.1-4.8-.1-7.2 0-.8 0-.9-.3-.8-1s-.6-2.2-2.1-1.9-2.3 1-2.5 2.5-.3.8-.9.7l-.3-.3V36c.2-.8.2-1.5 0-2.3-.4-2-1.3-2.7-3.3-2.7-1.7 0-3.4.6-4.8 1.5-1 .6-1.1 1.4-.3 2.3.8.7 1.8 1.3 2.8 1.6.1 0 .1 0 .1.1.4.3 1 .4.9 1s-.7.4-1.1.5-.7.2-1.1.5.3.4.4.5 1.2.5.1.8-.2.2-.2.3.1.6-.2.7-.5-.3-.7-.5-.1.8.7 1 .2.7.1 1.1h-.4c-.2 0-.5 0-.6-.2h-.1c-.1.1.1.1.1.2 2.2 2.1 4.7 3.9 7.4 5.3 1.2.5 2.4 1.1 3.6 1.7 1.5.8 3.1 1.4 4.7 1.8 1.8.7 3.6 1.2 5.5 1.7.5 0 1 .3 1.4.6v.3c-.6.3-1.1-.1-1.6 0s-.6-.1-.7.3.1.5.4.7c.8.3 1.6.3 2.4 0 1.1-.2 2.1.2 3.2.1s.4.4.5.6.7.6 1 0c.2-.5.5-1 .8-1.4.1-.3.3-.7.7-.5s.1.5 0 .8c-.1.7-.4 1.3-.8 1.9-2.5 4.7-4.5 9.6-5.8 14.7-.1.3-.1.6-.4.8-1.9.1-2.7.8-2.7 2.4s.2 1.6 1.2 1.8c.3.1.5.3.6.6 0 .3 0 .7-.2 1-.3.7-.6 1-1.4.5-.7-.4-1.5-.2-2 .3-.5.3-.9.7-1.2 1.2-.2.7-.9 1.1-1.6.9-.1 0-.3-.1-.4-.2-.3-.1-.6 0-.9-.2z" class="st0"/><path d="M6.5 48.3c.3.3.2.8.4 1 .1.3.1.7 0 1l.2 1.2c.1.1.1.4 0 .5-.6-.4-.1-1.2-.6-1.7v-2z" class="st1"/><path d="M137 42.8c.9 3.6.7 7.3-.6 10.8-1.7 4.8-4.7 9-8.6 12.3-.5.3-.9-.1-1.2-.4-1.9-1.1-2.9-.6-3.3 1.5-.2.6-.1 1.3.3 1.8.1.1.2.3.1.4l-.1.1c-5.2 3.7-10.9 6.6-17 8.6h-.6c-.3-.4-.3-.9-.6-1.2-.2-.3-.3-.5-.4-.8-.8-1.4-1.6-1.5-2.8-.4-.4.3-.7.7-.9 1.2-.4.8-.2 1.2.7 1.3.5-.1 1.1-.1 1.6-.1.3 0 .6.1.6.4s-.3.2-.4.4l-3.1 1c-.5.1-.5-.1-.5-.4s-.7-2.8-1-4.3c-.3-.5-.5-1-.7-1.5 0-.3-.2-.6-.1-.9s.1-.1 0-.2-.4-.9-.6-1.4l-1-2.5-.6-1.3c-.2-.1-.2-.2-.2-.4-.2-.4-.4-.7-.6-1-.3-.2-.3-.6-.2-.8l.1-.1c.8-1.2.3-2.3-.1-3.4-.3-1-.9-2-1.6-2.8-.5-.8-1.5-1.2-2.4-1-.5.1-.9.1-1.2-.3L86.8 53c.5-.7 1.3-.5 2-.6.3.2.5.5.5.9.1.3.2.7.4 1 .6 1 1.6 1 2.3 0 .4-.6.6-1.3.6-2 0-.5.1-.9.3-1.3.5-.3 1-.5 1.6-.5.8 0 .9.4.5.9-.7.7-1.1 1.7-1.2 2.7-.1.7 0 1.4.7 1.7.6.2 1.3.1 1.8-.4.4-.4.8-.9 1.1-1.4.3-.7.5-1.5.4-2.3-.1-.9-1-1-1.4-1.5s1-.8 1.6-1c4.6-2 9-4.4 13.2-7.1 1.7-1.1 3.3-2.5 4.6-4.1.1 0 .2-.1.2-.2h-.2c-2 1-3.9 2.2-5.7 3.5-.6.5-1.2.8-1.9 1.1-.8.3-1.5.6-2.2 1.1h-.2c-.4.2-.8.4-1.2.7h-.3l-1.3.7h-.2l-1 .5h-.3c-.5.2-1 .4-1.5.7h-.3c-1.1.3-2.2.9-3.3 1.3s-.1.1-.2.1l-1 .4-1 .4c-.7.1-1.3.9-2.2.5v-.3c.5-.4 1.2-.5 1.7-1l1.1-.4c2.5-.9 5-1.9 7.4-3.1 2.7-1.1 5.2-2.6 7.6-4.3 1.9-1.3 3.4-3 4.4-5 .2-.9.9-.9 1.6-1.1-.1 0-.1 0-.1-.1-.6-.4-1.4-.6-2.1-.6l-1.4-.2-.4-.2c-.1-.1-.1-.2 0-.3h.6c-.3.1-.6 0-.9.2s-.3-.4 0-.6c.4-.1.9-.2 1.3-.1.6-.1 1.2-.2 1.4-.8.3-.6 0-1.3-.5-1.7-.7-.7-1.5-1.2-2.4-1.6-1.4-.6-2.2-.2-2.9 1.1-.4.8-.7 1.6-.8 2.5-.1.9-.5 1.3-1.4 1.2H104l-5.1.7c-2.3.4-4.6.9-6.8 1.6l-2.4.7c-1.1.3-2.2.8-3.3 1.3l-1 .4c-.6.3-.5 1-.7 1.5-.1.5-.3.9-.7 1.2-.3.4-.9.6-1.4.5-.6-.2-.3-.8-.3-1.3-.2-3.2-.3-6.5-.7-9.8-.8-5.7-2.3-11.3-4.4-16.7l-.4-.5c-.4-.3-.4-.8-.5-1.3s0-.6.5-.6c5.3.2 10.6.8 15.9 1.8 6.8 1.2 13.4 3.1 19.7 5.8l.9.4c6.3 2.9 12.1 6.4 16.9 11.5 2.8 2.9 5 6.4 6.2 10.3.2 1.3.3 2.1.6 2.9zM77.9 60.3c.7.1 1 .7 1.3 1.3h.1c.9.8 1.6 1.8 2.1 2.9.1.3.4.5.6.7.3.1.6.4.6.8l.2.3.4.5c.1.3.3.6.5.8 0 .1.1.2.1.3s-.9.3-1.4.4c-.7-.7-1.4-1.5-1.9-2.3-.8-1.1-1.5-2.2-2.3-3.2-.8-.9-1.9-1.5-3.1-1.7 1.2 1.8 2.3 3.3 3.4 4.8s1.7 2.3 2.6 3.5c.3.4.5.8.6 1.2.1 1.7.1 1.7 2 2.3 1 .8 2 1.7 2.7 2.8v.5c-.1 1.2.2 1.5 1.4 1.4h.4c.4.1.8.4 1.1.7.9.8 1.8 1.6 2.8 2.3.4.2.8.4.8.9s-.7.1-1 .3l-7.2 1.1c-5.3.6-10.6.8-15.9.7l-6.3-.3c-.6 0-1-.2-.4-.9s.4-.6.8-.8c.2-.3.2-.7.5-.8.8-.9 1.6-1.8 2.3-2.8.1-.3.2-.6.4-.8.1-.1.3-.3.2-.5.2 0 .4-.1.5-.3.7-1.4 1.7-2.6 2.3-4.1.2-.5.4-1 .8-1.4.5-.9 1-1.8 1.4-2.7s.1-.9.5-1.2h.1c.3-1.1.9-2 1.2-3 .3-.9.5-1.8.6-2.7-.1-.9.6-1.8 1.5-1.8.3 0 .6 0 .9.1l.9.3c.3 0 .6.2.9.4z" class="st0"/><path d="M31.7 42.3c-.3-.3.3-.4.1-.8s-.6.4-1 .1-.3-.6-.2-1-.6-.6 0-.8.6.4.7.7.1.1.2.2-.1-.7-.1-1 .6.1.9-.2-.6 0-.6-.4.8-.2 1.1.3 0 .3-.1.5c-.3.5-.1 1.1.4 1.4h.1c.2.1.4.3.5.5l1.1.6c.5.1.9.3 1.3.6.5.1 1 .3 1.4.6.9.6 2 .8 2.9 1.3l1.4.5 2.6 1c1.9.8 3.9 1.4 5.9 1.8 4 .7 8.2.9 11.9 2.7.6.4 1.2.8 1.7 1.3.5.3.4.9.5 1.4s-.1 2.7-1 3.9c-.6.6-1.2 1.4-1.6 2.2-.3.4-.2.9-.6 1.2h-.1c-.2.4-.3.8-.4 1.2 0 .2 0 .4-.1.6l-.3.2h-.1c-.1.2 0 .6-.3.8-.3.4-.5.9-.5 1.4-.2.9-.4 1.7-.8 2.5-.9 1.4-1 2.9-1.4 4.4-.4 1.6-.8 3.2-1 4.8 0 .2-.1.3-.2.4h-.3c-.2-.1-.2-.3-.3-.5s-.5-1.2-1.3-1.1-.3 0-.5-.1 0-.6 0-1c.5-2.4 1.2-4.8 2.2-7.1 1.3-3.6 2.8-7.1 4.7-10.5.4-.7.7-1.6.8-2.4.1-.4.2-.9-.1-1.1s-.6.3-.8.5-.3.3-.5.2v-.6h-.2l-1.2 2.2c-.3.5-1.1.6-1.2 0s-.5-.6-1.1-.5-1-.4-1.5-.3-1.7 0-2.6.4-1.6-.8-1.5-1.4.3-.4.6-.5 1.3.3 2 .2c1.2.5 2.6.6 3.9.5.3-.1.7-.4 1 .1s.2 0 .3-.1.9-.7.8-1.5c0 .8-.4 1.1-1.1 1.3-1.6.4-3.3.2-4.9-.3-1.8-.8-3.7-1.1-5.5-1.7l-5.7-2c-.3-.1-.5-.2-.6-.5s.9 0 1.3.2c3.5 1.4 7.1 2.3 10.7 3.4.9.3 1.9.4 2.9.4l1-.2c.4-.1 1-.3 1-.7s-.7-.5-1.1-.5c-5.4-1.3-10.8-2.4-16.1-4.2-2.4-.9-4.8-2-7.1-3.2-.6-.4-1.2-.8-1.8-1.3.3-.7-.4-.6-.5-1z" class="st2"/><path d="M52.3 36.2c.3 0 .4-.2.6-.5s.7-.2.8 0 1.2.5 1.8.6l.8.2c.2-.1.8.5.7-.4.6-.1 1.2 0 1.8.1.4.9 1.3.8 2.1.8l-.6-.2c-.2-.1-.4-.1-.5-.3s.1-.3.2-.3.5-.2.7.1 2.4 1.3 3.7 1.6 1.1-.7 1.6-1v-.2c-1-.5-.4-1.6-.9-2.4 0 1.1-.3 2.2-.8 3.2-.3-.3-.2-.4-.1-.6s.5-1.6-.2-2.3-.3-.7.1-.9.2.5.5.7.5-.6.5-1.1h.3c.3.3.3.8.4 1.2.2.8.6 1.4 1.2 2 .3-.8.4-1.6.4-2.4-.1-3.7-.4-7.5-.2-11.2 0-3.5.3-7.1 1.1-10.5.1-.3.2-.7.4-1 .1-.3.3-.6.6-.8.9-.3 1.5 0 1.4 1s.1 4.1-.5 6.1l-.6 3.7c-.3 2-.2 4.1 0 6.1.3 2.3.7 4.7.8 7.1.2 1.5-.1 3.1-1 4.4-.4.3-.7.6-1 .9-.5.4-1.2.7-1.9.8-.8.1-.9-.2-.6-.8.2-.8 0-1.2-.8-1.2-.4.1-.8-.1-1.1-.4-1.2.1-2.3-.2-3.4-.6h-.1c-1-.4-2.2-.2-3.2-.4s-.8-.1-1-.4h-.4c-.8-.2-1.6.1-2.4-.2s-1.1.2-1.2-.5z" class="st3"/><path d="M59.9 54.3c.3-.1.4-.4.5-.7s.3-.7.8-.5c.4.1.6.5.5.8v.1c-.1.9-.3 1.7-.7 2.5-1.4 2.9-3 5.8-4.1 8.8-1.3 3-2.3 6.2-3.1 9.4-.2 2-.7 3.9-.9 5.9.1.4 0 .9-.2 1.3h-1.1c-.1-.2-.4-.3-.5-.6 0-1.3.2-2.6.6-3.8.2-.3.2-.7.2-1-.1-1.7.2-3.3 1-4.8.9-3.6 2.2-7.2 3.7-10.6.8-1.9 1.8-3.8 2.8-5.7.2-.4.4-.7.5-1.1z" class="st4"/><path d="M92.9 81.3c-1.6-1.1-3.1-2.3-4.6-3.6-.9-.5-1.6-1.2-2.1-2l-2.5-2.6c-1-.7-1.7-1.6-2.2-2.7l-4.6-6.2c-.7-1.1-1.5-2.1-2.3-3.4 1.5.1 2.9.8 3.8 1.9l4 5.6c.7.3.9 1 1.3 1.5l.8 1 .5.7c.5.8 1.2 1.5 1.7 2.3l.7.7c.6.8 1.3 1.5 2 2.1 1.8 1.6 3.6 3.1 5.6 4.5 0 .2-.1.4-.3.5-.1 0-.2 0-.3-.1-.4 0-.8 0-1.2.2-.1-.2-.3-.3-.3-.4z" class="st5"/><path d="M52.3 36.2c.3.4.9-.1 1.2.4-1.3.1-2.6.1-3.9 0-3-.4-6.1 0-9.1.1l-2.1.2c-1.8.2-3.6.6-5.4 1.2-.5 0-.9.2-1.3.4 0 .1-.1.2-.2.2s-.2-.1-.2-.2c.4-.5 1-.4 1.6-.6s.6-.1.6-.4-.3-.4-.5-.6l-.3-.3c.5-1.8 1.2-1.8 2.6-1.5s1.3.5 2.1.2 1.1.1 1.1.8c-.4.3-.9 0-1.4.2s1-.2 1.4.1.7.1.7-.5c.4-1.9 2.1-3.1 4-2.8.8.1 1.4.8 1.3 1.6v.3l-.3 1.2h8.1z" class="st6"/><path d="M90.1 57.3c.2.3.6.4 1 .3.9-.2 2 .1 2.6.8 1.2 1.4 1.9 3.1 2.3 4.9.1.2.1.4 0 .6-.6.9-.6 2.1 0 3-.2-.1-.3-.4-.4-.6-.8-.8-1.4-1.7-1.7-2.8-.5-1-1.2-2-1.9-2.9l-.4-.5c-.2-.6-.6-1.1-1-1.6-.4-.2-.7-.6-.7-1 .1-.1.1-.2.2-.2zM51.7 77.5c.1 1.4-.4 2.7-.4 4-.5.2-1 .1-1.4-.1-1.9-.2-3.7-.7-5.5-1.3 1.7.6 2.6-.3 3.5-1.5s1.6-1.2 3.1-.5.3-.6.7-.6z" class="st7"/><path d="M103.8 78.8c.6-.9-.3-.7-.5-.6h-1.6c-.9-.1-1.1-.6-.8-1.4.3-.6.8-1.2 1.3-1.7 1.2-1 2.2-.8 2.9.5.2.3.4.7.5 1 .2.4.2.8.4 1.2h.3c-.7.5-1.6.9-2.5 1z" class="st6"/><path d="M123.6 69.3c-.8-1.2-.8-2.8.1-3.9.5-.7 1.1-1.1 2-.6l2.1 1.1c-1.2 1.4-2.6 2.5-4.2 3.4z" class="st8"/><path d="M95 81.1c-.2 0-.4.1-.6 0-1.8-1.4-3.6-2.8-5.2-4.4-.1-.5-.2-1 .6-1s.7.9 1.2 1c.3.1.5.3.7.5l.5.5 3.2 2.8c.2.2.5.4 0 .6H95z" class="st9"/><path d="M55.7 77.3h.2c.4.9-.2 1.7-.2 2.6-.1.6-.2 1.1-.2 1.7s-.4.7-.9.5h-.5c-1-.5-1.5-1.7-1.1-2.7 1 .3 2.1-.3 2.3-1.3 0-.1.1-.2.1-.4s.1-.3.3-.4z" class="st10"/><path d="M114.4 35.4c-.5 1.5-1.7 2.5-2.7 3.6s-5.5 3.9-8.5 5.5c-.3.2-.7.3-1 .3v-.2c.3-.4.8-.5 1.2-.8.5-.4 1-.7 1.6-.8.3-.4.8-.4 1.2-.6s1.7-.7 2.2-1.6h.1l.3-.2c.3-.2.6-.2.8-.4 1.7-1.3 3.2-2.9 4.4-4.8l.2-.2c.1.1.2.1.2.2z" class="st11"/><path d="M7.1 52v-.5c.9 0 1.7.3 2.2 1 .4.3.6.9.3 1.4-.3.4-.7.8-1.3.5s-.3.1-.4.3c-.5-.8-.8-1.7-.8-2.7z" class="st12"/><path d="M92.1 35.2c1.7-.7 3.5-1.2 5.3-1.5 2.1-.5 4.4-.5 6.5-1.1 1.6.1 3.1.1 4.7-.2 1.1-.1 2.2.1 3.2.5h.4c.1.1 0 .2-.1.2-2.6-.2-5.2-.1-7.7-.1-.3-.1-.7-.1-1 0-2.9.3-5.8.8-8.6 1.5-.9.4-1.8.6-2.7.7z" class="st13"/><path d="M95.4 81.1c.2-.3-.1-.4-.2-.5-1.2-.8-2.3-1.8-3.2-2.9 0-.2-.2-.3-.4-.3-.3-.2-.5-.4-.6-.7.3-.1-.1-.5.2-.6s1.6 2 2.7 2.5c.3.2.6.3.9.3.3.8 1.1 1.3 2 1.2.2 0 .3 0 .2.2l-1.6.8z" class="st14"/><path d="M54.6 82.1c.3 0 .6 0 .7-.4s.5-2.9.6-4.4 1-4.7 1.6-7c.1-.6.3-1.3.4-1.9s.1-.8.6-.9 0 .9-.3 1.2c-1 3.6-1.8 7.4-2.3 11.1l-.3 1.8c.1.8-.3 1-1 .5z" class="st15"/><path d="M33.7 41.8l-.5-.3c-1.1-.6-1.2-.8-.5-1.9s0-.6.2-.8.3.4.6.5.4.2.6.2l.6.5c.3.2.4.6.3.9-.1.4-.3.7-.7.6s-.5 0-.6.3z" class="st16"/><path d="M88.8 52.5c-.6.3-1.4.1-2 .6s-.8 0-1.2-.3.1-.7.3-.9l2.7-1.5 1.3-.5c.3-.1.7-.1.4.5l-.4.3c-.3.1-.6.2-.8.5l-1.5 1.1c.4-.3 1-.3 1.4 0 .1.2 0 .3-.2.2z" class="st17"/><path d="M38.4 36.9c4.5-.6 9-.8 13.5-.4h1.6c.7.4 1.6 0 2.4.3-1.2 0-2.4.2-3.6.1h.7c-4.2-.4-8.5-.4-12.7 0 .1.2.4 0 .6.1s.1 0 0 .1l-2.5-.2z" class="st18"/><path d="M86.6 73.9c-.7-.7-1.3-1.5-1.8-2.4.2-.4.3-1 .5-1.4s.6.6.9 1c0 .2.2.4.4.4.7.3.9 1.1 1.2 1.6.2.1.3.3.3.5 0 .1 0 .1-.1.2-.5-.2-1-.2-1.4.1z" class="st19"/><path d="M93.9 63.5c.6.9 1.2 1.8 1.7 2.8h-1.2c-.5.1-.4.1-.6-.4-.1-.3-.3-.5-.5-.7-.3-.3-.4-.8-.1-1.2.2.2.3.2.4 0l.3-.5z" class="st20"/><path d="M103.4 33.1c1.3-.2 2.7-.2 4-.1 1.6 0 3.3 0 4.9.2.4-.2.9 0 1.1.3h-3v-.3l-7-.1z" class="st21"/><path d="M89.8 75.7c-.5.1-.4.7-.6 1-.8-.6-1.5-1.3-2-2.2.1-.3.5-.5.8-.8h.1c.2-.1.2.1.3.2s1.1 1.1 1.4 1.8z" class="st22"/><path d="M81.4 64.7c-.8-.9-1.5-1.9-2.1-2.9.7.1 1.3 0 2-.1.6-.1.3.2.1.4l-.8.8c.6.8 1.6.8 2.2 1.4h-.2c-.7.8-.8-.1-1.2-.3s.1.5 0 .7z" class="st23"/><path d="M70.2 17.8c.3-2 .4-4 .4-6 0-.4.2-.9-.4-1s-1.1 0-1.3.7-.8 0-1.2 0 0-.7-.5-.7c1.1-.5 2.2-.2 3.3-.2s.4.3.4.5c.1 2 0 4.1-.3 6.1-.1.2-.2.4-.4.6z" class="st24"/><path d="M102.2 44.8c-1 .6-2 1.1-3.1 1.4-1.4.7-2.8 1.2-4.3 1.7-.1-.2 0-.3.2-.4.1-.2.4-.3.6-.3.6-.5 1.3-.5 1.9-.8s2.8-1.2 4.2-1.7.3-.1.5.1z" class="st11"/><path d="M85.6 52.8l1.2.3c.5.2 1 .6 1.2 1.1.4 1.2 1.5 2 2.1 3.1H90c-.3.1-.4-.1-.5-.4-.4-.2-.7-.5-.9-.9-.6-.3-.9-.9-1.4-1.3s-1.2-1.2-1.6-1.9z" class="st25"/><path d="M84.4 71c-.8-.8-1.4-1.7-2-2.7.3-.3 1 .3 1.3-.4s.2.1.3.2l.2.2c.2.1.4.2.4.5v.2c-.2.7.4 1.4-.2 2z" class="st26"/><path d="M53.1 79.5c-.2 1 .2 2 1 2.6-.5.1-1 .1-1.4-.2 0-2.4.3-4.9 1.1-7.2.2.4-.1.7-.1 1 .3 1.3.1 2.6-.6 3.8z" class="st27"/><path d="M64.4 53.6c-.1-.5-.3-1-.5-1.4l1.5 1.4c.3-.1.2-.6.6-.7s-.2 1.4.2 2-.1.5-.3.3-.8-.4-.9-1 0-.7-.6-.6z" class="st16"/><path d="M87.8 73.1c-.5-.4-.9-1-1.2-1.6.4-.2.6-.7 1.2-.3s.4-.6 1-.4-.3 1-.5 1.4-.1-.7-.7-.6l.2 1.5z" class="st28"/><path d="M73.1 63.8c-.1 1.1-.6 2.1-1.2 3 0-.5.2-1-.5-1.2-.1-.1-.2-.3-.1-.5s.3 0 .4.1.2-.6.6-.8h.4c.3-.1 0-.6.4-.6z" class="st29"/><path d="M64 38.4l1.5.4c.8.2.8.6.4 1.2s-.3-1.1-1.2-1c-.9.3-1.8.4-2.7.3.3-.4.7-.6 1.2-.6.3 0 .7.2.8-.3z" class="st30"/><path d="M76.3 11.3c.3.4.5.8.5 1.3l-.3.2c-.1.2-.2.6-.6.5s-.5-.7-.4-1.1 0-.7.6-.5.1-.2.2-.4z" class="st31"/><path d="M79.2 61.7c-.5-.4-.9-.8-1.2-1.3.3-.5.8-.8 1.3-.5s.3.9.1 1.3l-.2.5z" class="st32"/><path d="M90.2 50.3c.1-.1.3-.3-.2-.3s-.8.6-1.4.4.6-.3.8-.5.8-.4 1.2-.6l1.4-.4c.1.1.1.1 0 .2 0 .2-.1.4-.3.4s-.3.2 0 .4c-.3.5-1 .7-1.5.4z" class="st33"/><path d="M105 43l-1.5.9c-.4.1-.8.5-1.3.4s-.4-.6 0-.9.8.5 1.1-.1.7-.4 1.1-.3h.6zM58.2 68.7l.3-1.2.8-2.3c0-.2.1-.2.2 0l-.6 4c-.3-.2-.2-.8-.7-.5z" class="st32"/><path d="M44.4 46.4c-.9-.3-1.7-.6-2.6-.9-.2 0-.4-.1-.3-.3l.6-.5c.6-.1 1.3.1 1.8.4-.5.8-1.3-.6-1.8.1s1.7.4 2.3 1.2z" class="st14"/><path d="M69.6 27.6c-.5-2-.5-4.1 0-6.1v6.1z" class="st34"/><path d="M85.4 37.7c.2-.4.6-.4 1-.4s-.7.2-.3.5-.3 1.2-.5 1.8-.2.1-.3 0-.1-.4 0-.4.1-1 .1-1.5z" class="st35"/><path d="M60.6 37.7c1.1.1 2.3.3 3.4.6-1.2.1-2.4.5-3.5-.1s.4 0 .6-.1l-.5-.4z" class="st30"/><path d="M63.4 80.7c-.1.3-.1.7-.5.8s-.2-.4-.4-.5-.7-.7-.5-1.2.7.3 1.1 0l-.7.6c.2.5.8-.3 1 .3z" class="st36"/><path d="M65.9 40c-.1.6 0 .8.7.6l1.8-.6c.2.7-.8.5-.8 1.1l-1.7-.2c-.4-.2-.2-.6-.2-.9h.2z" class="st37"/><path d="M61.9 11.2c-1.5.5-3.1.6-4.7.5 1.5-.4 3.1-.6 4.7-.5z" class="st38"/><path d="M84 68.1l-.3-.2h-.1c-.1-.3-.4-.5-.5-.8l-.3-.6c.5.2.7 0 .8-.4h.4c-.1.3-.3.6 0 .8s.1.8 0 1.2z" class="st39"/><path d="M86.2 71.1c-.3-.3-.5-.8-.9-1s-.3-.2-.4-.4c0-.1 0-.2.1-.3.1 0 .3.2.4.1s0-.5.4-.4.8.5.5 1 0 .7-.1 1z" class="st28"/><path d="M90.6 49.3l-1.2.6c-.1-.4.2-1-.3-1.4s.8-.2.8.4.4.4.7.4z" class="st35"/><path d="M106.2 42.4c-.3.3-.7.5-1.2.6-.1-.6-.6-.7-1.2-.8s1-.8 1.4 0 .7-.1 1 .2z" class="st32"/><path d="M94.8 78.9c-.2-.4-1.1-.6-.7-1.4s.3.1.6.7h.2c.2 0 .4-.2.4.3s-.2.4-.5.4z" class="st14"/><path d="M114.2 35.4h-.2c.1-.6-.3-.7-.9-.8s1.6-.3 2.1-.7c.2-.1.4-.1.6 0 .3.3.3.6-.1.5s-1.2.4-1.5 1z" class="st40"/><path d="M65.7 40.6c-1 .1-.4 1.4-1.6 1.2.5-.4-.3-1.7 1.6-1.2z" class="st41"/><path d="M115.7 34h-.5c-.6-.3-1.2-.4-1.8-.4l-1.1-.3c-.1-.1-.1-.1-.1-.2 1.3 0 2.6.4 3.8.9 0 0-.1.1-.3 0z" class="st8"/><path d="M56.3 36.9l3.1.5c.4 0 .8.1 1.1.3-.9.1-1.8 0-2.6-.3-.6 0-1.3.3-1.6-.5z" class="st30"/><path d="M40.9 37.1h1.3c.5-.1 1-.2 1.3.4s-1.8.3-2.6-.4z" class="st16"/><path d="M89.5 56.9l.5.4.6 1.2c-.6.4-.7-.5-1.2-.6 0-.3-.3-.7.1-1z" class="st42"/><path d="M70.1 27.5v-2.7c1.1.9-.1 1.8 0 2.7z" class="st43"/><path d="M44.7 36.9c2.3-.3 3.6-.2 4.1.3-1.3-.5-2.6-.1-4.1-.3z" class="st18"/><path d="M86.4 37.2c1-.7 2.1-1.2 3.3-1.3-1 .6-2.1 1.1-3.3 1.3z" class="st44"/><path d="M96 70.7c-.4-.4-.4-1.1 0-1.5.5.4.8.9 0 1.5z" class="st16"/><path d="M87.2 54.6c.5.4 1 .8 1.4 1.3-.6.2-1.1.2-1.1-.7s-.2-.4-.3-.6z" class="st42"/><path d="M69.9 70.8c-.2.5-.5 1-.8 1.4.3-.7-.3-1.2-.4-1.9s.4 1.2 1.2.5z" class="st45"/><path d="M78.1 16.9c.2.4.1.9-.3 1.2-.3.1-.3-.2-.4-.4s.7-.3.7-.8z" class="st31"/><path d="M95.6 47.2l-.5.3c-.2.1-.4.4-.7.2l-.5-1c.5.3 1.1.5 1.7.5z" class="st23"/><path d="M92 49.1v-.2l.4-.4c.2-.2.5-.4.8-.3.2-.1.4-.1.6.1-.4.5-1.1.8-1.8.8z" class="st11"/><path d="M32.9 38.8c.4.3.2.6-.2.8s-.7-.3-1-.5-.7-.1-.4-.6h.4c.3.7.7.4 1.2.3z" class="st46"/><path d="M37.5 43.6c-.5 0-1-.2-1.4-.6.1-.1.3-.1.2-.2s-.3-.5.1-.6.3.3.3.4.7.6.8 1z" class="st47"/><path d="M61.3 83.1l-1.1-.4c-.2 0-.4.1-.5-.3s0-.2.1-.2.5-.2.8 0 .3.5.7.9z" class="st48"/><path d="M64 76.3c.5-.4.6-.9 1.1-.9s.2.3.1.4-.5.5-1.2.5z" class="st20"/><path d="M99.2 76.8c-.1.3-.1.6-.4.7s-.4-.2-.3-.4.2-.6.4-.7.3.2.3.4z" class="st49"/><path d="M103.2 41.7c-.1.1 0 .2-.1.2s-.1 1-.7 1.2c-.1 0-.2-.1-.2-.2.6-.2.1-1.1 1-1.2z" class="st32"/><path d="M89.6 73.2c.4-.4.9 0 1.5-.3s-1.1.3-1.5.3z" class="st50"/><path d="M88.6 56c.5.1.7.5.9.9s-.8-.4-1.3-.4l.4-.5z" class="st42"/><path d="M137 42.8c-.4-.7-.7-1.5-.6-2.3.4.7.6 1.5.6 2.3z" class="st51"/><path d="M91.6 60.1c.2.1.4.2.4.5s-.3.3.1.8-.9-.5-.5-1.3z" class="st52"/><path d="M60.3 62.9v-.2c.2-.1.2-.7.7-.4l.2.6c-.4 0-.4.4-.6.6s.1-.6-.3-.6z" class="st42"/><path d="M98.7 73.5c.2.5.3 1.1.5 1.6s-1-.5-1-1.2l.5-.4z" class="st53"/><path d="M71.8 66.9c-.2.4-.2.9-.5 1.2s-.9-.6 0-.8.1-.2.1-.4h.4z" class="st29"/><path d="M93.8 48.3h-.7c.1-.3.4-.2.6-.3s.5-.2.7-.3l.7-.2-.3.4-1 .4z" class="st54"/><path d="M62.9 81.5c-.2.3-.5.6-.8.8-.2-.8-.1-1 .8-.8z" class="st36"/><path d="M97.5 46.4c-.6.4-1.2.7-1.9.8.5-.7 1.3-.6 1.9-.8z" class="st56"/><ellipse cx="70.7" cy="32.3" class="st57" rx=".1" ry="1.5"/><path d="M112.1 37.1c-.1.5-.4.8-.9.9v-.2c.1-.4.5-.5.9-.7z" class="st58"/><path d="M108.4 40.8l-.3-.3c-.2-.2-.3-.4-.1-.6h.3c.4 0 .2.3.2.5v.5l-.1-.1z" class="st59"/><path d="M109.3 34.2c.4-.3 1-.3 1.4 0-.4.3-.8.2-1.4 0z" class="st48"/><path d="M84.4 68.9l-.2-.6c.3-.1.7 0 .9.3.2.3-.3.4-.3.6s-.3-.1-.4-.3z" class="st28"/><path d="M97 80.3l-.2-.2c0-.2.2-.4.4-.4.1 0 .1 0 .2.1.2 0 .2.4.1.5s-.3.1-.5 0z" class="st60"/><path d="M98.7 73.5c-.1.2 0 .7-.5.4s-.1-.8.2-1.2l.3.8z" class="st61"/><path d="M93.4 75.2c-.6.4-.9.4-1.3.2s.7-.3 1.3-.2z" class="st62"/><path d="M80.4 27c.3.1.2.3.2.5s.1.4-.2.2-.4 0-.3-.3.1-.3.3-.4z" class="st14"/><path d="M59.5 65.2h-.2c-.1-.6.2-1.2.6-1.6 0 .3.2.5-.1.7l-.3.9z" class="st63"/><path d="M49.9 81.4h1.4c.2 0 .4.1.3.4s-1.2.1-1.7-.4z" class="st64"/><path d="M82.6 66.2c-.3-.2-.5-.5-.6-.8.7-.1.9.1.6.8z" class="st39"/><path d="M77 14.6c-.5-.4-.6-.7-.3-1.1.3.3.4.7.3 1.1z" class="st45"/><path d="M102.2 44.3c.5 0 .8-.5 1.3-.4l-1.3.8h-.5c.1-.2.3-.3.5-.4z" class="st65"/><path d="M80.1 26.6l.2-1.2c.2.4.1.9-.2 1.2z" class="st14"/><path d="M111.1 33.7c.3-.2.8-.2 1.1.1-.3.2-.8.2-1.1-.1z" class="st21"/><path d="M89.5 59.5c-.4-.1-.5-.3-.6-.7s.7.2.6.7z" class="st42"/><path d="M7.9 54.7c.4.4.6.9.6 1.4-.4-.4-.6-.9-.6-1.4z" class="st12"/><path d="M61.1 62.3c-.3 0-.4.3-.7.4 0-.2 0-.3.1-.5s.2-.5.5-.5.1.4.1.6z" class="st66"/><path d="M61 61.7l-.5.5c0-.5.2-1 .6-1.3 0 .3-.1.5-.1.8z" class="st67"/><path d="M64.4 39.5c.2 0 .2.1.2.2s0 .3-.2.4h-.3c0-.2.1-.5.3-.6z" class="st41"/><path d="M97.8 71.1l.6 1.4c-.6-.3-.6-.8-.6-1.4z" class="st61"/><path d="M42.6 44.3c.2-.2.5-.2.7 0l.1.1c-.2.2-.5.2-.8-.1z" class="st14"/><path d="M92.9 81.3c.1.1.7-.2.3.4h-1.3c.3-.3.8 0 1-.4z" class="st68"/><path d="M88.2 56.5c0 .3.4.5.1.7s-.4 0-.4-.2.2-.3.3-.5z" class="st42"/><path d="M98.8 76.3c-.3-.3-.3-.8-.2-1.2.2.4.3.8.2 1.2z" class="st49"/><path d="M83.8 64c.1 0 .2.1.2.2 0 .2-.1.3-.3.2-.1 0-.2-.1-.2-.2 0-.2.2-.2.3-.2z" class="st69"/><path d="M67.2 74l-.2.2c-.1-.2-.2-.3-.2-.4s0-.3.2-.2.2.1.2.4z" class="st70"/><path d="M59.8 64.3c0-.2.1-.4.1-.7l.3-.6c.1.5 0 1-.4 1.3z" class="st42"/><path d="M56.6 82.4c-.1-.3 0-.4.2-.4s.2 0 .2.1-.1.3-.4.3z" class="st71"/><path d="M98.1 76c0 .1-.1.2-.2.2-.1.1-.2 0-.2-.2s0-.2.2-.2.2 0 .2.2z" class="st49"/><path d="M92.7 75.9c.2.1.3.2.3.3 0 .1-.1.3-.2.2l-.3-.2c0-.2.1-.2.2-.3z" class="st37"/><path d="M96.2 67.3c.4.3.6.8.6 1.3-.4-.3-.6-.8-.6-1.3z" class="st72"/><path d="M107.1 40.5h-.4c0-.2.2-.2.3-.2h.3c.1.2-.1.2-.2.2z" class="st73"/><path d="M93.7 48c-.2.1-.5.1-.6.3l-.7.2c.2-.6.8-.5 1.3-.5z" class="st23"/><path d="M84.9 54.2c0-.2.1-.5.3-.6l.2.2c0 .3-.2.4-.5.4z" class="st74"/><path d="M77.9 60.3l-.9-.6c.7-.4.7.2.9.6z" class="st32"/><path d="M61.2 60.9c.2-.4.2-.9.6-1.2l-.3 1.2h-.3z" class="st66"/><path d="M36.1 43c-.5-.1-.9-.3-1.3-.6.5-.1 1.1.1 1.3.6z" class="st75"/><path d="M41.5 45.2l.3.3c-.5 0-1-.2-1.4-.6.4-.1.7.2 1.1.3z" class="st76"/><path d="M86.2 41.5c0 .1-.1.2-.2.2-.2 0-.3-.1-.3-.2s.2-.2.3-.3.2.1.2.3z" class="st48"/><path d="M61.5 60.9c.5.1.4.4.2.8s-.2-.5-.2-.8z" class="st66"/><path d="M58.5 70.2c.3.1.6.2.5.5s-.3 0-.4-.1-.1-.2-.1-.4z" class="st37"/><path d="M85.4 41.3l-.3.2c-.1 0-.2-.1-.2-.2l.3-.3c.1 0 .2.1.2.3z" class="st58"/><path d="M42.1 44.8c-.2-.2-.6-.2-.5-.5h.1c.4-.1.3.2.4.5z" class="st14"/><path d="M61 49.5c-.1 0-.2 0-.2-.1s.1-.2.2-.2.3-.1.3.1-.2.2-.3.2z" class="st77"/><path d="M89.4 57.9l-.7.6c0-.6.4-.6.7-.6z" class="st42"/><path d="M66.3 76.6h-.4c0-.3.2-.6.4-.7.2.3-.1.5 0 .8v-.1z" class="st78"/><path d="M84 66.1h-.4c0-.1-.3-.4 0-.5s.4.3.4.5z" class="st79"/><path d="M33.8 38.5c.2-.2.5-.4.8-.3-.1.3-.5.4-.8.3z" class="st80"/><path d="M82.8 64.3c.3-.1.5.1.6.4 0 .1-.1.2-.2.1s-.3-.2-.4-.5z" class="st23"/><path d="M34.1 39.5c-.3.2-.6.4-.6-.2s.4.2.6.2z" class="st81"/><path d="M61.3 62.9c.1.1.4.2.2.5h-.2c-.4-.2-.1-.4 0-.5z" class="st42"/><path d="M88.4 73.9l-.3-.2-.3-.6c.4.1.7.4.6.8z" class="st82"/><path d="M63.6 51v.3l-.3-.3c0-.1 0-.2.1-.2l.2.2z" class="st83"/><path d="M90.8 48.6c0-.1.1-.2.2-.2s.2 0 .3.2h-.2c-.1.1-.3.2-.3 0z" class="st32"/><path d="M93.4 47.8c-.1-.2-.2-.3-.2-.4s.1-.1.1-.1l.3.2c0 .1-.1.1-.2.3z" class="st23"/><path d="M66.1 77.1c0 .3-.2.6-.4.8-.3-.5 0-.7.4-.8z" class="st78"/><path d="M60.2 39.6h-.3c-.1 0-.2-.1-.1-.2s.1-.1.2-.1.1.2.2.3z" class="st30"/><path d="M74.3 58.6c0 .1 0 .1.1.2 0 .2-.1.3-.2.2s-.1-.1-.1-.2l.2-.2z" class="st84"/><path d="M34.1 38.8h.3c0 .1-.1.2-.2.2H34c0-.1 0-.1.1-.2z" class="st85"/><path d="M84.4 68.9l.4.3.2.2v.3c-.5 0-.7-.3-.6-.7v-.1z" class="st26"/><path d="M69.5 69.5h-.2c-.2 0-.2-.1-.2-.2s.1-.1.2-.2l.2.4zm15-16.2v.2c0 .1-.1.2-.2.1s-.1-.1-.1-.2.2-.2.3-.1z" class="st37"/><path d="M60.4 38.6c.1.1.2.2.2.3-.1.1-.1.1-.1.2-.1-.1-.2-.1-.2-.2s0-.1.1-.3z" class="st30"/><path d="M109.6 40.2c-.2.2-.4.5-.8.4.2-.3.5-.4.8-.4z" class="st59"/><path d="M65.7 40h-.5c0-.1.1-.2.1-.3s.3.2.4.3z" class="st86"/><path d="M81.4 62.1c.2.1.4.2.4.5h-.2c-.2-.1-.1-.3-.2-.5z" class="st23"/><path d="M93.6 63.9c.2.2 0 .3-.1.4s-.3-.2-.3-.4h.4z" class="st87"/><path d="M63.5 59c0-.2.1-.2.2-.2v.2c0 .1 0 .2-.1.2l-.1-.2z" class="st88"/><path d="M71.4 66.9l-.5-.2h.2c.3-.1.3.1.3.3v-.1z" class="st29"/><path d="M96 68.2l.2.3H96v-.2c-.2.1-.1 0 0-.1z" class="st89"/><path d="M64.4 75.4c-.2.1-.3 0-.2-.1l.2.1c0-.2.1-.1 0 0z" class="st20"/><path d="M113.3 18.7c-.4.1-.7-.1-.9-.4.3 0 .7.2.9.4z" class="st90"/><path d="M51 47.3l-.2-.2h.2c.1-.1.2 0 .3 0l-.3.2z" class="st91"/><path d="M65.9 76.5c0 .3-.2.3-.4.3h-.2c.1-.2.4-.2.6-.2v-.1z" class="st78"/><path d="M32.3 43.2c3.9 2.7 8.4 4.3 13 5.7S53.9 51 58.2 52c.2.1.7 0 .7.3s-.3.6-.5.8c-.9.6-2 .9-3.1.6-1.8-.3-3.5-.8-5.2-1.3-3-.8-5.8-1.9-8.6-2.9-2.8-1.1-5.5-2.6-7.9-4.4-1.1-.8-2.2-1.7-3.1-2.8 0-.2 0-.2.2-.2s.3.3.5.3l.9.4c.1.1.2.2.2.4z" class="st4"/><path d="M67.7 11.5c.2-.3.3-.6.8-.6s.3.4.4.6c-1.4 4.8-1.4 9.8-1.4 14.8 0 3.3.2 6.6 0 9.9 0 .3.2.8-.2.9s-.6-.3-.9-.5c-.5-.6-.8-1.4-.9-2.2-.1-.4-.2-.7-.2-1.1-.2-2.2-.6-4.4 0-6.6.1-.3.1-.7.1-1-.1-1.5 0-3 .2-4.5l.6-3.5c.3-2.1.8-4.2 1.5-6.2z" class="st92"/><path d="M38.5 36.1c0-.8-.9-.7-1-.6-.5.4-1.2.4-1.7 0-1.4-.7-2.4-.3-3.1 1.1-1.3-.3-2.5-1-3.3-2.1-.5-.6-.4-1.5.2-2 .1 0 .1-.1.2-.1 2-1.3 4.4-1.8 6.7-1.5.6.1 1.1.5 1.4 1 .7 1.3 1 2.8.6 4.2zM27.1 63.9c.1 1-.1 2-.6 2.9-.3.8-1.2 1.1-2 .8-.3-.1-.6-.4-.7-.7-.6-1.1-1.4-1.9-2.5-2.5-.7-.4-1.3-.9-1.2-1.7s.9-1 1.5-1.3c1.2-.5 2.4-.6 3.7-.5 1 .1 1.8.9 1.8 1.9v1.1zm-17-8.8c0-.9.3-1.9.7-2.7.3-.7 1.1-1 1.8-.8 1.1.2 2.2.7 3 1.5.7.8.5 1.8-.5 2s-1.8.7-2.5 1.4c-.5.4-1.1.9-1.8.5s-.7-1.2-.7-1.9zm52.8-22.4c0 1.2-.8 1.8-1.6 1.4s-2.1-.3-3.1-.3-2-.7-1.2-2.1c.6-1 1.4-1.8 2.4-2.3.7-.3 1.5-.2 2 .4.8.8 1.3 1.8 1.5 2.9zm-17.2-4.1c-.2.7-.6 1.4-1.1 1.9-1.1.9-2.2 1.8-3.8 1.3-.6-.2-.9-.8-.9-1.4.1-1.9 3-3.9 4.8-3.2.6.2 1 .8 1 1.4zM41.3 25c0 2.1-1.6 4-3.3 4-.7.1-1.2-.4-1.3-1.1v-.1c-.2-1.6.5-3.3 1.9-4.2.5-.5 1.3-.6 1.9-.3.6.4.9 1 .8 1.7zm-9.8 2.6c0-1 .4-2 1.1-2.7.6-.6 1.6-.7 2.3 0 .2.2.4.5.4.7.5 1.4 0 3-1.1 4-.7.6-1.7.5-2.3-.2-.2-.2-.3-.4-.3-.6-.1-.4-.1-.8-.1-1.2z" class="st6"/><path d="M53.4 21c-.8-.5-1.4.2-2 .4s-1.1.6-1.6.1-.3-1-.1-1.6.4-1.2.8-1.7c.8-.9 1.2-1 2.2-.5.7.4 1.3.9 1.7 1.6.3.3.3.8.1 1.1-.3.3-.7.5-1.1.6zM23.5 46.2c0 .6.1 1.3-.6 1.6s-1.2-.1-1.6-.6-1-.4-1.4-.6-1.3-.4-1.3-1.1.6-.9 1.1-1.2l.9-.5c1.4-.7 2.3-.3 2.8 1.3.1.4.1.7.1 1.1zm19.8 20.9v.4c-.2.5-.1 1.3-.8 1.6s-1.2-.4-1.6-.9-1.1-.5-1.6-.8-1.2-1.3-.1-2c.7-.5 1.5-.7 2.3-.8.6-.1 1.2.2 1.4.8.3.5.4 1.1.4 1.7zm3 6.3c0-.4 0-.8.2-1.2.2-.6.8-.9 1.4-.7.2.1.4.2.5.4 1 .9 1.3 2.4.7 3.6-.1.5-.7.8-1.2.7-.1 0-.3-.1-.4-.2-.8-.6-1.2-1.6-1.2-2.6z" class="st93"/><path d="M46.9 77.8c0 .6-.3 1.2-.8 1.5-.6.1-1.2-.1-1.5-.6-.7-.6-1-1.5-.9-2.4 0-.7.6-1.2 1.3-1.1.2 0 .4.1.6.2.8.5 1.3 1.4 1.3 2.4zM29.1 66.3c-.6.1-1.2-.2-1.5-.7-.2-.6 0-1.2.5-1.6.6-.7 1.6-1 2.5-.9.7.1 1.2.6 1.1 1.3 0 .3-.1.5-.3.7-.5.7-1.4 1.2-2.3 1.2z" class="st94"/><path d="M52.9 71.7l-1 4.8c-.2-.5-.7-.2-1-.3-.7-.6-1-1.6-.8-2.5.3-1.3 1.1-2.2 1.9-2.2l.9.2zm12.7-50.5c-.1 3.2-.2 6.4-.4 9.7 0 .8 0 1.6.1 2.4h-.2v-2.5c-.5-.1-.6.3-.9.5-.4.4-1 .4-1.4 0-.2-.2-.3-.5-.3-.8-.1-1.2.8-2.1 2-2.2h.1c.6 0 .4-.4.5-.7.3-1.9 0-3.9.3-5.9.1-.2.1-.4.2-.5z" class="st95"/><path d="M30.3 58c.2.6.6.9 1.2.4s.4.4.6.6c.1.4.3.8.6 1.1-.6 1.2-1.8 2-3.2 2-.9-.1-1.3-.6-1-1.6s.2-.3.4-.4h1c.4 0 .3-.2.2-.5s-.3-1.1.2-1.6z" class="st15"/><path d="M61.1 26.9c0-.7.3-1.4.8-1.9.4-.3.8-.6 1.3-.3.4.2.7.7.6 1.2 0 .9-.5 1.8-1.3 2.3-.7.5-1.4-.1-1.4-1.3zm-.6-.8c0 .2 0 .5-.1.7-.1.5-.3 1.1-1 1.1s-.9-.4-1.1-.9c-.3-.6-.3-1.3-.1-1.9.2-.5.4-1.1 1-1.1s1.1.6 1.2 1.3 0 .5.1.8zM12.9 48.6c0 .7-.1 1.3-.9 1.5-.7.1-1.3-.4-1.4-1.1-.3-.6-.4-1.4-.1-2 .4-.8 1-.9 1.7-.3.4.5.7 1.2.7 1.9zm-2.6 1.5c0 .8-.3 1.3-1 1.2s-2-1.4-2-2.3.3-1.1 1-1.1c1.1.2 1.9 1.1 2 2.2zm5.8.1c0 .8-.7 1.8-1.3 1.7s-1.3-1-1.3-1.9.6-1.7 1.2-1.6 1.4 1.1 1.4 1.8z" class="st94"/><path d="M58.1 28.6c-.1.7-.2 1.4-.9 1.5-.7 0-1.3-.4-1.5-1v-.2c-.2-.7-.3-1.4.3-1.9.3-.4.7-.4 1.1-.2.6.4 1 1.1 1 1.8z" class="st96"/><path d="M26.2 57.2c.4-.5.8-.9 1.3-1.3s1-.7 1.6-.3.6.8.6 1.4l-.5.3c-.4.4-1.1-.3-1.4.4s0 .9-.1 1.3.1.7-.4.7h-.6c-.2-.7.1-1.6-.5-2.2v-.3z" class="st97"/><path d="M21.7 41c0-.6.4-1.2.9-1.6.3-.2.8-.1 1 .2.4.7.4 1.6-.1 2.2-.3.4-.6.8-1.1.6s-.7-.6-.7-1.4zm4.6.7c-.2.9-.9 1.6-1.8 1.8-.7.1-1.1-.4-.8-1.1.2-.7.7-1.2 1.4-1.5.4-.2.9-.1 1.1.3.1.1.1.3.1.5zm19.3 20.6c.6 0 .9.2.9.8-.3.9-1 1.6-2 1.8-.6 0-.8-.4-.8-.9.2-.9 1-1.6 1.9-1.7z" class="st96"/><path d="M20.5 57.7c-.4-.3-.6-.1-.6.3v1.6c0 .2.1.6-.3.6s-.8.2-.9-.5v-2.5c.8.1 1.7-.5 2.5.3s-.1 1.4.2 2-.3.7-.8.6.1-1.6-.1-2.4z" class="st98"/><path d="M51.3 14.6c-.1-.3 0-.6.2-.8.2-.4.4-.7.9-.6s.6.4.8.7c.1.3.1.6.1.9-.1.6-.2 1.4-1 1.5s-1.1-.8-1-1.7z" class="st96"/><path d="M48.7 14.8c0-.5 0-1.1.6-1.2s1.6 1.2 1.6 2-.2 1.1-.9 1.1-1.3-1-1.3-1.9z" class="st94"/><path d="M15.3 60.3c-.7-.3-1.1-1-1-1.8v-2h-.1c0-.1 0-.1.1-.1l-.2-.2c.3-.4.9-.4 1.3 0l.1.1c.3.7.3 1.4.2 2.1 0 .5.1 1 .3 1.4 0 .5-.4.4-.7.5z" class="st99"/><path d="M51.1 56.9l.5-1.3c.9 1.5 1.3 3.1 2.2 4.5-.5.4-1.2.4-1.7 0 .2-.3.2-.8-.1-1.1-.2-.2-.4-.4-.4-.7l-.3-.3-.2-.3c0-.3-.2-.5 0-.8z" class="st100"/><path d="M43.9 60.6c.3.8.2 1.7-.3 2.4-.2.5-.8.7-1.3.5-.5-.1-.5-.6-.4-1s.3-1.5 1.2-1.8.4-.2.6-.2.1 0 .2.1z" class="st101"/><path d="M21.1 42c0 .7-.3 1.3-1.1 1.3s-.9-.6-.9-1.2.5-1.6 1.1-1.6.9.5.9 1.5z" class="st94"/><path d="M48.1 58.1h-.4c-.1.1-.1.2-.1.3-.1.6 0 1.1.3 1.6h-1.4c-.3 0-.4-.1-.2-.4.2-1.2.3-2.5.1-3.7.4-.2.8-.3 1.1 0s.2.9.3 1.4.3.5.3.8z" class="st102"/><path d="M55.5 16.6c0 .8-.7 1.8-1.2 1.7s-.8-.7-.8-1.4.1-1.4 1-1.5.8.7 1 1.2z" class="st103"/><path d="M49.7 18.5c-.1.4-.4.6-.8.6-.9-.1-1.6-.9-1.6-1.8 0-.5.4-.8 1-.7.9.2 1.5 1 1.4 1.9zm-8.4 44.1c0 .9-.6 1.7-1.2 1.7s-.8-.6-.8-1.2.4-1.6 1.1-1.6.8.7.9 1.1zm3.2 5.1c-.5.1-.9-.1-.8-.8.1-.8.7-1.4 1.5-1.5.6 0 1 .3 1 .9s-.8 1.4-1.7 1.4z" class="st96"/><path d="M36.3 56.1c0-.5.4-.4.7-.4s.4.2.4.5c0 1.2 0 2.5.2 3.7 0 .2-.2.3-.3.2s-1 .4-1-.4v-3.6z" class="st104"/><path d="M39.5 59.9c-1.1.5-1.3.4-1.3-.7.1-.9.1-1.7 0-2.6 0-1 .1-1.1 1.1-.7.2 1.3.2 2.7.2 4z" class="st105"/><path d="M26.3 44.9c-.1.9-.8 1.5-1.7 1.5-.5-.1-.7-.3-.7-.9.1-.8.8-1.4 1.6-1.4.6 0 .8.3.8.8z" class="st93"/><path d="M22.3 57.5c-.1-.2-.1-.3.2-.4s1.1 0 1.2.7c.1.6.1 1.1 0 1.7-.1.8-.6 1-1.4.5s.1-.1 0-.2v-2.3z" class="st106"/><path d="M32.7 60.1c-.6.1-.5-.4-.7-.7l-.5-1c-.1-.4-.3-.7-.5-1.1 1-.3 1-.3 1.4.6s.7 1.4.3 2.2z" class="st107"/><path d="M23.5 56c.7 0 1.4 0 1.6.9.1.1.1.2 0 .3-.3.3-.6.6-.8 1-.1.3-.2.7-.1 1 .1.2.1.4-.1.5l-.2.2c-.7-.4-.2-1.1-.3-1.7s.1-1-.5-1.3c-.1-.4.1-.7.4-.9z" class="st108"/><path d="M39.8 58.1c.3-.4.5-.9 1.1-1v.5c0 .5-.4 1-.1 1.5s.7.7 1.3.2c-.4 1.1-1.3 1.2-2.2.2-.4-.4-.5-1-.1-1.4z" class="st109"/><path d="M48.1 58.1c-.2-.2-.5-.1-.6-.4s1-.9 0-1.5-.7-.2-1.1-.2-.4-.2 0-.3h1.7c.7.1 1.4.3 1.4 1.2s-.6 1.2-1.4 1.2z" class="st110"/><path d="M29.3 57.1h.4c.4.2.6.6.6 1-.1.6 0 1.2.1 1.8.1 0 .2.1.2.2s-.1.2-.2.2c-.4 0-.8.2-1.2-.2v-1.9c-.1-.2-.2-.4-.2-.6 0-.3.2-.4.3-.5z" class="st111"/><path d="M24.1 58.1c.2-.5.5-.8 1-1 .2 0 .3.1.3.3v2.5c-.1.2-.2.3-.4.3l-.9-.5v-.6c-.1-.3-.1-.7 0-1z" class="st112"/><path d="M35.7 59.7c-.1.8-.7.4-1 .4s-.1-.4-.1-.6c.1-.7.1-1.5-.1-2.2.2-.5.6-.3 1-.1s-.1 1.7.2 2.5z" class="st102"/><path d="M26.3 57.3c.7.6.8 1.6.4 2.4-.3.1-.4.5-.8.5-.2 0-.3-.1-.3-.3 0-.7 0-1.5.1-2.2.1-.3.2-.6.6-.4z" class="st113"/><path d="M15.9 60c-.6-.5-.4-1.2-.5-1.8s.1-1.2.1-1.9.4.2.4.5v1.1c-.1.9 0 1.6 1.2 1.4 0 .1 0 .3-.1.4-.4.3-.7.5-1.1.3z" class="st114"/><path d="M40.9 57.4v-.3c.6-.4 1 .1 1.3.5s.3 1-.5.9-.9-.1-.8.6c-.4-.5-.4-1.1 0-1.7.1.1.1.4.2.3s-.1-.2-.2-.3z" class="st115"/><path d="M39.8 58.1c0 .5 0 1 .2 1.4-.1.2-.6 0-.5.4s-.2-1.8-.3-2.8.1-.8.1-1.2c.4.3.5.8.3 1.3-.2.3-.2.6.2.9-.1 0 0 0 0 0z" class="st116"/><path d="M36.3 56.1c.2 1.2.2 2.4 0 3.6-.4-1.2-.4-2.4 0-3.6z" class="st117"/><path d="M16.9 59.5l.2-.2c.5-1 .1-2 .2-3s.4-.1.5.1c.2 1 .2 2-.1 2.9-.2.1-.2.4-.4.4s-.3 0-.4-.2z" class="st118"/><path d="M23.1 56.8c.5.2.6.6.6 1.2-.1.6-.1 1.3.2 1.9-.4.8-1 .3-1.6.4s-.2-.2 0-.3 1.2.3 1.2-.7c-.1-.4-.1-.8 0-1.2 0-.8-.3-1-1-1l.2-.4c0-.1.1-.2.2-.2.2.1.2.2.2.3z" class="st119"/><path d="M43.9 60.6h-.2c-.2.1-.3-.1-.4-.3s-.7-.3-.6-.8c.1-.2.3-.4.5-.4.4 0 .7.3.8.7.2.1.2.2 0 .3l-.1.5z" class="st120"/><path d="M27.3 59.7c.4-.7.1-1.6.2-2.4s.4 1.2.4 1.7.2.9.9.7.3.4.1.6l-.4.2c-.4-.4-1.3.2-1.2-.8z" class="st121"/><path d="M35.1 56.7c-.3 0-.5-.2-.5-.5-.1-.2.1-.5.4-.5.3-.1.5.1.6.4v.1c0 .3-.2.4-.5.5z" class="st122"/><path d="M18.7 57.5c.2.7.2 1.5 0 2.2-.4-.7-.4-1.5 0-2.2z" class="st123"/><path d="M23.1 56.8h-.4c-.2-.2-.4-.5-.1-.8s.6-.1.9.1c0 .3-.2.5-.4.7z" class="st124"/><path d="M52.1 60.1h1.7c.1.1.2.4 0 .4h-1.7c-.2-.1-.1-.3 0-.4z" class="st125"/><path d="M22.3 57.5c.2.8.2 1.5 0 2.3-.3-.7-.3-1.6 0-2.3z" class="st126"/><path d="M37.7 59.5v-3.3h.1l-.1 3.3z" class="st127"/><path d="M16.9 59.5l.4.2c-.5.6-1.3.8-2 .6l.6-.3c.4-.1.8-.1 1-.5z" class="st128"/><path d="M46.3 59.7c-.2-.1-.2-.2-.2-.4-.2-1-.2-2 0-3 .4.6.1 1.2.2 1.7v1.7z" class="st129"/><path d="M14.3 56.3v.2c-.4.9 0 1.8-.4 2.6v-2.4c0-.2.1-.3.4-.4z" class="st130"/><path d="M51.7 58.1l.3.9h-1.1c-.4-.2-.5-.5-.2-.8s.7.2 1-.1z" class="st131"/><path d="M38.5 36.5h-1.8c.6-.5 1.2-.3 1.8-.3v.3z" class="st6"/><path d="M17.7 59.3v-3c0-.1 0-.2.2-.1.1 1 .1 2 0 3l-.2.1z" class="st132"/><path d="M33.9 57.3c-.3.3-.2.8-.7 1s.2-.8-.1-1.2.6-.3.8.2z" class="st133"/><path d="M50.8 58.1c-.3.3 0 .5.1.8s-.4 0-.5.2c.1.2 0 .4-.1.5H50c0-.6.2-1.2.8-1.5-.1-.2-.1-.2 0-.2s.1 0 0 .2z" class="st134"/><path d="M17.9 59.3v-3c.3 1 .3 2 0 3z" class="st129"/><path d="M46.1 56.3v3c-.4-1-.4-2 0-3z" class="st135"/><path d="M33.9 57.3c-.2-.3-.5-.2-.8-.2.8-.3 1.7-.3 2.4.1-.4 0-.7-.2-1 .1h-.6z" class="st136"/><path d="M50 59.5h.2c.2 0 .4.1.4.3s-.6.2-1 .3v-.2c0-.3.3-.3.4-.4z" class="st137"/><path d="M35.7 59.7v-2.4c.3.8.3 1.6 0 2.4z" class="st138"/><path d="M15.5 56.2c-.4-.4-1-.4-1.4-.1H14c.1-.3.1-.3.9-.3s.7-.2.9.3-.1 0-.3.1z" class="st139"/><path d="M20.5 57.7c.4.8.1 1.6.2 2.4s-.1-1.6-.2-2.4z" class="st98"/><path d="M50.6 59.8c-.2 0-.3-.1-.4-.3.1-.1 0-.3.2-.4h1.4c-.4.4-1.1 0-1.2.7z" class="st140"/><path d="M17.9 56.2h-.6c0-.1-.4-.2-.2-.4s.7-.3.8.4z" class="st141"/><path d="M26.3 57.3c-.2 0-.4.2-.4.4-.4.1-.4-.2-.6-.3l-.2-.3v-.2c.4 0 .8.1 1.1.3l.1.1z" class="st142"/><ellipse cx="20.2" cy="58.8" class="st143" rx=".1" ry="1.2"/><path d="M43.3 60.3l.4.3c0 .2-.2.4-.4.5-.1.1-.3.2-.3 0s0-.3.1-.4l.2-.4z" class="st144"/><path d="M21.9 58v1.5h-.1V58h.1z" class="st145"/><path d="M21.5 59.5c-.4-.6-.1-1.3-.2-2s.2 1.3.2 2z" class="st98"/><path d="M25.7 59.9l.2.3c-.1.3-.4.4-.6.3-.1 0-.1-.1-.2-.1v-.3l.3-.3s.1 0 .3.1z" class="st146"/><path d="M50.9 57.9h-.2c-.1-.4.2-.6.4-1l.2.8-.2.3-.2-.1z" class="st147"/><path d="M30.7 42.1l-.2.2c-.2-.1-.5-.2-.6-.5.2-.2.5-.1.7.1.1 0 .1.1.1.2z" class="st148"/><path d="M47.6 58.5c-.1-.1-.2-.2.1-.3l1 .3h-1.1z" class="st149"/><path d="M16.7 60.7c-.6 0-.9.1-1.3-.1.4-.1.9-.1 1.3.1z" class="st150"/><path d="M25.1 60.5c.3.1.6 0 .8-.2-.1.6-.5.4-.8.4v-.2z" class="st151"/><path d="M32.1 43c-.4-.1-.7-.3-.9-.6h.5c.2.1.6.2.4.6z" class="st2"/><path d="M44 60.1v-.3c.5-.1.2.2.3.4h-.1l-.2-.1z" class="st152"/><path d="M56.1 12.3h-.7c.3-.2.5-.2.7 0z" class="st153"/><path d="M6.9 50.3v-1c.3.4.3.7 0 1z" class="st154"/><path d="M90.2 50.3c.5-.1 1-.2 1.5-.5.8-.4 1.6-.7 2.5-1 .9-.2 1.8-.5 2.6-.9 1-.6 2-1 3.1-1.3h-.1c.6-.3 1.2-.6 1.8-.8.4-.3.8-.5 1.3-.6h-.1c.5-.4 1.1-.6 1.7-.8h-.1c.5-.3 1-.6 1.5-.8h-.1c.7-.5 1.5-.9 2.3-1.2 1.8-.9 3.4-2.3 5.2-3.3l2.5-1.4c.3 0 .3.2.2.4-2.3 2.9-5.4 4.8-8.5 6.6s-6.8 3.6-10.4 5.2c-.2.1-.5 0-.7.2s-1.2.5-1.8.6l-1.6.5c-1.2.7-2.6 1.1-4 1.1l-2 .2c.6-.6 1.3-1.1 2.1-1.5.2-.3.5-.3.8-.4l.3-.3z" class="st155"/><path d="M111.8 32.9c-2.4-.2-4.8-.3-7.2-.1-.3 0-.5 0-.7-.2.7-.1 1.4-.1 2.1 0 1.1.1 1.3-.4 1.4-1.3.1-1.2.5-2.2 1.3-3.1.5-.7 1.3-1 2.1-.7 1.2.4 2.2 1 3.1 1.9.6.5.8 1.3.6 2-.3.8-1 .9-1.8 1-.4-.1-.8-.1-1.2 0-.3.1-.2.3.1.4l.2.1z" class="st8"/><path d="M110 63.1c.1.5 0 1-.1 1.5-.5 1-1.6 1.3-2.2.4-.6-.7-1.3-1.2-2.1-1.6-.7-.2-1.4-.6-1.4-1.4s.7-1 1.4-1.3c.9-.5 2-.7 3-.6s1.2.9 1.4 1.7c.1.4.1.9 0 1.3zM90.3 28.5c2.1 0 2.5.5 2.5 2.5 0 .8-.2 1.7-.6 2.4s-1.3.9-1.7.2c-.9-1-1.9-1.9-3-2.7-.8-.7-.6-1.3.3-1.8.8-.4 1.6-.6 2.5-.6z" class="st6"/><path d="M94.6 50.7c.6-.3 1.2-.5 1.8-.6 1.8.8 2.2 3 .8 4.7-.2.4-.5.7-.9.9-.5.6-1.4.7-2 .3-.7-.4-1-1.2-.8-2 .1-1.1.6-2 1.3-2.8.5-.4.2-.5-.2-.5zm1 8.9c.1-1.6 1.2-3 2.8-3.4.8-.2 1.8.8 1.8 1.8-.1 1.6-1.2 3-2.7 3.5-1 .3-1.9-.6-1.9-1.9z" class="st93"/><path d="M123.4 50.7c1.7 0 2.2.6 2.2 2.1 0 .6-.2 1.2-.4 1.7-.4 1-1.4 1.1-1.9.2-.4-.7-1-1.2-1.7-1.6-.5-.2-.8-.6-.8-1.1 0-.7.6-.7 1-.9.5-.3 1-.4 1.6-.4z" class="st94"/><path d="M126.2 38.9v.9c0 .5-.3.9-.7 1-.4.2-.9.1-1.2-.3-.4-.6-1.1-1-1.8-1.2-.5-.2-1.1-.5-1.1-1.1s.6-.9 1-1.2c.6-.3 1.3-.6 2-.6.9-.2 1.7.5 1.8 1.6v.9zm-38.6-19c0 .4-.4.8-1.1.7-1-.2-2-.3-3-.1-.9.1-1.3-.5-1-1.3.4-.9 1.1-1.7 2-2.3.4-.2 1-.2 1.4 0 1 .7 1.6 1.8 1.7 3z" class="st6"/><path d="M89 52.3l4-1.1c-.2.4-.2.8-.2 1.2.1.7-.1 1.3-.5 1.9-.2.7-.9 1.1-1.6 1-.8 0-1.1-.6-1.4-1.2-.2-.5-.4-1-.5-1.6l.2-.2z" class="st15"/><path d="M111.6 23.5v.8c0 .7-.5 1.2-1.1 1.4s-1-.3-1.3-.7c-.7-1-.8-2.3-.2-3.4.3-.6 1.1-.7 1.6-.4.1.1.2.1.3.2.5.6.8 1.3.7 2.1z" class="st93"/><path d="M108.2 25.4c0 .5.1 1.1-.5 1.3s-1.2 0-1.7-.4c-.7-.6-1.2-1.5-1.2-2.5-.1-.5.2-1 .6-1.3.5-.2 1-.2 1.4.2.9.6 1.4 1.6 1.4 2.7z" class="st6"/><path d="M115.2 26.2c0 1.1-.7 2.1-1.5 2.1s-1.5-.9-1.5-2.1.7-2.2 1.5-2.2 1.5 1 1.5 2.2zm-11.8 1.9c-.1-.7.4-1.2 1.1-1.3h.3c1.3.2 2.2 1.3 2.2 2.6 0 .6-.5 1.1-1.1 1.1h-.1c-1.2-.2-2.2-1.2-2.4-2.4z" class="st93"/><path d="M108.6 57.7c0-.8.3-1.6.9-2.1.4-.3.8-.6 1.3-.4.5.3.7.9.6 1.4-.1.7-.5 1.3-1 1.8-.3.3-.7.7-1.2.4-.4-.2-.6-.6-.6-1.1zM95 29.4c-.6 0-1.1-.1-1.2-.9s1.3-1.9 2.4-1.9 1.2.1 1.2.8-1.2 2-2.4 2z" class="st94"/><path d="M111.6 60.5c-.5 0-.8-.3-.8-1 .2-1.2 1.3-2.1 2.5-2.1.6 0 1 .5.9 1.1v.1c-.5 1-1.5 1.8-2.6 1.9z" class="st93"/><path d="M92 26.3c0-.9.6-1.8 1.4-2.2.3-.2.8-.2 1.1.1.3.3.6.6.5 1.1-.2.8-.7 1.4-1.3 1.9-.3.3-.8.4-1.2.2-.5-.2-.5-.6-.5-1.1zm-.8-.5c.1.5 0 1.1-.4 1.5s-.8.8-1.5.5c-.6-.4-.9-1.1-.6-1.8.3-1 1.1-1.7 1.8-1.5.5.2.8.8.7 1.3zm20.4 38.1c-.7.1-1.1-.2-1.1-.9s1.3-1.9 2.1-1.8c.6-.1 1.1.4 1.2 1 0 .7-1.2 1.7-2.2 1.7zm-17.4-31c-.5.1-1-.3-1.1-.9v-.1c0-.8 1.3-1.8 2.2-1.7s1.2.4 1.1 1.1c-.2 1-1.2 1.7-2.2 1.6zm13.6 24.8c.1.7-.3 1.3-.8 1.7-.4.3-1.1.2-1.4-.2 0-.1-.1-.1-.1-.2-.2-.6-.2-1.3.1-1.9.3-.6.7-1.1 1.4-.9s.8.8.8 1.5zm15.8 5.6c.1.6-.3.9-.8 1s-1.6-1.2-1.6-2.1.2-.9.7-1 1.7 1.2 1.7 2.1zm3.6-15.4c0 1-.7 2-1.5 2s-.9-.3-.9-.8 1-2.1 1.7-2.1.8.4.7.9z" class="st94"/><path d="M85.8 14.6c0-.4.1-.7.3-1 .4-.5.7-1 1.4-.8s.6 1 .5 1.6c-.1.3-.2.5-.4.7-.2.5-.6.9-1.1.7-.5-.1-.8-.7-.7-1.2z" class="st96"/><path d="M128.3 49.1c.6 0 1.1.2 1.1.8-.3.9-1.1 1.5-2.1 1.6-.6 0-.9-.3-.9-.8.2-.9 1-1.6 1.9-1.6zm-24.5 23.1c0 .5-.1 1.3-1 1.3s-.9-.8-1-1.5c0-.6-.1-1.4.8-1.5s1.2.6 1.2 1.7zM127 33.6c0 .8-.9 1.8-1.5 1.7s-.7-.6-.7-1.2.7-1.8 1.4-1.7.8.6.8 1.2zm-1.2 28.3c0 .8-.1 1.5-.9 1.6s-1-.7-1.1-1.4v-.6c0-.5.1-1.1.8-1.2s.9.5 1.1 1c.1.2.1.4.1.6zm1.6-25.3c-.5 0-.8-.2-.8-.8s1.1-1.9 1.9-1.8c.4-.1.8.3.9.7v.1c-.2 1-1 1.7-2 1.8z" class="st94"/><path d="M106.4 71.9c0 1-.7 1.9-1.4 1.8s-.8-.6-.8-1.2.8-1.8 1.4-1.8.8.6.8 1.2z" class="st96"/><path d="M83.4 13.9c0-.6 0-1.3.7-1.4s1 .5 1.2 1.1c.1.2.2.5.1.8-.1.5-.2 1.2-.9 1.2s-.9-.6-1-1.1c-.1-.2-.1-.4-.1-.6z" class="st94"/><path d="M122.2 49.1c0-1 .6-1.7 1.3-1.6s.8.4.9 1-.8 1.8-1.4 1.8c-.5 0-.9-.5-.9-.9.1-.1.1-.2.1-.3zm.6 16.8c0 .4-.4.8-.8.8-.9-.2-1.6-.8-1.8-1.7.1-.5.4-.8.9-.8.6-.1 1.7.9 1.7 1.7z" class="st96"/><path d="M107.8 74.7c-.1.8-1 1.7-1.6 1.6s-.7-.6-.7-1.1.9-1.7 1.5-1.6c.5 0 .9.5.8 1.1 0-.1 0 0 0 0z" class="st156"/><path d="M126.8 54.3c-.5 0-.9-.1-1-.8.2-.8.9-1.3 1.7-1.3.5 0 1 .1 1.1.7s-.9 1.4-1.8 1.4z" class="st96"/><path d="M87.2 17.3c0-.9.6-1.2 1.2-1.7h.3c.7.2.8.7.7 1.3s-.8 1.6-1.4 1.5c-.5-.1-.9-.6-.8-1.1z" class="st157"/><path d="M128.4 37.2c.5 0 .8.3.8.9-.2.8-1 1.4-1.8 1.4-.5 0-.8-.3-.8-.9s1-1.4 1.8-1.4z" class="st96"/><path d="M128.2 63.6c0 .7-.2 1.4-1 1.5s-1-.7-1-1.3 0-1.4 1-1.5.9.6 1 1.3z" class="st94"/><path d="M122.2 34.9c0-1 .4-1.6 1.1-1.5s.9.6.9 1.2-.6 1.6-1.2 1.5-.8-.6-.8-1.2zm-22.4 39c0-.8.1-1.3.8-1.3s1.2.8 1.2 1.7-.2 1-.9 1-1.1-.6-1.1-1.4z" class="st96"/><path d="M83.4 16.4c.1.6-.1 1.1-.8 1.1s-1.2-.8-1.2-1.7.1-1 .8-1 1.2.8 1.2 1.6z" class="st94"/><path d="M99.9 46.6l-3.1 1.3c-.1.2-.3.2-.5.1 1.1-.8 2.3-1.3 3.6-1.4zm-5.7 2.3c-.8.4-1.6.7-2.5.9h-.4c-.1-.2.1-.2.2-.3l.5-.3c.4.5.8 0 1.2-.1s.6-.3 1-.2c.1 0 0 0 0 0z" class="st11"/><path d="M115.7 34h.3c.2.1.4.1.3.4-.1.2-.3.3-.5.2h-.1c-.6-.1-1.2.3-1.3.9h-.2c.1-.8.5-1.1 1.3-1.1s.8.1.2-.4z" class="st158"/><path d="M94.2 48.9c0-.1 0-.1 0 0 .4-.3.8-.3 1-.6l1.1-.3h.5c-.8.6-1.7.9-2.6.9z" class="st159"/><path d="M108.1 42.4c-.7.5-1.5.9-2.3 1.2.6-.7 1.4-1.1 2.3-1.2z" class="st11"/><path d="M137 48.3v-2.7h.1v2.7h-.1z" class="st160"/><path d="M101.6 45.8c-.5.4-1.2.7-1.8.8.4-.5 1.1-.8 1.8-.8zm2.9-1.4l-1.7.8c.4-.5 1-.9 1.7-.8z" class="st11"/><path d="M116 38.1c0-.2-.1-.3-.2-.4.2-.2.5-.4.8-.3-.1.3-.3.6-.6.7z" class="st161"/><path d="M105.9 43.6c-.4.4-.9.7-1.5.8.3-.6.9-.7 1.5-.8zm-3 1.6c-.4.3-.8.5-1.3.6.2-.5.8-.7 1.3-.6z" class="st11"/><path d="M106 77.9c-.3-.3-.4-.8-.4-1.2.3.3.5.8.4 1.2z" class="st156"/><path d="M96.3 48c-.3.2-.7.3-1.1.3.3-.3.7-.4 1.1-.3z" class="st11"/><path d="M111.8 32.8h-.2c.2-.3.5-.2.9-.2s-.5.1-.7.2z" class="st162"/><path d="M86.1 79.2c-.1.5.1 1.1-.6 1.5-.6.4-1.4.3-1.9-.2-.6-.4-1.4-.7-2.2-.6-1.1 0-2.4.1-2.8-1.1s.7-1.9 1.4-2.6c.6-.6 1.3-1 2.1-1.3.8-.5 1.9-.2 2.5.5.9 1.1 1.4 2.4 1.5 3.8z" class="st6"/><path d="M76.2 81.4c0 .9-.6 1.5-1.3 1.2-.7-.3-1.4-.3-2.1 0-.5.3-1.2.2-1.6-.2-.4-.6-.1-1.1.2-1.6.4-.7.9-1.3 1.5-1.7.5-.5 1.3-.5 1.8 0 .7.6 1.3 1.4 1.5 2.3zM78 73c-.1-.4 0-.8.2-1.1.5-1.1 1.3-1.3 2.1-.4.8.8.9 1.9.5 2.9-.2.5-.7.9-1.3.8-.7-.2-1.3-.8-1.4-1.5-.1-.2-.1-.5-.1-.7z" class="st93"/><path d="M76.2 76c0 .6-.3 1.2-.7 1.6-.5.4-.8.3-1.2-.1-.5-1-.2-2.2.8-2.7.7-.2 1.1.2 1.1 1.2z" class="st96"/><path d="M73.6 76.6c0 .4-.1 1.1-.8 1.2s-1-.6-1.2-1.3c0-.7-.1-1.5.8-1.8s1.2.8 1.2 1.9z" class="st94"/><path d="M75.6 79.2c.1-.9.7-1.7 1.3-1.7s.9.4.9 1-.8 1.8-1.3 1.8c-.5-.1-.9-.6-.9-1.1z" class="st163"/><path d="M71.8 79c0 .4-.4.8-.8.8-.5.1-1.4-1.1-1.3-1.7s.2-1 .9-1c.8.2 1.3 1.1 1.2 1.9z" class="st96"/><path d="M86.2 75.7c.8.6 1.5 1.3 2.1 2-1.4.4-2.1.1-2.2-.8s.1-.8.1-1.2z" class="st164"/><path d="M81.5 70.4l2.2 2.7c-.5-.3-1.2 0-1.7-.5-.5-.6-.7-1.4-.5-2.2z" class="st165"/><path d="M84.2 82.5c-.5 0-.7.1-1-.1.3-.1.7-.1 1 .1z" class="st166"/><path d="M83.1 67.1c.3.2.5.5.5.8-.3-.2-.6-.4-.5-.8z" class="st26"/><path d="M53.1 79.5l.6-3.8c1.4-.4 1.9 0 2 1.6s-.3 1.6-1.2 2.1c-.4.3-1 .4-1.4.1z" class="st15"/><path d="M53.3 53.7c.6 0 1.2.1 1.8.3 1.3.5 2.4-.2 3.6-.4s.2-.9.6-1.2.3 1-.2 1.5-.8.5-.5 1.2c-.4-.9-1-.8-1.7-.8-1 .1-2.1.1-3.1-.2-.2 0-.5 0-.5-.4zm-1.5.1c.3.2.7 0 1 .3s-.1.3-.2.3-.6-.3-.8-.6zM32.1 43l-.4-.7c.4.1.7.3.9.6.2.5-.3.1-.3.3s-.2-.1-.2-.2z" class="st0"/><path d="M57.9 55.4c-.2 0-.2-.1-.2-.3s0-.2.2-.2.1.1.1.2 0 .3-.1.3zm7.5-17.3c.1 0 .3-.7.6-.3v.3c-.3.3-.6-.1-.6 0z" class="st0"/><path d="M84.4 69c.1.3.3.6.6.7l.3.4c.3.5.1 1.1-.4 1.4h-.1c-.2-.1-.3-.3-.4-.5.1-.5 0-1-.1-1.5-.1-.2-.4-.5.1-.5z" class="st167"/><path d="M88 73.7c0 .6-.5.6-.8.8s-.4-.3-.6-.6.9-.7 1.4-.2z" class="st168"/><path d="M34.2 37.1c.2-.2.4-.5.7-.4v.2c-.1.4-.4.2-.7.2z" class="st6"/><path d="M91.6 77.4c.1-.3.3-.2.4 0s.2.2 0 .3-.3-.1-.4-.3z" class="st169"/><path d="M89.9 50.6l-.8.4c.1-.5.4-.5.8-.4z" class="st33"/><path d="M28.9 60.3c0-.2 0-.4-.2-.6-.5-1.1-.4-1.8.4-2.2.1.1.2.2.2.4.1.6.1 1.2 0 1.8-.2.2 0 .5-.2.6h-.2z" class="st170"/><path d="M29.1 60.3c0-.2-.1-.4.2-.6s.7.6 1.1.1.3.5-.2.5h-1.1z" class="st121"/><path d="M29.1 57.5c-.8.6-.4 1.5-.4 2.2s-.5.4-.8.4-.2-.3-.2-.6.2-1.5-.2-2.2 1.2.2 1.8-.2l-.2.4z" class="st171"/><path d="M50.9 57.9h.6l.2.2c0 .3-.1.4-.4.4s-.5-.1-.5-.4.1-.1.1-.2z" class="st172"/><path d="M51.5 57.9c-.1.1 0 .3-.2.3s-.2-.2-.3-.3l.3-.2.2.2z" class="st173"/><path d="M47.5 56.2c.4-.3.6-.1.8.2.2.3.2.7 0 1-.1.3-.3.4-.6.4-.1 0-.2 0-.2-.1v-1.5z" class="st174"/><path d="M24.1 58.1v1c-.3-.3-.3-.6 0-1z" class="st119"/><path d="M40.9 57.4c.4-.1.6.1.6.5 0 .2-.1.3-.3.3-.5 0-.3-.4-.3-.7v-.1z" class="st0"/><path d="M29.3 59.7v-1.8c.2.6.2 1.2 0 1.8z" class="st121"/><path d="M25.7 59.9h-.4c-.4-.8-.4-1.7 0-2.5.3-.1.4.2.6.3.1.7 0 1.5-.2 2.2z" class="st175"/></svg>