<?xml version="1.0" encoding="utf-8"?>
<!-- Generator: Adobe Illustrator 22.0.1, SVG Export Plug-In . SVG Version: 6.00 Build 0)  -->
<svg version="1.1" id="Logo" xmlns="http://www.w3.org/2000/svg" xmlns:xlink="http://www.w3.org/1999/xlink" x="0px" y="0px"
	 viewBox="0 0 144 95" style="enable-background:new 0 0 144 95;" xml:space="preserve">
<style type="text/css">
	.st0{fill:#650F15;}
	.st1{fill:#873E1E;}
	.st2{fill:#661016;}
	.st3{fill:#661116;}
	.st4{fill:#FCFCFB;}
	.st5{fill:#FBFBFB;}
	.st6{fill:#941E22;}
	.st7{fill:#942023;}
	.st8{fill:#941F22;}
	.st9{fill:#6D231C;}
	.st10{fill:#6C1F1A;}
	.st11{fill:#681D19;}
	.st12{fill:#932122;}
	.st13{fill:#C99C43;}
	.st14{fill:#FDFAF3;}
	.st15{fill:#941F23;}
	.st16{fill:#FDFAF2;}
	.st17{fill:#7B3A25;}
	.st18{fill:#F8F3EB;}
	.st19{fill:#982F28;}
	.st20{fill:#FEFAF2;}
	.st21{fill:#FBF7EF;}
	.st22{fill:#972E27;}
	.st23{fill:#FCF8EF;}
	.st24{fill:#EDD27C;}
	.st25{fill:#993827;}
	.st26{fill:#932F27;}
	.st27{fill:#99332D;}
	.st28{fill:#FDF8EF;}
	.st29{fill:#FCF7ED;}
	.st30{fill:#FCF8F1;}
	.st31{fill:#FEFBF4;}
	.st32{fill:#FCF7EE;}
	.st33{fill:#A75536;}
	.st34{fill:#D4A531;}
	.st35{fill:#FDF9F0;}
	.st36{fill:#FDF8F0;}
	.st37{fill:#FDF9EF;}
	.st38{fill:#894221;}
	.st39{fill:#FBF6EA;}
	.st40{fill:#FAF5ED;}
	.st41{fill:#FEFBF3;}
	.st42{fill:#FBF6EC;}
	.st43{fill:#FDF9F4;}
	.st44{fill:#C89B4F;}
	.st45{fill:#FCF7EC;}
	.st46{fill:#CFA653;}
	.st47{fill:#F5E9CF;}
	.st48{fill:#FDFAF1;}
	.st49{fill:#FEFBF6;}
	.st50{fill:#FEF9F0;}
	.st51{fill:#8D481F;}
	.st52{fill:#F9EFD8;}
	.st53{fill:#F9F2E0;}
	.st54{fill:#B07B3B;}
	.st55{fill:#F8F4F0;}
	.st56{fill:#FBF5E6;}
	.st57{fill:#F9F5F0;}
	.st58{fill:#FCF7EA;}
	.st59{fill:#FAF4E9;}
	.st60{fill:#FEFAF0;}
	.st61{fill:#F9F1E0;}
	.st62{fill:#FDF8EB;}
	.st63{fill:#BD8635;}
	.st64{fill:#E7C467;}
	.st65{fill:#BA832C;}
	.st66{fill:#FBF6EB;}
	.st67{fill:#BF8E46;}
	.st68{fill:#D0A649;}
	.st69{fill:#FDF9EE;}
	.st70{fill:#FDF8EC;}
	.st71{fill:#FEFAF1;}
	.st72{fill:#A76C30;}
	.st73{fill:#FCF6E6;}
	.st74{fill:#FEF9EF;}
	.st75{fill:#F0E1C1;}
	.st76{fill:#D9B56C;}
	.st77{fill:#FBF3DF;}
	.st78{fill:#FAF3E6;}
	.st79{fill:#FBF6E6;}
	.st80{fill:#FDF7ED;}
	.st81{fill:#FCF6E7;}
	.st82{fill:#F8EFDD;}
	.st83{fill:#FAF4E2;}
	.st84{fill:#FBF7EB;}
	.st85{fill:#FDF6E7;}
	.st86{fill:#F9F0D7;}
	.st87{fill:#FBF3E3;}
	.st88{fill:#F8EDCC;}
	.st89{fill:#FDF5E6;}
	.st90{fill:#B78453;}
	.st91{fill:#FAF1DA;}
	.st92{fill:#FDFCFB;}
	.st93{fill:#931E22;}
	.st94{fill:#931D22;}
	.st95{fill:#931F23;}
	.st96{fill:#921D22;}
	.st97{fill:#942225;}
	.st98{fill:#DFD0CF;}
	.st99{fill:#F4EEEE;}
	.st100{fill:#F4EFEF;}
	.st101{fill:#922023;}
	.st102{fill:#E9DFDE;}
	.st103{fill:#8F1C21;}
	.st104{fill:#D8C5C2;}
	.st105{fill:#DDCECC;}
	.st106{fill:#ECDCDB;}
	.st107{fill:#EADEDD;}
	.st108{fill:#952326;}
	.st109{fill:#E7DBDB;}
	.st110{fill:#E4D8D7;}
	.st111{fill:#F4ECEC;}
	.st112{fill:#F0E4E3;}
	.st113{fill:#F0E6E5;}
	.st114{fill:#600E13;}
	.st115{fill:#D6C2C1;}
	.st116{fill:#5F1416;}
	.st117{fill:#541010;}
	.st118{fill:#E1CFD1;}
	.st119{fill:#972F2F;}
	.st120{fill:#DDCBCB;}
	.st121{fill:#873E3E;}
	.st122{fill:#DBC9C8;}
	.st123{fill:#5A0C10;}
	.st124{fill:#D9C2C1;}
	.st125{fill:#5E0A0F;}
	.st126{fill:#7A1415;}
	.st127{fill:#5C0C11;}
	.st128{fill:#E5D7D8;}
	.st129{fill:#531110;}
	.st130{fill:#570F10;}
	.st131{fill:#A97B7B;}
	.st132{fill:#742429;}
	.st133{fill:#C9AAAB;}
	.st134{fill:#D7C0C1;}
	.st135{fill:#6B151C;}
	.st136{fill:#9D6468;}
	.st137{fill:#C4A3A4;}
	.st138{fill:#56100F;}
	.st139{fill:#9F696C;}
	.st140{fill:#581012;}
	.st141{fill:#ECE3E3;}
	.st142{fill:#C6A5A7;}
	.st143{fill:#501414;}
	.st144{fill:#D9AFB1;}
	.st145{fill:#5B0C10;}
	.st146{fill:#B88E91;}
	.st147{fill:#EBDFE0;}
	.st148{fill:#D2B9B0;}
	.st149{fill:#550F10;}
	.st150{fill:#560F10;}
	.st151{fill:#551011;}
	.st152{fill:#531010;}
	.st153{fill:#5A131D;}
	.st154{fill:#5A0D19;}
	.st155{fill:#FCFBFB;}
	.st156{fill:#911D21;}
	.st157{fill:#911D22;}
	.st158{fill:#B1783A;}
	.st159{fill:#CCB1AA;}
	.st160{fill:#590C19;}
	.st161{fill:#D2B8B1;}
	.st162{fill:#58131A;}
	.st163{fill:#901D21;}
	.st164{fill:#952727;}
	.st165{fill:#962C29;}
	.st166{fill:#5A111C;}
	.st167{fill:#71281E;}
	.st168{fill:#70241D;}
	.st169{fill:#FFFFFF;}
	.st170{fill:#94282A;}
	.st171{fill:#F0E4E4;}
	.st172{fill:#793335;}
	.st173{fill:#4D1212;}
	.st174{fill:#713233;}
	.st175{fill:#722A2C;}
</style>
<path class="st0" d="M44.4,80.1c-3.1-0.7-6.2-1.6-9.2-2.8c-5.1-1.8-9.9-4.3-14.3-7.3c-4.9-3.4-9.2-7.5-12-12.9
	c-0.2-0.3-0.4-0.6-0.4-1c-0.2-0.5-0.4-0.9-0.6-1.4c-0.2-0.6,0.2-0.5,0.5-0.5c0.4,0.1,0.9-0.2,1-0.6S9.3,52.8,9,52.5
	c-0.5-0.6-1.3-0.6-1.9-0.9c-0.2-0.3-0.3-0.7-0.3-1.1c0-0.4,0.1-0.8-0.1-1.1s0-0.7-0.2-1.1v-4.2c0.4-0.8,0.6-1.7,0.7-2.6
	c1.6-5.2,4.8-9.9,9-13.4c7.5-6.6,16.4-10.6,25.9-13.4c4.5-1.2,9.1-2.2,13.7-2.9h1.4c1.5-0.3,3.1-0.2,4.7-0.5
	c1.8-0.3,3.5-0.4,5.3-0.4c0.7-0.3,0.6,0.3,0.7,0.7c-0.6,2.4-1.2,4.8-1.6,7.3c0,0.8-0.2,1.6-0.4,2.4c-0.3,0.9-0.4,1.9-0.4,2.9
	c0,1.2,0,2.3-0.2,3.5c-0.1,0.6-0.2,0.9-0.9,0.9c-0.8,0.1-1.4,0.8-1.5,1.6c0,0.4,0,0.7,0.3,0.9s0.6,0.1,0.9,0
	c0.3-0.1,1.2-0.6,1.2,0.7v1.5c0.1,0.6-0.4,1.2-1,1.3c0.5,0.6,0.6,1.4,0.2,2.1c0.2-0.6,0.4-1.3,0.4-2c0-0.2,0-0.5,0.3-0.4
	s0.2,0.2,0.3,0.4s0,1.5,0.6,2.1s0.1,0.3,0,0.4c-0.7,0.6-1.5,0.9-2.4,0.9c-1.2-0.2-2.3-0.7-3.2-1.5c0,0.3,0.5,0.2,0.6,0.7
	c-0.8,0.3-1.7,0.1-2.3-0.5c-0.6-0.4-1-0.6-1.6-0.1c-0.2,0.2-0.5,0.2-0.8,0.1h-1.8c-0.2,0-0.5,0.1-0.6-0.1s-1.2-0.2-1.9-0.1
	c-2.4,0.1-4.8-0.1-7.2,0c-0.8,0-0.9-0.3-0.8-1s-0.6-2.2-2.1-1.9s-2.3,1-2.5,2.5s-0.3,0.8-0.9,0.7l-0.3-0.3V36c0.2-0.8,0.2-1.5,0-2.3
	C37.9,31.7,37,31,35,31c-1.7,0-3.4,0.6-4.8,1.5c-1,0.6-1.1,1.4-0.3,2.3c0.8,0.7,1.8,1.3,2.8,1.6c0.1,0,0.1,0,0.1,0.1
	c0.4,0.3,1,0.4,0.9,1S33,37.9,32.6,38s-0.7,0.2-1.1,0.5s0.3,0.4,0.4,0.5s1.2,0.5,0.1,0.8s-0.2,0.2-0.2,0.3s0.1,0.6-0.2,0.7
	s-0.5-0.3-0.7-0.5s-0.1,0.8,0.7,1s0.2,0.7,0.1,1.1h-0.4c-0.2,0-0.5,0-0.6-0.2h-0.1c-0.1,0.1,0.1,0.1,0.1,0.2
	c2.2,2.1,4.7,3.9,7.4,5.3c1.2,0.5,2.4,1.1,3.6,1.7c1.5,0.8,3.1,1.4,4.7,1.8c1.8,0.7,3.6,1.2,5.5,1.7c0.5,0,1,0.3,1.4,0.6v0.3
	c-0.6,0.3-1.1-0.1-1.6,0s-0.6-0.1-0.7,0.3s0.1,0.5,0.4,0.7c0.8,0.3,1.6,0.3,2.4,0c1.1-0.2,2.1,0.2,3.2,0.1s0.4,0.4,0.5,0.6
	s0.7,0.6,1,0c0.2-0.5,0.5-1,0.8-1.4c0.1-0.3,0.3-0.7,0.7-0.5s0.1,0.5,0,0.8c-0.1,0.7-0.4,1.3-0.8,1.9c-2.5,4.7-4.5,9.6-5.8,14.7
	c-0.1,0.3-0.1,0.6-0.4,0.8c-1.9,0.1-2.7,0.8-2.7,2.4s0.2,1.6,1.2,1.8c0.3,0.1,0.5,0.3,0.6,0.6c0,0.3,0,0.7-0.2,1
	c-0.3,0.7-0.6,1-1.4,0.5c-0.7-0.4-1.5-0.2-2,0.3c-0.5,0.3-0.9,0.7-1.2,1.2c-0.2,0.7-0.9,1.1-1.6,0.9c-0.1,0-0.3-0.1-0.4-0.2
	C45,80.2,44.7,80.3,44.4,80.1z"/>
<path class="st1" d="M6.5,48.3c0.3,0.3,0.2,0.8,0.4,1c0.1,0.3,0.1,0.7,0,1l0.2,1.2c0.1,0.1,0.1,0.4,0,0.5c-0.6-0.4-0.1-1.2-0.6-1.7
	V48.3z"/>
<path class="st0" d="M137,42.8c0.9,3.6,0.7,7.3-0.6,10.8c-1.7,4.8-4.7,9-8.6,12.3c-0.5,0.3-0.9-0.1-1.2-0.4
	c-1.9-1.1-2.9-0.6-3.3,1.5c-0.2,0.6-0.1,1.3,0.3,1.8c0.1,0.1,0.2,0.3,0.1,0.4l-0.1,0.1c-5.2,3.7-10.9,6.6-17,8.6H106
	c-0.3-0.4-0.3-0.9-0.6-1.2c-0.2-0.3-0.3-0.5-0.4-0.8c-0.8-1.4-1.6-1.5-2.8-0.4c-0.4,0.3-0.7,0.7-0.9,1.2c-0.4,0.8-0.2,1.2,0.7,1.3
	c0.5-0.1,1.1-0.1,1.6-0.1c0.3,0,0.6,0.1,0.6,0.4s-0.3,0.2-0.4,0.4l-3.1,1c-0.5,0.1-0.5-0.1-0.5-0.4s-0.7-2.8-1-4.3
	c-0.3-0.5-0.5-1-0.7-1.5c0-0.3-0.2-0.6-0.1-0.9s0.1-0.1,0-0.2S98,71.5,97.8,71l-1-2.5l-0.6-1.3C96,67.1,96,67,96,66.8
	c-0.2-0.4-0.4-0.7-0.6-1c-0.3-0.2-0.3-0.6-0.2-0.8l0.1-0.1c0.8-1.2,0.3-2.3-0.1-3.4c-0.3-1-0.9-2-1.6-2.8c-0.5-0.8-1.5-1.2-2.4-1
	c-0.5,0.1-0.9,0.1-1.2-0.3L86.8,53c0.5-0.7,1.3-0.5,2-0.6c0.3,0.2,0.5,0.5,0.5,0.9c0.1,0.3,0.2,0.7,0.4,1c0.6,1,1.6,1,2.3,0
	c0.4-0.6,0.6-1.3,0.6-2c0-0.5,0.1-0.9,0.3-1.3c0.5-0.3,1-0.5,1.6-0.5c0.8,0,0.9,0.4,0.5,0.9c-0.7,0.7-1.1,1.7-1.2,2.7
	c-0.1,0.7,0,1.4,0.7,1.7c0.6,0.2,1.3,0.1,1.8-0.4c0.4-0.4,0.8-0.9,1.1-1.4c0.3-0.7,0.5-1.5,0.4-2.3c-0.1-0.9-1-1-1.4-1.5
	s1-0.8,1.6-1c4.6-2,9-4.4,13.2-7.1c1.7-1.1,3.3-2.5,4.6-4.1c0.1,0,0.2-0.1,0.2-0.2h-0.2c-2,1-3.9,2.2-5.7,3.5
	c-0.6,0.5-1.2,0.8-1.9,1.1c-0.8,0.3-1.5,0.6-2.2,1.1h-0.2c-0.4,0.2-0.8,0.4-1.2,0.7h-0.3l-1.3,0.7h-0.2l-1,0.5h-0.3
	c-0.5,0.2-1,0.4-1.5,0.7h-0.3c-1.1,0.3-2.2,0.9-3.3,1.3s-0.1,0.1-0.2,0.1l-1,0.4l-1,0.4c-0.7,0.1-1.3,0.9-2.2,0.5v-0.3
	c0.5-0.4,1.2-0.5,1.7-1l1.1-0.4c2.5-0.9,5-1.9,7.4-3.1c2.7-1.1,5.2-2.6,7.6-4.3c1.9-1.3,3.4-3,4.4-5c0.2-0.9,0.9-0.9,1.6-1.1
	c-0.1,0-0.1,0-0.1-0.1c-0.6-0.4-1.4-0.6-2.1-0.6l-1.4-0.2l-0.4-0.2c-0.1-0.1-0.1-0.2,0-0.3h0.6c-0.3,0.1-0.6,0-0.9,0.2
	s-0.3-0.4,0-0.6c0.4-0.1,0.9-0.2,1.3-0.1c0.6-0.1,1.2-0.2,1.4-0.8c0.3-0.6,0-1.3-0.5-1.7c-0.7-0.7-1.5-1.2-2.4-1.6
	c-1.4-0.6-2.2-0.2-2.9,1.1c-0.4,0.8-0.7,1.6-0.8,2.5c-0.1,0.9-0.5,1.3-1.4,1.2H104l-5.1,0.7c-2.3,0.4-4.6,0.9-6.8,1.6l-2.4,0.7
	c-1.1,0.3-2.2,0.8-3.3,1.3l-1,0.4c-0.6,0.3-0.5,1-0.7,1.5c-0.1,0.5-0.3,0.9-0.7,1.2c-0.3,0.4-0.9,0.6-1.4,0.5
	c-0.6-0.2-0.3-0.8-0.3-1.3c-0.2-3.2-0.3-6.5-0.7-9.8c-0.8-5.7-2.3-11.3-4.4-16.7L76.8,12c-0.4-0.3-0.4-0.8-0.5-1.3s0-0.6,0.5-0.6
	c5.3,0.2,10.6,0.8,15.9,1.8c6.8,1.2,13.4,3.1,19.7,5.8l0.9,0.4c6.3,2.9,12.1,6.4,16.9,11.5c2.8,2.9,5,6.4,6.2,10.3
	C136.6,41.2,136.7,42,137,42.8z M77.9,60.3c0.7,0.1,1,0.7,1.3,1.3h0.1c0.9,0.8,1.6,1.8,2.1,2.9c0.1,0.3,0.4,0.5,0.6,0.7
	c0.3,0.1,0.6,0.4,0.6,0.8l0.2,0.3l0.4,0.5c0.1,0.3,0.3,0.6,0.5,0.8c0,0.1,0.1,0.2,0.1,0.3s-0.9,0.3-1.4,0.4
	c-0.7-0.7-1.4-1.5-1.9-2.3c-0.8-1.1-1.5-2.2-2.3-3.2c-0.8-0.9-1.9-1.5-3.1-1.7c1.2,1.8,2.3,3.3,3.4,4.8s1.7,2.3,2.6,3.5
	c0.3,0.4,0.5,0.8,0.6,1.2c0.1,1.7,0.1,1.7,2,2.3c1,0.8,2,1.7,2.7,2.8v0.5c-0.1,1.2,0.2,1.5,1.4,1.4h0.4c0.4,0.1,0.8,0.4,1.1,0.7
	c0.9,0.8,1.8,1.6,2.8,2.3c0.4,0.2,0.8,0.4,0.8,0.9s-0.7,0.1-1,0.3l-7.2,1.1c-5.3,0.6-10.6,0.8-15.9,0.7l-6.3-0.3
	c-0.6,0-1-0.2-0.4-0.9s0.4-0.6,0.8-0.8c0.2-0.3,0.2-0.7,0.5-0.8c0.8-0.9,1.6-1.8,2.3-2.8c0.1-0.3,0.2-0.6,0.4-0.8
	c0.1-0.1,0.3-0.3,0.2-0.5c0.2,0,0.4-0.1,0.5-0.3c0.7-1.4,1.7-2.6,2.3-4.1c0.2-0.5,0.4-1,0.8-1.4c0.5-0.9,1-1.8,1.4-2.7
	s0.1-0.9,0.5-1.2h0.1c0.3-1.1,0.9-2,1.2-3c0.3-0.9,0.5-1.8,0.6-2.7c-0.1-0.9,0.6-1.8,1.5-1.8c0.3,0,0.6,0,0.9,0.1l0.9,0.3
	C77.3,59.9,77.6,60.1,77.9,60.3L77.9,60.3z"/>
<path class="st2" d="M31.7,42.3c-0.3-0.3,0.3-0.4,0.1-0.8s-0.6,0.4-1,0.1s-0.3-0.6-0.2-1s-0.6-0.6,0-0.8s0.6,0.4,0.7,0.7
	s0.1,0.1,0.2,0.2s-0.1-0.7-0.1-1s0.6,0.1,0.9-0.2s-0.6,0-0.6-0.4s0.8-0.2,1.1,0.3s0,0.3-0.1,0.5c-0.3,0.5-0.1,1.1,0.4,1.4h0.1
	c0.2,0.1,0.4,0.3,0.5,0.5l1.1,0.6c0.5,0.1,0.9,0.3,1.3,0.6c0.5,0.1,1,0.3,1.4,0.6c0.9,0.6,2,0.8,2.9,1.3l1.4,0.5l2.6,1
	c1.9,0.8,3.9,1.4,5.9,1.8c4,0.7,8.2,0.9,11.9,2.7c0.6,0.4,1.2,0.8,1.7,1.3c0.5,0.3,0.4,0.9,0.5,1.4s-0.1,2.7-1,3.9
	c-0.6,0.6-1.2,1.4-1.6,2.2c-0.3,0.4-0.2,0.9-0.6,1.2h-0.1c-0.2,0.4-0.3,0.8-0.4,1.2c0,0.2,0,0.4-0.1,0.6l-0.3,0.2h-0.1
	c-0.1,0.2,0,0.6-0.3,0.8c-0.3,0.4-0.5,0.9-0.5,1.4c-0.2,0.9-0.4,1.7-0.8,2.5c-0.9,1.4-1,2.9-1.4,4.4c-0.4,1.6-0.8,3.2-1,4.8
	c0,0.2-0.1,0.3-0.2,0.4h-0.3c-0.2-0.1-0.2-0.3-0.3-0.5s-0.5-1.2-1.3-1.1s-0.3,0-0.5-0.1s0-0.6,0-1c0.5-2.4,1.2-4.8,2.2-7.1
	c1.3-3.6,2.8-7.1,4.7-10.5c0.4-0.7,0.7-1.6,0.8-2.4c0.1-0.4,0.2-0.9-0.1-1.1s-0.6,0.3-0.8,0.5s-0.3,0.3-0.5,0.2v-0.6h-0.2l-1.2,2.2
	c-0.3,0.5-1.1,0.6-1.2,0s-0.5-0.6-1.1-0.5s-1-0.4-1.5-0.3s-1.7,0-2.6,0.4s-1.6-0.8-1.5-1.4s0.3-0.4,0.6-0.5s1.3,0.3,2,0.2
	c1.2,0.5,2.6,0.6,3.9,0.5c0.3-0.1,0.7-0.4,1,0.1s0.2,0,0.3-0.1s0.9-0.7,0.8-1.5c0,0.8-0.4,1.1-1.1,1.3c-1.6,0.4-3.3,0.2-4.9-0.3
	c-1.8-0.8-3.7-1.1-5.5-1.7l-5.7-2c-0.3-0.1-0.5-0.2-0.6-0.5s0.9,0,1.3,0.2c3.5,1.4,7.1,2.3,10.7,3.4c0.9,0.3,1.9,0.4,2.9,0.4l1-0.2
	c0.4-0.1,1-0.3,1-0.7S57.6,52,57.2,52c-5.4-1.3-10.8-2.4-16.1-4.2c-2.4-0.9-4.8-2-7.1-3.2c-0.6-0.4-1.2-0.8-1.8-1.3
	C32.5,42.6,31.8,42.7,31.7,42.3L31.7,42.3z"/>
<path class="st3" d="M52.3,36.2c0.3,0,0.4-0.2,0.6-0.5s0.7-0.2,0.8,0s1.2,0.5,1.8,0.6l0.8,0.2c0.2-0.1,0.8,0.5,0.7-0.4
	c0.6-0.1,1.2,0,1.8,0.1c0.4,0.9,1.3,0.8,2.1,0.8l-0.6-0.2c-0.2-0.1-0.4-0.1-0.5-0.3s0.1-0.3,0.2-0.3s0.5-0.2,0.7,0.1
	s2.4,1.3,3.7,1.6s1.1-0.7,1.6-1v-0.2c-1-0.5-0.4-1.6-0.9-2.4c0,1.1-0.3,2.2-0.8,3.2c-0.3-0.3-0.2-0.4-0.1-0.6s0.5-1.6-0.2-2.3
	s-0.3-0.7,0.1-0.9s0.2,0.5,0.5,0.7s0.5-0.6,0.5-1.1h0.3c0.3,0.3,0.3,0.8,0.4,1.2c0.2,0.8,0.6,1.4,1.2,2c0.3-0.8,0.4-1.6,0.4-2.4
	c-0.1-3.7-0.4-7.5-0.2-11.2c0-3.5,0.3-7.1,1.1-10.5c0.1-0.3,0.2-0.7,0.4-1c0.1-0.3,0.3-0.6,0.6-0.8c0.9-0.3,1.5,0,1.4,1
	s0.1,4.1-0.5,6.1l-0.6,3.7c-0.3,2-0.2,4.1,0,6.1c0.3,2.3,0.7,4.7,0.8,7.1c0.2,1.5-0.1,3.1-1,4.4c-0.4,0.3-0.7,0.6-1,0.9
	c-0.5,0.4-1.2,0.7-1.9,0.8c-0.8,0.1-0.9-0.2-0.6-0.8c0.2-0.8,0-1.2-0.8-1.2c-0.4,0.1-0.8-0.1-1.1-0.4c-1.2,0.1-2.3-0.2-3.4-0.6h-0.1
	c-1-0.4-2.2-0.2-3.2-0.4s-0.8-0.1-1-0.4h-0.4c-0.8-0.2-1.6,0.1-2.4-0.2S52.4,36.9,52.3,36.2L52.3,36.2z"/>
<path class="st4" d="M59.9,54.3c0.3-0.1,0.4-0.4,0.5-0.7s0.3-0.7,0.8-0.5c0.4,0.1,0.6,0.5,0.5,0.8V54c-0.1,0.9-0.3,1.7-0.7,2.5
	c-1.4,2.9-3,5.8-4.1,8.8c-1.3,3-2.3,6.2-3.1,9.4c-0.2,2-0.7,3.9-0.9,5.9c0.1,0.4,0,0.9-0.2,1.3h-1.1c-0.1-0.2-0.4-0.3-0.5-0.6
	c0-1.3,0.2-2.6,0.6-3.8c0.2-0.3,0.2-0.7,0.2-1c-0.1-1.7,0.2-3.3,1-4.8c0.9-3.6,2.2-7.2,3.7-10.6c0.8-1.9,1.8-3.8,2.8-5.7
	C59.6,55,59.8,54.7,59.9,54.3L59.9,54.3z"/>
<path class="st5" d="M92.9,81.3c-1.6-1.1-3.1-2.3-4.6-3.6c-0.9-0.5-1.6-1.2-2.1-2l-2.5-2.6c-1-0.7-1.7-1.6-2.2-2.7l-4.6-6.2
	c-0.7-1.1-1.5-2.1-2.3-3.4c1.5,0.1,2.9,0.8,3.8,1.9l4,5.6c0.7,0.3,0.9,1,1.3,1.5l0.8,1l0.5,0.7c0.5,0.8,1.2,1.5,1.7,2.3l0.7,0.7
	c0.6,0.8,1.3,1.5,2,2.1c1.8,1.6,3.6,3.1,5.6,4.5c0,0.2-0.1,0.4-0.3,0.5c-0.1,0-0.2,0-0.3-0.1c-0.4,0-0.8,0-1.2,0.2
	C93.1,81.5,92.9,81.4,92.9,81.3z"/>
<path class="st6" d="M52.3,36.2c0.3,0.4,0.9-0.1,1.2,0.4c-1.3,0.1-2.6,0.1-3.9,0c-3-0.4-6.1,0-9.1,0.1l-2.1,0.2
	c-1.8,0.2-3.6,0.6-5.4,1.2c-0.5,0-0.9,0.2-1.3,0.4c0,0.1-0.1,0.2-0.2,0.2s-0.2-0.1-0.2-0.2c0.4-0.5,1-0.4,1.6-0.6s0.6-0.1,0.6-0.4
	s-0.3-0.4-0.5-0.6l-0.3-0.3c0.5-1.8,1.2-1.8,2.6-1.5s1.3,0.5,2.1,0.2s1.1,0.1,1.1,0.8c-0.4,0.3-0.9,0-1.4,0.2s1-0.2,1.4,0.1
	s0.7,0.1,0.7-0.5c0.4-1.9,2.1-3.1,4-2.8c0.8,0.1,1.4,0.8,1.3,1.6V35l-0.3,1.2C44.2,36.2,52.3,36.2,52.3,36.2z"/>
<path class="st7" d="M90.1,57.3c0.2,0.3,0.6,0.4,1,0.3c0.9-0.2,2,0.1,2.6,0.8c1.2,1.4,1.9,3.1,2.3,4.9c0.1,0.2,0.1,0.4,0,0.6
	c-0.6,0.9-0.6,2.1,0,3c-0.2-0.1-0.3-0.4-0.4-0.6c-0.8-0.8-1.4-1.7-1.7-2.8c-0.5-1-1.2-2-1.9-2.9l-0.4-0.5c-0.2-0.6-0.6-1.1-1-1.6
	c-0.4-0.2-0.7-0.6-0.7-1C90,57.4,90,57.3,90.1,57.3z"/>
<path class="st7" d="M51.7,77.5c0.1,1.4-0.4,2.7-0.4,4c-0.5,0.2-1,0.1-1.4-0.1c-1.9-0.2-3.7-0.7-5.5-1.3c1.7,0.6,2.6-0.3,3.5-1.5
	s1.6-1.2,3.1-0.5S51.3,77.5,51.7,77.5z"/>
<path class="st6" d="M103.8,78.8c0.6-0.9-0.3-0.7-0.5-0.6h-1.6c-0.9-0.1-1.1-0.6-0.8-1.4c0.3-0.6,0.8-1.2,1.3-1.7
	c1.2-1,2.2-0.8,2.9,0.5c0.2,0.3,0.4,0.7,0.5,1c0.2,0.4,0.2,0.8,0.4,1.2h0.3C105.6,78.3,104.7,78.7,103.8,78.8z"/>
<path class="st8" d="M123.6,69.3c-0.8-1.2-0.8-2.8,0.1-3.9c0.5-0.7,1.1-1.1,2-0.6l2.1,1.1C126.6,67.3,125.2,68.4,123.6,69.3z"/>
<path class="st9" d="M95,81.1c-0.2,0-0.4,0.1-0.6,0c-1.8-1.4-3.6-2.8-5.2-4.4c-0.1-0.5-0.2-1,0.6-1s0.7,0.9,1.2,1
	c0.3,0.1,0.5,0.3,0.7,0.5l0.5,0.5l3.2,2.8c0.2,0.2,0.5,0.4,0,0.6H95z"/>
<path class="st10" d="M55.7,77.3h0.2c0.4,0.9-0.2,1.7-0.2,2.6c-0.1,0.6-0.2,1.1-0.2,1.7s-0.4,0.7-0.9,0.5h-0.5
	c-1-0.5-1.5-1.7-1.1-2.7c1,0.3,2.1-0.3,2.3-1.3c0-0.1,0.1-0.2,0.1-0.4S55.5,77.4,55.7,77.3z"/>
<path class="st11" d="M114.4,35.4c-0.5,1.5-1.7,2.5-2.7,3.6s-5.5,3.9-8.5,5.5c-0.3,0.2-0.7,0.3-1,0.3v-0.2c0.3-0.4,0.8-0.5,1.2-0.8
	c0.5-0.4,1-0.7,1.6-0.8c0.3-0.4,0.8-0.4,1.2-0.6s1.7-0.7,2.2-1.6h0.1l0.3-0.2c0.3-0.2,0.6-0.2,0.8-0.4c1.7-1.3,3.2-2.9,4.4-4.8
	l0.2-0.2C114.3,35.3,114.4,35.3,114.4,35.4z"/>
<path class="st12" d="M7.1,52v-0.5c0.9,0,1.7,0.3,2.2,1c0.4,0.3,0.6,0.9,0.3,1.4c-0.3,0.4-0.7,0.8-1.3,0.5S8,54.5,7.9,54.7
	C7.4,53.9,7.1,53,7.1,52z"/>
<path class="st13" d="M92.1,35.2c1.7-0.7,3.5-1.2,5.3-1.5c2.1-0.5,4.4-0.5,6.5-1.1c1.6,0.1,3.1,0.1,4.7-0.2c1.1-0.1,2.2,0.1,3.2,0.5
	h0.4c0.1,0.1,0,0.2-0.1,0.2c-2.6-0.2-5.2-0.1-7.7-0.1c-0.3-0.1-0.7-0.1-1,0c-2.9,0.3-5.8,0.8-8.6,1.5C93.9,34.9,93,35.1,92.1,35.2z"
	/>
<path class="st14" d="M95.4,81.1c0.2-0.3-0.1-0.4-0.2-0.5c-1.2-0.8-2.3-1.8-3.2-2.9c0-0.2-0.2-0.3-0.4-0.3c-0.3-0.2-0.5-0.4-0.6-0.7
	c0.3-0.1-0.1-0.5,0.2-0.6s1.6,2,2.7,2.5c0.3,0.2,0.6,0.3,0.9,0.3c0.3,0.8,1.1,1.3,2,1.2c0.2,0,0.3,0,0.2,0.2L95.4,81.1z"/>
<path class="st15" d="M54.6,82.1c0.3,0,0.6,0,0.7-0.4s0.5-2.9,0.6-4.4s1-4.7,1.6-7c0.1-0.6,0.3-1.3,0.4-1.9s0.1-0.8,0.6-0.9
	s0,0.9-0.3,1.2c-1,3.6-1.8,7.4-2.3,11.1l-0.3,1.8C55.7,82.4,55.3,82.6,54.6,82.1z"/>
<path class="st16" d="M33.7,41.8l-0.5-0.3c-1.1-0.6-1.2-0.8-0.5-1.9s0-0.6,0.2-0.8s0.3,0.4,0.6,0.5s0.4,0.2,0.6,0.2l0.6,0.5
	c0.3,0.2,0.4,0.6,0.3,0.9c-0.1,0.4-0.3,0.7-0.7,0.6S33.8,41.5,33.7,41.8z"/>
<path class="st17" d="M88.8,52.5c-0.6,0.3-1.4,0.1-2,0.6s-0.8,0-1.2-0.3s0.1-0.7,0.3-0.9l2.7-1.5l1.3-0.5c0.3-0.1,0.7-0.1,0.4,0.5
	l-0.4,0.3c-0.3,0.1-0.6,0.2-0.8,0.5l-1.5,1.1c0.4-0.3,1-0.3,1.4,0C89.1,52.5,89,52.6,88.8,52.5z"/>
<path class="st18" d="M38.4,36.9c4.5-0.6,9-0.8,13.5-0.4h1.6c0.7,0.4,1.6,0,2.4,0.3c-1.2,0-2.4,0.2-3.6,0.1H53
	c-4.2-0.4-8.5-0.4-12.7,0c0.1,0.2,0.4,0,0.6,0.1s0.1,0,0,0.1C40.9,37.1,38.4,36.9,38.4,36.9z"/>
<path class="st19" d="M86.6,73.9c-0.7-0.7-1.3-1.5-1.8-2.4c0.2-0.4,0.3-1,0.5-1.4s0.6,0.6,0.9,1c0,0.2,0.2,0.4,0.4,0.4
	c0.7,0.3,0.9,1.1,1.2,1.6c0.2,0.1,0.3,0.3,0.3,0.5c0,0.1,0,0.1-0.1,0.2C87.5,73.6,87,73.6,86.6,73.9z"/>
<path class="st20" d="M93.9,63.5c0.6,0.9,1.2,1.8,1.7,2.8h-1.2c-0.5,0.1-0.4,0.1-0.6-0.4c-0.1-0.3-0.3-0.5-0.5-0.7
	c-0.3-0.3-0.4-0.8-0.1-1.2c0.2,0.2,0.3,0.2,0.4,0C93.6,64,93.9,63.5,93.9,63.5z"/>
<path class="st21" d="M103.4,33.1c1.3-0.2,2.7-0.2,4-0.1c1.6,0,3.3,0,4.9,0.2c0.4-0.2,0.9,0,1.1,0.3h-3v-0.3L103.4,33.1z"/>
<path class="st22" d="M89.8,75.7c-0.5,0.1-0.4,0.7-0.6,1c-0.8-0.6-1.5-1.3-2-2.2c0.1-0.3,0.5-0.5,0.8-0.8h0.1
	c0.2-0.1,0.2,0.1,0.3,0.2S89.5,75,89.8,75.7z"/>
<path class="st23" d="M81.4,64.7c-0.8-0.9-1.5-1.9-2.1-2.9c0.7,0.1,1.3,0,2-0.1c0.6-0.1,0.3,0.2,0.1,0.4l-0.8,0.8
	c0.6,0.8,1.6,0.8,2.2,1.4h-0.2c-0.7,0.8-0.8-0.1-1.2-0.3S81.5,64.5,81.4,64.7z"/>
<path class="st24" d="M70.2,17.8c0.3-2,0.4-4,0.4-6c0-0.4,0.2-0.9-0.4-1s-1.1,0-1.3,0.7s-0.8,0-1.2,0s0-0.7-0.5-0.7
	c1.1-0.5,2.2-0.2,3.3-0.2s0.4,0.3,0.4,0.5c0.1,2,0,4.1-0.3,6.1C70.5,17.4,70.4,17.6,70.2,17.8z"/>
<path class="st11" d="M102.2,44.8c-1,0.6-2,1.1-3.1,1.4c-1.4,0.7-2.8,1.2-4.3,1.7c-0.1-0.2,0-0.3,0.2-0.4c0.1-0.2,0.4-0.3,0.6-0.3
	c0.6-0.5,1.3-0.5,1.9-0.8s2.8-1.2,4.2-1.7S102,44.6,102.2,44.8z"/>
<path class="st25" d="M85.6,52.8l1.2,0.3c0.5,0.2,1,0.6,1.2,1.1c0.4,1.2,1.5,2,2.1,3.1H90c-0.3,0.1-0.4-0.1-0.5-0.4
	c-0.4-0.2-0.7-0.5-0.9-0.9c-0.6-0.3-0.9-0.9-1.4-1.3S86,53.5,85.6,52.8z"/>
<path class="st26" d="M84.4,71c-0.8-0.8-1.4-1.7-2-2.7c0.3-0.3,1,0.3,1.3-0.4s0.2,0.1,0.3,0.2l0.2,0.2c0.2,0.1,0.4,0.2,0.4,0.5V69
	C84.4,69.7,85,70.4,84.4,71z"/>
<path class="st27" d="M53.1,79.5c-0.2,1,0.2,2,1,2.6c-0.5,0.1-1,0.1-1.4-0.2c0-2.4,0.3-4.9,1.1-7.2c0.2,0.4-0.1,0.7-0.1,1
	C54,77,53.8,78.3,53.1,79.5z"/>
<path class="st16" d="M64.4,53.6c-0.1-0.5-0.3-1-0.5-1.4l1.5,1.4c0.3-0.1,0.2-0.6,0.6-0.7s-0.2,1.4,0.2,2s-0.1,0.5-0.3,0.3
	s-0.8-0.4-0.9-1S65,53.5,64.4,53.6z"/>
<path class="st28" d="M87.8,73.1c-0.5-0.4-0.9-1-1.2-1.6c0.4-0.2,0.6-0.7,1.2-0.3s0.4-0.6,1-0.4s-0.3,1-0.5,1.4s-0.1-0.7-0.7-0.6
	L87.8,73.1z"/>
<path class="st29" d="M73.1,63.8c-0.1,1.1-0.6,2.1-1.2,3c0-0.5,0.2-1-0.5-1.2c-0.1-0.1-0.2-0.3-0.1-0.5s0.3,0,0.4,0.1
	s0.2-0.6,0.6-0.8h0.4C73,64.3,72.7,63.8,73.1,63.8z"/>
<path class="st30" d="M64,38.4l1.5,0.4c0.8,0.2,0.8,0.6,0.4,1.2s-0.3-1.1-1.2-1c-0.9,0.3-1.8,0.4-2.7,0.3c0.3-0.4,0.7-0.6,1.2-0.6
	C63.5,38.7,63.9,38.9,64,38.4z"/>
<path class="st31" d="M76.3,11.3c0.3,0.4,0.5,0.8,0.5,1.3l-0.3,0.2c-0.1,0.2-0.2,0.6-0.6,0.5s-0.5-0.7-0.4-1.1s0-0.7,0.6-0.5
	S76.2,11.5,76.3,11.3z"/>
<path class="st32" d="M79.2,61.7c-0.5-0.4-0.9-0.8-1.2-1.3c0.3-0.5,0.8-0.8,1.3-0.5s0.3,0.9,0.1,1.3L79.2,61.7z"/>
<path class="st33" d="M90.2,50.3c0.1-0.1,0.3-0.3-0.2-0.3s-0.8,0.6-1.4,0.4s0.6-0.3,0.8-0.5s0.8-0.4,1.2-0.6l1.4-0.4
	c0.1,0.1,0.1,0.1,0,0.2c0,0.2-0.1,0.4-0.3,0.4s-0.3,0.2,0,0.4C91.4,50.4,90.7,50.6,90.2,50.3z"/>
<path class="st32" d="M105,43l-1.5,0.9c-0.4,0.1-0.8,0.5-1.3,0.4s-0.4-0.6,0-0.9s0.8,0.5,1.1-0.1s0.7-0.4,1.1-0.3
	C104.4,43,105,43,105,43z M58.2,68.7l0.3-1.2l0.8-2.3c0-0.2,0.1-0.2,0.2,0l-0.6,4C58.6,69,58.7,68.4,58.2,68.7z"/>
<path class="st14" d="M44.4,46.4c-0.9-0.3-1.7-0.6-2.6-0.9c-0.2,0-0.4-0.1-0.3-0.3l0.6-0.5c0.6-0.1,1.3,0.1,1.8,0.4
	c-0.5,0.8-1.3-0.6-1.8,0.1S43.8,45.6,44.4,46.4z"/>
<path class="st34" d="M69.6,27.6c-0.5-2-0.5-4.1,0-6.1V27.6z"/>
<path class="st35" d="M85.4,37.7c0.2-0.4,0.6-0.4,1-0.4s-0.7,0.2-0.3,0.5s-0.3,1.2-0.5,1.8s-0.2,0.1-0.3,0s-0.1-0.4,0-0.4
	S85.4,38.2,85.4,37.7z"/>
<path class="st30" d="M60.6,37.7c1.1,0.1,2.3,0.3,3.4,0.6c-1.2,0.1-2.4,0.5-3.5-0.1s0.4,0,0.6-0.1L60.6,37.7z"/>
<path class="st36" d="M63.4,80.7c-0.1,0.3-0.1,0.7-0.5,0.8s-0.2-0.4-0.4-0.5s-0.7-0.7-0.5-1.2s0.7,0.3,1.1,0l-0.7,0.6
	C62.6,80.9,63.2,80.1,63.4,80.7z"/>
<path class="st37" d="M65.9,40c-0.1,0.6,0,0.8,0.7,0.6l1.8-0.6c0.2,0.7-0.8,0.5-0.8,1.1l-1.7-0.2c-0.4-0.2-0.2-0.6-0.2-0.9
	C65.7,40,65.9,40,65.9,40z"/>
<path class="st38" d="M61.9,11.2c-1.5,0.5-3.1,0.6-4.7,0.5C58.7,11.3,60.3,11.1,61.9,11.2z"/>
<path class="st39" d="M84,68.1l-0.3-0.2h-0.1c-0.1-0.3-0.4-0.5-0.5-0.8l-0.3-0.6c0.5,0.2,0.7,0,0.8-0.4H84c-0.1,0.3-0.3,0.6,0,0.8
	S84.1,67.7,84,68.1z"/>
<path class="st28" d="M86.2,71.1c-0.3-0.3-0.5-0.8-0.9-1s-0.3-0.2-0.4-0.4c0-0.1,0-0.2,0.1-0.3c0.1,0,0.3,0.2,0.4,0.1s0-0.5,0.4-0.4
	s0.8,0.5,0.5,1S86.3,70.8,86.2,71.1z"/>
<path class="st35" d="M90.6,49.3l-1.2,0.6c-0.1-0.4,0.2-1-0.3-1.4s0.8-0.2,0.8,0.4S90.3,49.3,90.6,49.3z"/>
<path class="st32" d="M106.2,42.4c-0.3,0.3-0.7,0.5-1.2,0.6c-0.1-0.6-0.6-0.7-1.2-0.8s1-0.8,1.4,0S105.9,42.1,106.2,42.4z"/>
<path class="st14" d="M94.8,78.9c-0.2-0.4-1.1-0.6-0.7-1.4s0.3,0.1,0.6,0.7h0.2c0.2,0,0.4-0.2,0.4,0.3S95.1,78.9,94.8,78.9z"/>
<path class="st40" d="M114.2,35.4H114c0.1-0.6-0.3-0.7-0.9-0.8s1.6-0.3,2.1-0.7c0.2-0.1,0.4-0.1,0.6,0c0.3,0.3,0.3,0.6-0.1,0.5
	S114.5,34.8,114.2,35.4z"/>
<path class="st41" d="M65.7,40.6c-1,0.1-0.4,1.4-1.6,1.2C64.6,41.4,63.8,40.1,65.7,40.6z"/>
<path class="st8" d="M115.7,34h-0.5c-0.6-0.3-1.2-0.4-1.8-0.4l-1.1-0.3c-0.1-0.1-0.1-0.1-0.1-0.2c1.3,0,2.6,0.4,3.8,0.9
	C116,34,115.9,34.1,115.7,34z"/>
<path class="st30" d="M56.3,36.9l3.1,0.5c0.4,0,0.8,0.1,1.1,0.3c-0.9,0.1-1.8,0-2.6-0.3C57.3,37.4,56.6,37.7,56.3,36.9z"/>
<path class="st16" d="M40.9,37.1h1.3c0.5-0.1,1-0.2,1.3,0.4S41.7,37.8,40.9,37.1z"/>
<path class="st42" d="M89.5,56.9l0.5,0.4l0.6,1.2c-0.6,0.4-0.7-0.5-1.2-0.6C89.4,57.6,89.1,57.2,89.5,56.9z"/>
<path class="st43" d="M70.1,27.5v-2.7C71.2,25.7,70,26.6,70.1,27.5z"/>
<path class="st18" d="M44.7,36.9c2.3-0.3,3.6-0.2,4.1,0.3C47.5,36.7,46.2,37.1,44.7,36.9z"/>
<path class="st44" d="M86.4,37.2c1-0.7,2.1-1.2,3.3-1.3C88.7,36.5,87.6,37,86.4,37.2z"/>
<path class="st16" d="M96,70.7c-0.4-0.4-0.4-1.1,0-1.5C96.5,69.6,96.8,70.1,96,70.7z"/>
<path class="st42" d="M87.2,54.6c0.5,0.4,1,0.8,1.4,1.3c-0.6,0.2-1.1,0.2-1.1-0.7S87.3,54.8,87.2,54.6z"/>
<path class="st45" d="M69.9,70.8c-0.2,0.5-0.5,1-0.8,1.4c0.3-0.7-0.3-1.2-0.4-1.9S69.1,71.5,69.9,70.8z"/>
<path class="st31" d="M78.1,16.9c0.2,0.4,0.1,0.9-0.3,1.2c-0.3,0.1-0.3-0.2-0.4-0.4S78.1,17.4,78.1,16.9z"/>
<path class="st23" d="M95.6,47.2l-0.5,0.3c-0.2,0.1-0.4,0.4-0.7,0.2l-0.5-1C94.4,47,95,47.2,95.6,47.2z"/>
<path class="st11" d="M92,49.1v-0.2l0.4-0.4c0.2-0.2,0.5-0.4,0.8-0.3c0.2-0.1,0.4-0.1,0.6,0.1C93.4,48.8,92.7,49.1,92,49.1z"/>
<path class="st46" d="M32.9,38.8c0.4,0.3,0.2,0.6-0.2,0.8s-0.7-0.3-1-0.5S31,39,31.3,38.5h0.4C32,39.2,32.4,38.9,32.9,38.8z"/>
<path class="st47" d="M37.5,43.6c-0.5,0-1-0.2-1.4-0.6c0.1-0.1,0.3-0.1,0.2-0.2s-0.3-0.5,0.1-0.6s0.3,0.3,0.3,0.4
	S37.4,43.2,37.5,43.6z"/>
<path class="st48" d="M61.3,83.1l-1.1-0.4c-0.2,0-0.4,0.1-0.5-0.3s0-0.2,0.1-0.2s0.5-0.2,0.8,0S60.9,82.7,61.3,83.1z"/>
<path class="st20" d="M64,76.3c0.5-0.4,0.6-0.9,1.1-0.9s0.2,0.3,0.1,0.4S64.7,76.3,64,76.3z"/>
<path class="st49" d="M99.2,76.8c-0.1,0.3-0.1,0.6-0.4,0.7s-0.4-0.2-0.3-0.4s0.2-0.6,0.4-0.7S99.2,76.6,99.2,76.8z"/>
<path class="st32" d="M103.2,41.7c-0.1,0.1,0,0.2-0.1,0.2s-0.1,1-0.7,1.2c-0.1,0-0.2-0.1-0.2-0.2C102.8,42.7,102.3,41.8,103.2,41.7z
	"/>
<path class="st50" d="M89.6,73.2c0.4-0.4,0.9,0,1.5-0.3S90,73.2,89.6,73.2z"/>
<path class="st42" d="M88.6,56c0.5,0.1,0.7,0.5,0.9,0.9s-0.8-0.4-1.3-0.4L88.6,56z"/>
<path class="st51" d="M137,42.8c-0.4-0.7-0.7-1.5-0.6-2.3C136.8,41.2,137,42,137,42.8z"/>
<path class="st52" d="M91.6,60.1c0.2,0.1,0.4,0.2,0.4,0.5s-0.3,0.3,0.1,0.8S91.2,60.9,91.6,60.1z"/>
<path class="st42" d="M60.3,62.9v-0.2c0.2-0.1,0.2-0.7,0.7-0.4l0.2,0.6c-0.4,0-0.4,0.4-0.6,0.6S60.7,62.9,60.3,62.9z"/>
<path class="st53" d="M98.7,73.5c0.2,0.5,0.3,1.1,0.5,1.6s-1-0.5-1-1.2L98.7,73.5z"/>
<path class="st29" d="M71.8,66.9c-0.2,0.4-0.2,0.9-0.5,1.2s-0.9-0.6,0-0.8s0.1-0.2,0.1-0.4C71.4,66.9,71.8,66.9,71.8,66.9z"/>
<path class="st54" d="M93.8,48.3h-0.7c0.1-0.3,0.4-0.2,0.6-0.3s0.5-0.2,0.7-0.3l0.7-0.2l-0.3,0.4C94.8,47.9,93.8,48.3,93.8,48.3z"/>
<path class="st55" d="M62.2,10.7"/>
<path class="st36" d="M62.9,81.5c-0.2,0.3-0.5,0.6-0.8,0.8C61.9,81.5,62,81.3,62.9,81.5z"/>
<path class="st56" d="M97.5,46.4c-0.6,0.4-1.2,0.7-1.9,0.8C96.1,46.5,96.9,46.6,97.5,46.4z"/>
<ellipse class="st57" cx="70.7" cy="32.3" rx="0.1" ry="1.5"/>
<path class="st58" d="M112.1,37.1c-0.1,0.5-0.4,0.8-0.9,0.9v-0.2C111.3,37.4,111.7,37.3,112.1,37.1z"/>
<path class="st59" d="M108.4,40.8l-0.3-0.3c-0.2-0.2-0.3-0.4-0.1-0.6h0.3c0.4,0,0.2,0.3,0.2,0.5v0.5L108.4,40.8z"/>
<path class="st48" d="M109.3,34.2c0.4-0.3,1-0.3,1.4,0C110.3,34.5,109.9,34.4,109.3,34.2z"/>
<path class="st28" d="M84.4,68.9l-0.2-0.6c0.3-0.1,0.7,0,0.9,0.3c0.2,0.3-0.3,0.4-0.3,0.6S84.5,69.1,84.4,68.9z"/>
<path class="st60" d="M97,80.3l-0.2-0.2c0-0.2,0.2-0.4,0.4-0.4c0.1,0,0.1,0,0.2,0.1c0.2,0,0.2,0.4,0.1,0.5S97.2,80.4,97,80.3z"/>
<path class="st61" d="M98.7,73.5c-0.1,0.2,0,0.7-0.5,0.4s-0.1-0.8,0.2-1.2C98.4,72.7,98.7,73.5,98.7,73.5z"/>
<path class="st62" d="M93.4,75.2c-0.6,0.4-0.9,0.4-1.3,0.2S92.8,75.1,93.4,75.2z"/>
<path class="st14" d="M80.4,27c0.3,0.1,0.2,0.3,0.2,0.5s0.1,0.4-0.2,0.2s-0.4,0-0.3-0.3S80.2,27.1,80.4,27z"/>
<path class="st63" d="M59.5,65.2h-0.2c-0.1-0.6,0.2-1.2,0.6-1.6c0,0.3,0.2,0.5-0.1,0.7L59.5,65.2z"/>
<path class="st64" d="M49.9,81.4h1.4c0.2,0,0.4,0.1,0.3,0.4S50.4,81.9,49.9,81.4z"/>
<path class="st39" d="M82.6,66.2c-0.3-0.2-0.5-0.5-0.6-0.8C82.7,65.3,82.9,65.5,82.6,66.2z"/>
<path class="st45" d="M77,14.6c-0.5-0.4-0.6-0.7-0.3-1.1C77,13.8,77.1,14.2,77,14.6z"/>
<path class="st65" d="M102.2,44.3c0.5,0,0.8-0.5,1.3-0.4l-1.3,0.8h-0.5C101.8,44.5,102,44.4,102.2,44.3z"/>
<path class="st14" d="M80.1,26.6l0.2-1.2C80.5,25.8,80.4,26.3,80.1,26.6z"/>
<path class="st21" d="M111.1,33.7c0.3-0.2,0.8-0.2,1.1,0.1C111.9,34,111.4,34,111.1,33.7z"/>
<path class="st42" d="M89.5,59.5c-0.4-0.1-0.5-0.3-0.6-0.7S89.6,59,89.5,59.5z"/>
<path class="st12" d="M7.9,54.7c0.4,0.4,0.6,0.9,0.6,1.4C8.1,55.7,7.9,55.2,7.9,54.7z"/>
<path class="st66" d="M61.1,62.3c-0.3,0-0.4,0.3-0.7,0.4c0-0.2,0-0.3,0.1-0.5s0.2-0.5,0.5-0.5S61.1,62.1,61.1,62.3z"/>
<path class="st67" d="M61,61.7l-0.5,0.5c0-0.5,0.2-1,0.6-1.3C61.1,61.2,61,61.4,61,61.7z"/>
<path class="st41" d="M64.4,39.5c0.2,0,0.2,0.1,0.2,0.2s0,0.3-0.2,0.4h-0.3C64.1,39.9,64.2,39.6,64.4,39.5z"/>
<path class="st61" d="M97.8,71.1l0.6,1.4C97.8,72.2,97.8,71.7,97.8,71.1z"/>
<path class="st14" d="M42.6,44.3c0.2-0.2,0.5-0.2,0.7,0l0.1,0.1C43.2,44.6,42.9,44.6,42.6,44.3L42.6,44.3z"/>
<path class="st68" d="M92.9,81.3c0.1,0.1,0.7-0.2,0.3,0.4h-1.3C92.2,81.4,92.7,81.7,92.9,81.3z"/>
<path class="st42" d="M88.2,56.5c0,0.3,0.4,0.5,0.1,0.7s-0.4,0-0.4-0.2S88.1,56.7,88.2,56.5z"/>
<path class="st49" d="M98.8,76.3c-0.3-0.3-0.3-0.8-0.2-1.2C98.8,75.5,98.9,75.9,98.8,76.3z"/>
<path class="st69" d="M83.8,64c0.1,0,0.2,0.1,0.2,0.2c0,0.2-0.1,0.3-0.3,0.2c-0.1,0-0.2-0.1-0.2-0.2C83.5,64,83.7,64,83.8,64z"/>
<path class="st70" d="M67.2,74L67,74.2c-0.1-0.2-0.2-0.3-0.2-0.4s0-0.3,0.2-0.2S67.2,73.7,67.2,74z"/>
<path class="st42" d="M59.8,64.3c0-0.2,0.1-0.4,0.1-0.7l0.3-0.6C60.3,63.5,60.2,64,59.8,64.3z"/>
<path class="st71" d="M56.6,82.4c-0.1-0.3,0-0.4,0.2-0.4s0.2,0,0.2,0.1S56.9,82.4,56.6,82.4z"/>
<path class="st49" d="M98.1,76c0,0.1-0.1,0.2-0.2,0.2c-0.1,0.1-0.2,0-0.2-0.2s0-0.2,0.2-0.2S98.1,75.8,98.1,76z"/>
<path class="st37" d="M92.7,75.9c0.2,0.1,0.3,0.2,0.3,0.3c0,0.1-0.1,0.3-0.2,0.2l-0.3-0.2C92.5,76,92.6,76,92.7,75.9z"/>
<path class="st72" d="M96.2,67.3c0.4,0.3,0.6,0.8,0.6,1.3C96.4,68.3,96.2,67.8,96.2,67.3z"/>
<path class="st73" d="M107.1,40.5h-0.4c0-0.2,0.2-0.2,0.3-0.2h0.3C107.4,40.5,107.2,40.5,107.1,40.5z"/>
<path class="st23" d="M93.7,48c-0.2,0.1-0.5,0.1-0.6,0.3l-0.7,0.2C92.6,47.9,93.2,48,93.7,48z"/>
<path class="st74" d="M84.9,54.2c0-0.2,0.1-0.5,0.3-0.6l0.2,0.2C85.4,54.1,85.2,54.2,84.9,54.2z"/>
<path class="st32" d="M77.9,60.3L77,59.7C77.7,59.3,77.7,59.9,77.9,60.3z"/>
<path class="st66" d="M61.2,60.9c0.2-0.4,0.2-0.9,0.6-1.2l-0.3,1.2H61.2z"/>
<path class="st75" d="M36.1,43c-0.5-0.1-0.9-0.3-1.3-0.6C35.3,42.3,35.9,42.5,36.1,43z"/>
<path class="st76" d="M41.5,45.2l0.3,0.3c-0.5,0-1-0.2-1.4-0.6C40.8,44.8,41.1,45.1,41.5,45.2z"/>
<path class="st48" d="M86.2,41.5c0,0.1-0.1,0.2-0.2,0.2c-0.2,0-0.3-0.1-0.3-0.2s0.2-0.2,0.3-0.3S86.2,41.3,86.2,41.5z"/>
<path class="st66" d="M61.5,60.9c0.5,0.1,0.4,0.4,0.2,0.8S61.5,61.2,61.5,60.9z"/>
<path class="st37" d="M58.5,70.2c0.3,0.1,0.6,0.2,0.5,0.5s-0.3,0-0.4-0.1S58.5,70.4,58.5,70.2z"/>
<path class="st58" d="M85.4,41.3l-0.3,0.2c-0.1,0-0.2-0.1-0.2-0.2l0.3-0.3C85.3,41,85.4,41.1,85.4,41.3z"/>
<path class="st14" d="M42.1,44.8c-0.2-0.2-0.6-0.2-0.5-0.5h0.1C42.1,44.2,42,44.5,42.1,44.8z"/>
<path class="st77" d="M61,49.5c-0.1,0-0.2,0-0.2-0.1s0.1-0.2,0.2-0.2s0.3-0.1,0.3,0.1S61.1,49.5,61,49.5z"/>
<path class="st42" d="M89.4,57.9l-0.7,0.6C88.7,57.9,89.1,57.9,89.4,57.9z"/>
<path class="st78" d="M66.3,76.6h-0.4c0-0.3,0.2-0.6,0.4-0.7c0.2,0.3-0.1,0.5,0,0.8C66.3,76.7,66.3,76.6,66.3,76.6z"/>
<path class="st79" d="M84,66.1h-0.4c0-0.1-0.3-0.4,0-0.5S84,65.9,84,66.1z"/>
<path class="st80" d="M33.8,38.5c0.2-0.2,0.5-0.4,0.8-0.3C34.5,38.5,34.1,38.6,33.8,38.5z"/>
<path class="st23" d="M82.8,64.3c0.3-0.1,0.5,0.1,0.6,0.4c0,0.1-0.1,0.2-0.2,0.1S82.9,64.6,82.8,64.3z"/>
<path class="st81" d="M34.1,39.5c-0.3,0.2-0.6,0.4-0.6-0.2S33.9,39.5,34.1,39.5z"/>
<path class="st42" d="M61.3,62.9c0.1,0.1,0.4,0.2,0.2,0.5h-0.2C60.9,63.2,61.2,63,61.3,62.9z"/>
<path class="st82" d="M88.4,73.9l-0.3-0.2l-0.3-0.6C88.2,73.2,88.5,73.5,88.4,73.9z"/>
<path class="st83" d="M63.6,51v0.3L63.3,51c0-0.1,0-0.2,0.1-0.2L63.6,51z"/>
<path class="st32" d="M90.8,48.6c0-0.1,0.1-0.2,0.2-0.2s0.2,0,0.3,0.2h-0.2C91,48.7,90.8,48.8,90.8,48.6z"/>
<path class="st23" d="M93.4,47.8c-0.1-0.2-0.2-0.3-0.2-0.4s0.1-0.1,0.1-0.1l0.3,0.2C93.6,47.6,93.5,47.6,93.4,47.8z"/>
<path class="st78" d="M66.1,77.1c0,0.3-0.2,0.6-0.4,0.8C65.4,77.4,65.7,77.2,66.1,77.1z"/>
<path class="st30" d="M60.2,39.6h-0.3c-0.1,0-0.2-0.1-0.1-0.2s0.1-0.1,0.2-0.1S60.1,39.5,60.2,39.6z"/>
<path class="st84" d="M74.3,58.6c0,0.1,0,0.1,0.1,0.2c0,0.2-0.1,0.3-0.2,0.2s-0.1-0.1-0.1-0.2L74.3,58.6z"/>
<path class="st85" d="M34.1,38.8h0.3c0,0.1-0.1,0.2-0.2,0.2H34C34,38.9,34,38.9,34.1,38.8z"/>
<path class="st26" d="M84.4,68.9l0.4,0.3l0.2,0.2v0.3c-0.5,0-0.7-0.3-0.6-0.7C84.4,69,84.4,68.9,84.4,68.9z"/>
<path class="st37" d="M69.5,69.5h-0.2c-0.2,0-0.2-0.1-0.2-0.2s0.1-0.1,0.2-0.2C69.3,69.1,69.5,69.5,69.5,69.5z"/>
<path class="st37" d="M84.5,53.3v0.2c0,0.1-0.1,0.2-0.2,0.1s-0.1-0.1-0.1-0.2S84.4,53.2,84.5,53.3z"/>
<path class="st30" d="M60.4,38.6c0.1,0.1,0.2,0.2,0.2,0.3c-0.1,0.1-0.1,0.1-0.1,0.2c-0.1-0.1-0.2-0.1-0.2-0.2S60.3,38.8,60.4,38.6z"
	/>
<path class="st59" d="M109.6,40.2c-0.2,0.2-0.4,0.5-0.8,0.4C109,40.3,109.3,40.2,109.6,40.2z"/>
<path class="st86" d="M65.7,40h-0.5c0-0.1,0.1-0.2,0.1-0.3S65.6,39.9,65.7,40z"/>
<path class="st23" d="M81.4,62.1c0.2,0.1,0.4,0.2,0.4,0.5h-0.2C81.4,62.5,81.5,62.3,81.4,62.1z"/>
<path class="st87" d="M93.6,63.9c0.2,0.2,0,0.3-0.1,0.4s-0.3-0.2-0.3-0.4H93.6z"/>
<path class="st88" d="M63.5,59c0-0.2,0.1-0.2,0.2-0.2V59c0,0.1,0,0.2-0.1,0.2C63.6,59.2,63.5,59,63.5,59z"/>
<path class="st29" d="M71.4,66.9l-0.5-0.2h0.2c0.3-0.1,0.3,0.1,0.3,0.3C71.4,67,71.4,66.9,71.4,66.9z"/>
<path class="st89" d="M96,68.2l0.2,0.3H96v-0.2C95.8,68.4,95.9,68.3,96,68.2z"/>
<path class="st20" d="M64.4,75.4c-0.2,0.1-0.3,0-0.2-0.1L64.4,75.4C64.4,75.2,64.5,75.3,64.4,75.4z"/>
<path class="st90" d="M113.3,18.7c-0.4,0.1-0.7-0.1-0.9-0.4C112.7,18.3,113.1,18.5,113.3,18.7z"/>
<path class="st91" d="M51,47.3l-0.2-0.2H51c0.1-0.1,0.2,0,0.3,0L51,47.3z"/>
<path class="st78" d="M65.9,76.5c0,0.3-0.2,0.3-0.4,0.3h-0.2c0.1-0.2,0.4-0.2,0.6-0.2C65.9,76.6,65.9,76.5,65.9,76.5z"/>
<path class="st4" d="M32.3,43.2c3.9,2.7,8.4,4.3,13,5.7S53.9,51,58.2,52c0.2,0.1,0.7,0,0.7,0.3s-0.3,0.6-0.5,0.8
	c-0.9,0.6-2,0.9-3.1,0.6c-1.8-0.3-3.5-0.8-5.2-1.3c-3-0.8-5.8-1.9-8.6-2.9c-2.8-1.1-5.5-2.6-7.9-4.4c-1.1-0.8-2.2-1.7-3.1-2.8
	c0-0.2,0-0.2,0.2-0.2s0.3,0.3,0.5,0.3l0.9,0.4C32.2,42.9,32.3,43,32.3,43.2z"/>
<path class="st92" d="M67.7,11.5c0.2-0.3,0.3-0.6,0.8-0.6s0.3,0.4,0.4,0.6c-1.4,4.8-1.4,9.8-1.4,14.8c0,3.3,0.2,6.6,0,9.9
	c0,0.3,0.2,0.8-0.2,0.9s-0.6-0.3-0.9-0.5c-0.5-0.6-0.8-1.4-0.9-2.2c-0.1-0.4-0.2-0.7-0.2-1.1c-0.2-2.2-0.6-4.4,0-6.6
	c0.1-0.3,0.1-0.7,0.1-1c-0.1-1.5,0-3,0.2-4.5l0.6-3.5C66.5,15.6,67,13.5,67.7,11.5z"/>
<path class="st6" d="M38.5,36.1c0-0.8-0.9-0.7-1-0.6c-0.5,0.4-1.2,0.4-1.7,0c-1.4-0.7-2.4-0.3-3.1,1.1c-1.3-0.3-2.5-1-3.3-2.1
	c-0.5-0.6-0.4-1.5,0.2-2c0.1,0,0.1-0.1,0.2-0.1c2-1.3,4.4-1.8,6.7-1.5c0.6,0.1,1.1,0.5,1.4,1C38.6,33.2,38.9,34.7,38.5,36.1z
	 M27.1,63.9c0.1,1-0.1,2-0.6,2.9c-0.3,0.8-1.2,1.1-2,0.8c-0.3-0.1-0.6-0.4-0.7-0.7c-0.6-1.1-1.4-1.9-2.5-2.5
	c-0.7-0.4-1.3-0.9-1.2-1.7s0.9-1,1.5-1.3c1.2-0.5,2.4-0.6,3.7-0.5c1,0.1,1.8,0.9,1.8,1.9C27.1,62.8,27.1,63.9,27.1,63.9z M10.1,55.1
	c0-0.9,0.3-1.9,0.7-2.7c0.3-0.7,1.1-1,1.8-0.8c1.1,0.2,2.2,0.7,3,1.5c0.7,0.8,0.5,1.8-0.5,2s-1.8,0.7-2.5,1.4
	c-0.5,0.4-1.1,0.9-1.8,0.5S10.1,55.8,10.1,55.1z M62.9,32.7c0,1.2-0.8,1.8-1.6,1.4s-2.1-0.3-3.1-0.3s-2-0.7-1.2-2.1
	c0.6-1,1.4-1.8,2.4-2.3c0.7-0.3,1.5-0.2,2,0.4C62.2,30.6,62.7,31.6,62.9,32.7z M45.7,28.6c-0.2,0.7-0.6,1.4-1.1,1.9
	c-1.1,0.9-2.2,1.8-3.8,1.3c-0.6-0.2-0.9-0.8-0.9-1.4c0.1-1.9,3-3.9,4.8-3.2C45.3,27.4,45.7,28,45.7,28.6z M41.3,25
	c0,2.1-1.6,4-3.3,4c-0.7,0.1-1.2-0.4-1.3-1.1v-0.1c-0.2-1.6,0.5-3.3,1.9-4.2c0.5-0.5,1.3-0.6,1.9-0.3C41.1,23.7,41.4,24.3,41.3,25z
	 M31.5,27.6c0-1,0.4-2,1.1-2.7c0.6-0.6,1.6-0.7,2.3,0c0.2,0.2,0.4,0.5,0.4,0.7c0.5,1.4,0,3-1.1,4c-0.7,0.6-1.7,0.5-2.3-0.2
	c-0.2-0.2-0.3-0.4-0.3-0.6C31.5,28.4,31.5,28,31.5,27.6z"/>
<path class="st93" d="M53.4,21c-0.8-0.5-1.4,0.2-2,0.4s-1.1,0.6-1.6,0.1s-0.3-1-0.1-1.6s0.4-1.2,0.8-1.7c0.8-0.9,1.2-1,2.2-0.5
	c0.7,0.4,1.3,0.9,1.7,1.6c0.3,0.3,0.3,0.8,0.1,1.1C54.2,20.7,53.8,20.9,53.4,21z M23.5,46.2c0,0.6,0.1,1.3-0.6,1.6s-1.2-0.1-1.6-0.6
	s-1-0.4-1.4-0.6s-1.3-0.4-1.3-1.1s0.6-0.9,1.1-1.2l0.9-0.5c1.4-0.7,2.3-0.3,2.8,1.3C23.5,45.5,23.5,45.8,23.5,46.2z M43.3,67.1v0.4
	c-0.2,0.5-0.1,1.3-0.8,1.6s-1.2-0.4-1.6-0.9s-1.1-0.5-1.6-0.8s-1.2-1.3-0.1-2c0.7-0.5,1.5-0.7,2.3-0.8c0.6-0.1,1.2,0.2,1.4,0.8
	C43.2,65.9,43.3,66.5,43.3,67.1z M46.3,73.4c0-0.4,0-0.8,0.2-1.2c0.2-0.6,0.8-0.9,1.4-0.7c0.2,0.1,0.4,0.2,0.5,0.4
	c1,0.9,1.3,2.4,0.7,3.6c-0.1,0.5-0.7,0.8-1.2,0.7c-0.1,0-0.3-0.1-0.4-0.2C46.7,75.4,46.3,74.4,46.3,73.4z"/>
<path class="st94" d="M46.9,77.8c0,0.6-0.3,1.2-0.8,1.5c-0.6,0.1-1.2-0.1-1.5-0.6c-0.7-0.6-1-1.5-0.9-2.4c0-0.7,0.6-1.2,1.3-1.1
	c0.2,0,0.4,0.1,0.6,0.2C46.4,75.9,46.9,76.8,46.9,77.8z M29.1,66.3c-0.6,0.1-1.2-0.2-1.5-0.7c-0.2-0.6,0-1.2,0.5-1.6
	c0.6-0.7,1.6-1,2.5-0.9c0.7,0.1,1.2,0.6,1.1,1.3c0,0.3-0.1,0.5-0.3,0.7C30.9,65.8,30,66.3,29.1,66.3z"/>
<path class="st95" d="M52.9,71.7l-1,4.8c-0.2-0.5-0.7-0.2-1-0.3c-0.7-0.6-1-1.6-0.8-2.5c0.3-1.3,1.1-2.2,1.9-2.2
	C52,71.5,52.9,71.7,52.9,71.7z M65.6,21.2c-0.1,3.2-0.2,6.4-0.4,9.7c0,0.8,0,1.6,0.1,2.4h-0.2v-2.5c-0.5-0.1-0.6,0.3-0.9,0.5
	c-0.4,0.4-1,0.4-1.4,0c-0.2-0.2-0.3-0.5-0.3-0.8c-0.1-1.2,0.8-2.1,2-2.2h0.1c0.6,0,0.4-0.4,0.5-0.7c0.3-1.9,0-3.9,0.3-5.9
	C65.5,21.5,65.5,21.3,65.6,21.2z"/>
<path class="st15" d="M30.3,58c0.2,0.6,0.6,0.9,1.2,0.4c0.6-0.5,0.4,0.4,0.6,0.6c0.1,0.4,0.3,0.8,0.6,1.1c-0.6,1.2-1.8,2-3.2,2
	c-0.9-0.1-1.3-0.6-1-1.6s0.2-0.3,0.4-0.4h1c0.4,0,0.3-0.2,0.2-0.5S29.8,58.5,30.3,58z"/>
<path class="st94" d="M61.1,26.9c0-0.7,0.3-1.4,0.8-1.9c0.4-0.3,0.8-0.6,1.3-0.3c0.4,0.2,0.7,0.7,0.6,1.2c0,0.9-0.5,1.8-1.3,2.3
	C61.8,28.7,61.1,28.1,61.1,26.9z M60.5,26.1c0,0.2,0,0.5-0.1,0.7c-0.1,0.5-0.3,1.1-1,1.1s-0.9-0.4-1.1-0.9c-0.3-0.6-0.3-1.3-0.1-1.9
	c0.2-0.5,0.4-1.1,1-1.1s1.1,0.6,1.2,1.3S60.4,25.8,60.5,26.1z M12.9,48.6c0,0.7-0.1,1.3-0.9,1.5c-0.7,0.1-1.3-0.4-1.4-1.1
	c-0.3-0.6-0.4-1.4-0.1-2c0.4-0.8,1-0.9,1.7-0.3C12.6,47.2,12.9,47.9,12.9,48.6z M10.3,50.1c0,0.8-0.3,1.3-1,1.2s-2-1.4-2-2.3
	s0.3-1.1,1-1.1C9.4,48.1,10.2,49,10.3,50.1z M16.1,50.2c0,0.8-0.7,1.8-1.3,1.7s-1.3-1-1.3-1.9s0.6-1.7,1.2-1.6S16.1,49.5,16.1,50.2z
	"/>
<path class="st96" d="M58.1,28.6c-0.1,0.7-0.2,1.4-0.9,1.5c-0.7,0-1.3-0.4-1.5-1v-0.2c-0.2-0.7-0.3-1.4,0.3-1.9
	c0.3-0.4,0.7-0.4,1.1-0.2C57.7,27.2,58.1,27.9,58.1,28.6z"/>
<path class="st97" d="M26.2,57.2c0.4-0.5,0.8-0.9,1.3-1.3s1-0.7,1.6-0.3s0.6,0.8,0.6,1.4l-0.5,0.3c-0.4,0.4-1.1-0.3-1.4,0.4
	s0,0.9-0.1,1.3s0.1,0.7-0.4,0.7h-0.6c-0.2-0.7,0.1-1.6-0.5-2.2V57.2z"/>
<path class="st96" d="M21.7,41c0-0.6,0.4-1.2,0.9-1.6c0.3-0.2,0.8-0.1,1,0.2c0.4,0.7,0.4,1.6-0.1,2.2c-0.3,0.4-0.6,0.8-1.1,0.6
	S21.7,41.8,21.7,41z M26.3,41.7c-0.2,0.9-0.9,1.6-1.8,1.8c-0.7,0.1-1.1-0.4-0.8-1.1c0.2-0.7,0.7-1.2,1.4-1.5
	c0.4-0.2,0.9-0.1,1.1,0.3C26.3,41.3,26.3,41.5,26.3,41.7z M45.6,62.3c0.6,0,0.9,0.2,0.9,0.8c-0.3,0.9-1,1.6-2,1.8
	c-0.6,0-0.8-0.4-0.8-0.9C43.9,63.1,44.7,62.4,45.6,62.3z"/>
<path class="st98" d="M20.5,57.7c-0.4-0.3-0.6-0.1-0.6,0.3v1.6c0,0.2,0.1,0.6-0.3,0.6s-0.8,0.2-0.9-0.5v-2.5
	c0.8,0.1,1.7-0.5,2.5,0.3s-0.1,1.4,0.2,2s-0.3,0.7-0.8,0.6S20.7,58.5,20.5,57.7z"/>
<path class="st96" d="M51.3,14.6c-0.1-0.3,0-0.6,0.2-0.8c0.2-0.4,0.4-0.7,0.9-0.6s0.6,0.4,0.8,0.7c0.1,0.3,0.1,0.6,0.1,0.9
	c-0.1,0.6-0.2,1.4-1,1.5S51.2,15.5,51.3,14.6z"/>
<path class="st94" d="M48.7,14.8c0-0.5,0-1.1,0.6-1.2s1.6,1.2,1.6,2s-0.2,1.1-0.9,1.1S48.7,15.7,48.7,14.8z"/>
<path class="st99" d="M15.3,60.3c-0.7-0.3-1.1-1-1-1.8v-2h-0.1c0-0.1,0-0.1,0.1-0.1l-0.2-0.2c0.3-0.4,0.9-0.4,1.3,0l0.1,0.1
	c0.3,0.7,0.3,1.4,0.2,2.1c0,0.5,0.1,1,0.3,1.4C16,60.3,15.6,60.2,15.3,60.3z"/>
<path class="st100" d="M51.1,56.9l0.5-1.3c0.9,1.5,1.3,3.1,2.2,4.5c-0.5,0.4-1.2,0.4-1.7,0c0.2-0.3,0.2-0.8-0.1-1.1
	c-0.2-0.2-0.4-0.4-0.4-0.7L51.3,58l-0.2-0.3C51.1,57.4,50.9,57.2,51.1,56.9z"/>
<path class="st101" d="M43.9,60.6c0.3,0.8,0.2,1.7-0.3,2.4c-0.2,0.5-0.8,0.7-1.3,0.5c-0.5-0.1-0.5-0.6-0.4-1s0.3-1.5,1.2-1.8
	s0.4-0.2,0.6-0.2S43.8,60.5,43.9,60.6z"/>
<path class="st94" d="M21.1,42c0,0.7-0.3,1.3-1.1,1.3s-0.9-0.6-0.9-1.2s0.5-1.6,1.1-1.6S21.1,41,21.1,42z"/>
<path class="st102" d="M48.1,58.1h-0.4c-0.1,0.1-0.1,0.2-0.1,0.3c-0.1,0.6,0,1.1,0.3,1.6h-1.4c-0.3,0-0.4-0.1-0.2-0.4
	c0.2-1.2,0.3-2.5,0.1-3.7c0.4-0.2,0.8-0.3,1.1,0s0.2,0.9,0.3,1.4S48.1,57.8,48.1,58.1z"/>
<path class="st103" d="M55.5,16.6c0,0.8-0.7,1.8-1.2,1.7s-0.8-0.7-0.8-1.4s0.1-1.4,1-1.5S55.3,16.1,55.5,16.6z"/>
<path class="st96" d="M49.7,18.5c-0.1,0.4-0.4,0.6-0.8,0.6c-0.9-0.1-1.6-0.9-1.6-1.8c0-0.5,0.4-0.8,1-0.7
	C49.2,16.8,49.8,17.6,49.7,18.5z M41.3,62.6c0,0.9-0.6,1.7-1.2,1.7s-0.8-0.6-0.8-1.2s0.4-1.6,1.1-1.6S41.2,62.2,41.3,62.6z
	 M44.5,67.7c-0.5,0.1-0.9-0.1-0.8-0.8c0.1-0.8,0.7-1.4,1.5-1.5c0.6,0,1,0.3,1,0.9S45.4,67.7,44.5,67.7z"/>
<path class="st104" d="M36.3,56.1c0-0.5,0.4-0.4,0.7-0.4s0.4,0.2,0.4,0.5c0,1.2,0,2.5,0.2,3.7c0,0.2-0.2,0.3-0.3,0.2s-1,0.4-1-0.4
	C36.3,59.7,36.3,56.1,36.3,56.1z"/>
<path class="st105" d="M39.5,59.9c-1.1,0.5-1.3,0.4-1.3-0.7c0.1-0.9,0.1-1.7,0-2.6c0-1,0.1-1.1,1.1-0.7
	C39.5,57.2,39.5,58.6,39.5,59.9z"/>
<path class="st93" d="M26.3,44.9c-0.1,0.9-0.8,1.5-1.7,1.5c-0.5-0.1-0.7-0.3-0.7-0.9c0.1-0.8,0.8-1.4,1.6-1.4
	C26.1,44.1,26.3,44.4,26.3,44.9z"/>
<path class="st106" d="M22.3,57.5c-0.1-0.2-0.1-0.3,0.2-0.4s1.1,0,1.2,0.7c0.1,0.6,0.1,1.1,0,1.7c-0.1,0.8-0.6,1-1.4,0.5
	s0.1-0.1,0-0.2C22.3,59.8,22.3,57.5,22.3,57.5z"/>
<path class="st107" d="M32.7,60.1c-0.6,0.1-0.5-0.4-0.7-0.7l-0.5-1c-0.1-0.4-0.3-0.7-0.5-1.1c1-0.3,1-0.3,1.4,0.6
	S33.1,59.3,32.7,60.1z"/>
<path class="st108" d="M23.5,56c0.7,0,1.4,0,1.6,0.9c0.1,0.1,0.1,0.2,0,0.3c-0.3,0.3-0.6,0.6-0.8,1c-0.1,0.3-0.2,0.7-0.1,1
	c0.1,0.2,0.1,0.4-0.1,0.5l-0.2,0.2c-0.7-0.4-0.2-1.1-0.3-1.7s0.1-1-0.5-1.3C23,56.5,23.2,56.2,23.5,56z"/>
<path class="st109" d="M39.8,58.1c0.3-0.4,0.5-0.9,1.1-1v0.5c0,0.5-0.4,1-0.1,1.5s0.7,0.7,1.3,0.2c-0.4,1.1-1.3,1.2-2.2,0.2
	C39.5,59.1,39.4,58.5,39.8,58.1z"/>
<path class="st110" d="M48.1,58.1c-0.2-0.2-0.5-0.1-0.6-0.4s1-0.9,0-1.5S46.8,56,46.4,56s-0.4-0.2,0-0.3h1.7
	c0.7,0.1,1.4,0.3,1.4,1.2S48.9,58.1,48.1,58.1z"/>
<path class="st111" d="M29.3,57.1h0.4c0.4,0.2,0.6,0.6,0.6,1c-0.1,0.6,0,1.2,0.1,1.8c0.1,0,0.2,0.1,0.2,0.2s-0.1,0.2-0.2,0.2
	c-0.4,0-0.8,0.2-1.2-0.2v-1.9C29.1,58,29,57.8,29,57.6C29,57.3,29.2,57.2,29.3,57.1z"/>
<path class="st112" d="M24.1,58.1c0.2-0.5,0.5-0.8,1-1c0.2,0,0.3,0.1,0.3,0.3v2.5c-0.1,0.2-0.2,0.3-0.4,0.3l-0.9-0.5v-0.6
	C24,58.8,24,58.4,24.1,58.1z"/>
<path class="st102" d="M35.7,59.7c-0.1,0.8-0.7,0.4-1,0.4s-0.1-0.4-0.1-0.6c0.1-0.7,0.1-1.5-0.1-2.2c0.2-0.5,0.6-0.3,1-0.1
	S35.4,58.9,35.7,59.7z"/>
<path class="st113" d="M26.3,57.3c0.7,0.6,0.8,1.6,0.4,2.4c-0.3,0.1-0.4,0.5-0.8,0.5c-0.2,0-0.3-0.1-0.3-0.3c0-0.7,0-1.5,0.1-2.2
	C25.8,57.4,25.9,57.1,26.3,57.3z"/>
<path class="st114" d="M15.9,60c-0.6-0.5-0.4-1.2-0.5-1.8s0.1-1.2,0.1-1.9s0.4,0.2,0.4,0.5v1.1c-0.1,0.9,0,1.6,1.2,1.4
	c0,0.1,0,0.3-0.1,0.4C16.6,60,16.3,60.2,15.9,60z"/>
<path class="st115" d="M40.9,57.4v-0.3c0.6-0.4,1,0.1,1.3,0.5s0.3,1-0.5,0.9s-0.9-0.1-0.8,0.6C40.5,58.6,40.5,58,40.9,57.4
	c0.1,0.1,0.1,0.4,0.2,0.3S41,57.5,40.9,57.4z"/>
<path class="st116" d="M39.8,58.1c0,0.5,0,1,0.2,1.4c-0.1,0.2-0.6,0-0.5,0.4s-0.2-1.8-0.3-2.8s0.1-0.8,0.1-1.2
	c0.4,0.3,0.5,0.8,0.3,1.3C39.4,57.5,39.4,57.8,39.8,58.1C39.7,58.1,39.8,58.1,39.8,58.1z"/>
<path class="st117" d="M36.3,56.1c0.2,1.2,0.2,2.4,0,3.6C35.9,58.5,35.9,57.3,36.3,56.1z"/>
<path class="st118" d="M16.9,59.5l0.2-0.2c0.5-1,0.1-2,0.2-3s0.4-0.1,0.5,0.1c0.2,1,0.2,2-0.1,2.9c-0.2,0.1-0.2,0.4-0.4,0.4
	S17,59.7,16.9,59.5z"/>
<path class="st119" d="M23.1,56.8c0.5,0.2,0.6,0.6,0.6,1.2c-0.1,0.6-0.1,1.3,0.2,1.9c-0.4,0.8-1,0.3-1.6,0.4s-0.2-0.2,0-0.3
	s1.2,0.3,1.2-0.7c-0.1-0.4-0.1-0.8,0-1.2c0-0.8-0.3-1-1-1l0.2-0.4c0-0.1,0.1-0.2,0.2-0.2C23.1,56.6,23.1,56.7,23.1,56.8z"/>
<path class="st120" d="M43.9,60.6h-0.2c-0.2,0.1-0.3-0.1-0.4-0.3s-0.7-0.3-0.6-0.8c0.1-0.2,0.3-0.4,0.5-0.4c0.4,0,0.7,0.3,0.8,0.7
	c0.2,0.1,0.2,0.2,0,0.3C44,60.1,43.9,60.6,43.9,60.6z"/>
<path class="st121" d="M27.3,59.7c0.4-0.7,0.1-1.6,0.2-2.4s0.4,1.2,0.4,1.7s0.2,0.9,0.9,0.7s0.3,0.4,0.1,0.6l-0.4,0.2
	C28.1,60.1,27.2,60.7,27.3,59.7L27.3,59.7z"/>
<path class="st122" d="M35.1,56.7c-0.3,0-0.5-0.2-0.5-0.5c-0.1-0.2,0.1-0.5,0.4-0.5c0.3-0.1,0.5,0.1,0.6,0.4v0.1
	C35.6,56.5,35.4,56.6,35.1,56.7z"/>
<path class="st123" d="M18.7,57.5c0.2,0.7,0.2,1.5,0,2.2C18.3,59,18.3,58.2,18.7,57.5z"/>
<path class="st124" d="M23.1,56.8h-0.4c-0.2-0.2-0.4-0.5-0.1-0.8s0.6-0.1,0.9,0.1C23.5,56.4,23.3,56.6,23.1,56.8z"/>
<path class="st125" d="M52.1,60.1h1.7c0.1,0.1,0.2,0.4,0,0.4h-1.7C51.9,60.4,52,60.2,52.1,60.1z"/>
<path class="st126" d="M22.3,57.5c0.2,0.8,0.2,1.5,0,2.3C22,59.1,22,58.2,22.3,57.5z"/>
<path class="st127" d="M37.7,59.5v-3.3h0.1L37.7,59.5z"/>
<path class="st128" d="M16.9,59.5l0.4,0.2c-0.5,0.6-1.3,0.8-2,0.6l0.6-0.3C16.3,59.9,16.7,59.9,16.9,59.5z"/>
<path class="st129" d="M46.3,59.7c-0.2-0.1-0.2-0.2-0.2-0.4c-0.2-1-0.2-2,0-3c0.4,0.6,0.1,1.2,0.2,1.7C46.3,58,46.3,59.7,46.3,59.7z
	"/>
<path class="st130" d="M14.3,56.3v0.2c-0.4,0.9,0,1.8-0.4,2.6v-2.4C13.9,56.5,14,56.4,14.3,56.3z"/>
<path class="st131" d="M51.7,58.1L52,59h-1.1c-0.4-0.2-0.5-0.5-0.2-0.8S51.4,58.4,51.7,58.1z"/>
<path class="st6" d="M38.5,36.5h-1.8c0.6-0.5,1.2-0.3,1.8-0.3V36.5z"/>
<path class="st132" d="M17.7,59.3v-3c0-0.1,0-0.2,0.2-0.1c0.1,1,0.1,2,0,3L17.7,59.3z"/>
<path class="st133" d="M33.9,57.3c-0.3,0.3-0.2,0.8-0.7,1s0.2-0.8-0.1-1.2S33.7,56.8,33.9,57.3z"/>
<path class="st134" d="M50.8,58.1c-0.3,0.3,0,0.5,0.1,0.8s-0.4,0-0.5,0.2c0.1,0.2,0,0.4-0.1,0.5H50C50,59,50.2,58.4,50.8,58.1
	c-0.1-0.2-0.1-0.2,0-0.2S50.9,57.9,50.8,58.1L50.8,58.1z"/>
<path class="st129" d="M17.9,59.3v-3C18.2,57.3,18.2,58.3,17.9,59.3z"/>
<path class="st135" d="M46.1,56.3v3C45.7,58.3,45.7,57.3,46.1,56.3z"/>
<path class="st136" d="M33.9,57.3c-0.2-0.3-0.5-0.2-0.8-0.2c0.8-0.3,1.7-0.3,2.4,0.1c-0.4,0-0.7-0.2-1,0.1
	C34.5,57.3,33.9,57.3,33.9,57.3z"/>
<path class="st137" d="M50,59.5h0.2c0.2,0,0.4,0.1,0.4,0.3s-0.6,0.2-1,0.3v-0.2C49.6,59.6,49.9,59.6,50,59.5z"/>
<path class="st138" d="M35.7,59.7v-2.4C36,58.1,36,58.9,35.7,59.7z"/>
<path class="st139" d="M15.5,56.2c-0.4-0.4-1-0.4-1.4-0.1H14c0.1-0.3,0.1-0.3,0.9-0.3s0.7-0.2,0.9,0.3S15.7,56.1,15.5,56.2z"/>
<path class="st98" d="M20.5,57.7c0.4,0.8,0.1,1.6,0.2,2.4S20.6,58.5,20.5,57.7z"/>
<path class="st140" d="M50.6,59.8c-0.2,0-0.3-0.1-0.4-0.3c0.1-0.1,0-0.3,0.2-0.4h1.4C51.4,59.5,50.7,59.1,50.6,59.8z"/>
<path class="st141" d="M17.9,56.2h-0.6c0-0.1-0.4-0.2-0.2-0.4S17.8,55.5,17.9,56.2z"/>
<path class="st142" d="M26.3,57.3c-0.2,0-0.4,0.2-0.4,0.4c-0.4,0.1-0.4-0.2-0.6-0.3l-0.2-0.3v-0.2c0.4,0,0.8,0.1,1.1,0.3L26.3,57.3z
	"/>
<ellipse class="st143" cx="20.2" cy="58.8" rx="0.1" ry="1.2"/>
<path class="st144" d="M43.3,60.3l0.4,0.3c0,0.2-0.2,0.4-0.4,0.5c-0.1,0.1-0.3,0.2-0.3,0s0-0.3,0.1-0.4L43.3,60.3z"/>
<path class="st145" d="M21.9,58v1.5h-0.1V58H21.9z"/>
<path class="st98" d="M21.5,59.5c-0.4-0.6-0.1-1.3-0.2-2S21.5,58.8,21.5,59.5z"/>
<path class="st146" d="M25.7,59.9l0.2,0.3c-0.1,0.3-0.4,0.4-0.6,0.3c-0.1,0-0.1-0.1-0.2-0.1v-0.3l0.3-0.3
	C25.4,59.8,25.5,59.8,25.7,59.9z"/>
<path class="st147" d="M50.9,57.9h-0.2c-0.1-0.4,0.2-0.6,0.4-1l0.2,0.8L51.1,58L50.9,57.9z"/>
<path class="st148" d="M30.7,42.1l-0.2,0.2c-0.2-0.1-0.5-0.2-0.6-0.5c0.2-0.2,0.5-0.1,0.7,0.1C30.7,41.9,30.7,42,30.7,42.1z"/>
<path class="st149" d="M47.6,58.5c-0.1-0.1-0.2-0.2,0.1-0.3l1,0.3H47.6z"/>
<path class="st150" d="M16.7,60.7c-0.6,0-0.9,0.1-1.3-0.1C15.8,60.5,16.3,60.5,16.7,60.7z"/>
<path class="st151" d="M25.1,60.5c0.3,0.1,0.6,0,0.8-0.2c-0.1,0.6-0.5,0.4-0.8,0.4C25.1,60.7,25.1,60.5,25.1,60.5z"/>
<path class="st2" d="M32.1,43c-0.4-0.1-0.7-0.3-0.9-0.6h0.5C31.9,42.5,32.3,42.6,32.1,43z"/>
<path class="st152" d="M44,60.1v-0.3c0.5-0.1,0.2,0.2,0.3,0.4h-0.1L44,60.1z"/>
<path class="st153" d="M56.1,12.3h-0.7C55.7,12.1,55.9,12.1,56.1,12.3z"/>
<path class="st154" d="M6.9,50.3v-1C7.2,49.7,7.2,50,6.9,50.3z"/>
<path class="st155" d="M90.2,50.3c0.5-0.1,1-0.2,1.5-0.5c0.8-0.4,1.6-0.7,2.5-1c0.9-0.2,1.8-0.5,2.6-0.9c1-0.6,2-1,3.1-1.3h-0.1
	c0.6-0.3,1.2-0.6,1.8-0.8c0.4-0.3,0.8-0.5,1.3-0.6h-0.1c0.5-0.4,1.1-0.6,1.7-0.8h-0.1c0.5-0.3,1-0.6,1.5-0.8h-0.1
	c0.7-0.5,1.5-0.9,2.3-1.2c1.8-0.9,3.4-2.3,5.2-3.3l2.5-1.4c0.3,0,0.3,0.2,0.2,0.4c-2.3,2.9-5.4,4.8-8.5,6.6s-6.8,3.6-10.4,5.2
	c-0.2,0.1-0.5,0-0.7,0.2s-1.2,0.5-1.8,0.6L93,51.2c-1.2,0.7-2.6,1.1-4,1.1l-2,0.2c0.6-0.6,1.3-1.1,2.1-1.5c0.2-0.3,0.5-0.3,0.8-0.4
	C89.9,50.6,90.2,50.3,90.2,50.3z"/>
<path class="st8" d="M111.8,32.9c-2.4-0.2-4.8-0.3-7.2-0.1c-0.3,0-0.5,0-0.7-0.2c0.7-0.1,1.4-0.1,2.1,0c1.1,0.1,1.3-0.4,1.4-1.3
	c0.1-1.2,0.5-2.2,1.3-3.1c0.5-0.7,1.3-1,2.1-0.7c1.2,0.4,2.2,1,3.1,1.9c0.6,0.5,0.8,1.3,0.6,2c-0.3,0.8-1,0.9-1.8,1
	c-0.4-0.1-0.8-0.1-1.2,0c-0.3,0.1-0.2,0.3,0.1,0.4C111.6,32.8,111.8,32.9,111.8,32.9z"/>
<path class="st6" d="M110,63.1c0.1,0.5,0,1-0.1,1.5c-0.5,1-1.6,1.3-2.2,0.4c-0.6-0.7-1.3-1.2-2.1-1.6c-0.7-0.2-1.4-0.6-1.4-1.4
	s0.7-1,1.4-1.3c0.9-0.5,2-0.7,3-0.6s1.2,0.9,1.4,1.7C110.1,62.2,110.1,62.7,110,63.1z M90.3,28.5c2.1,0,2.5,0.5,2.5,2.5
	c0,0.8-0.2,1.7-0.6,2.4s-1.3,0.9-1.7,0.2c-0.9-1-1.9-1.9-3-2.7c-0.8-0.7-0.6-1.3,0.3-1.8C88.6,28.7,89.4,28.5,90.3,28.5z"/>
<path class="st93" d="M94.6,50.7c0.6-0.3,1.2-0.5,1.8-0.6c1.8,0.8,2.2,3,0.8,4.7c-0.2,0.4-0.5,0.7-0.9,0.9c-0.5,0.6-1.4,0.7-2,0.3
	c-0.7-0.4-1-1.2-0.8-2c0.1-1.1,0.6-2,1.3-2.8C95.3,50.8,95,50.7,94.6,50.7z M95.6,59.6c0.1-1.6,1.2-3,2.8-3.4
	c0.8-0.2,1.8,0.8,1.8,1.8c-0.1,1.6-1.2,3-2.7,3.5C96.5,61.8,95.6,60.9,95.6,59.6z"/>
<path class="st94" d="M123.4,50.7c1.7,0,2.2,0.6,2.2,2.1c0,0.6-0.2,1.2-0.4,1.7c-0.4,1-1.4,1.1-1.9,0.2c-0.4-0.7-1-1.2-1.7-1.6
	c-0.5-0.2-0.8-0.6-0.8-1.1c0-0.7,0.6-0.7,1-0.9C122.3,50.8,122.8,50.7,123.4,50.7z"/>
<path class="st6" d="M126.2,38.9v0.9c0,0.5-0.3,0.9-0.7,1c-0.4,0.2-0.9,0.1-1.2-0.3c-0.4-0.6-1.1-1-1.8-1.2
	c-0.5-0.2-1.1-0.5-1.1-1.1s0.6-0.9,1-1.2c0.6-0.3,1.3-0.6,2-0.6c0.9-0.2,1.7,0.5,1.8,1.6C126.2,38,126.2,38.9,126.2,38.9z
	 M87.6,19.9c0,0.4-0.4,0.8-1.1,0.7c-1-0.2-2-0.3-3-0.1c-0.9,0.1-1.3-0.5-1-1.3c0.4-0.9,1.1-1.7,2-2.3c0.4-0.2,1-0.2,1.4,0
	C86.9,17.6,87.5,18.7,87.6,19.9z"/>
<path class="st15" d="M89,52.3l4-1.1c-0.2,0.4-0.2,0.8-0.2,1.2c0.1,0.7-0.1,1.3-0.5,1.9c-0.2,0.7-0.9,1.1-1.6,1
	c-0.8,0-1.1-0.6-1.4-1.2c-0.2-0.5-0.4-1-0.5-1.6C88.8,52.5,89,52.3,89,52.3z"/>
<path class="st93" d="M111.6,23.5v0.8c0,0.7-0.5,1.2-1.1,1.4s-1-0.3-1.3-0.7c-0.7-1-0.8-2.3-0.2-3.4c0.3-0.6,1.1-0.7,1.6-0.4
	c0.1,0.1,0.2,0.1,0.3,0.2C111.4,22,111.7,22.7,111.6,23.5z"/>
<path class="st6" d="M108.2,25.4c0,0.5,0.1,1.1-0.5,1.3s-1.2,0-1.7-0.4c-0.7-0.6-1.2-1.5-1.2-2.5c-0.1-0.5,0.2-1,0.6-1.3
	c0.5-0.2,1-0.2,1.4,0.2C107.7,23.3,108.2,24.3,108.2,25.4z"/>
<path class="st93" d="M115.2,26.2c0,1.1-0.7,2.1-1.5,2.1s-1.5-0.9-1.5-2.1s0.7-2.2,1.5-2.2S115.2,25,115.2,26.2z M103.4,28.1
	c-0.1-0.7,0.4-1.2,1.1-1.3h0.3c1.3,0.2,2.2,1.3,2.2,2.6c0,0.6-0.5,1.1-1.1,1.1h-0.1C104.6,30.3,103.6,29.3,103.4,28.1z"/>
<path class="st94" d="M108.6,57.7c0-0.8,0.3-1.6,0.9-2.1c0.4-0.3,0.8-0.6,1.3-0.4c0.5,0.3,0.7,0.9,0.6,1.4c-0.1,0.7-0.5,1.3-1,1.8
	c-0.3,0.3-0.7,0.7-1.2,0.4C108.8,58.6,108.6,58.2,108.6,57.7z M95,29.4c-0.6,0-1.1-0.1-1.2-0.9s1.3-1.9,2.4-1.9s1.2,0.1,1.2,0.8
	S96.2,29.4,95,29.4z"/>
<path class="st93" d="M111.6,60.5c-0.5,0-0.8-0.3-0.8-1c0.2-1.2,1.3-2.1,2.5-2.1c0.6,0,1,0.5,0.9,1.1v0.1
	C113.7,59.6,112.7,60.4,111.6,60.5z"/>
<path class="st94" d="M92,26.3c0-0.9,0.6-1.8,1.4-2.2c0.3-0.2,0.8-0.2,1.1,0.1c0.3,0.3,0.6,0.6,0.5,1.1c-0.2,0.8-0.7,1.4-1.3,1.9
	c-0.3,0.3-0.8,0.4-1.2,0.2C92,27.2,92,26.8,92,26.3z M91.2,25.8c0.1,0.5,0,1.1-0.4,1.5s-0.8,0.8-1.5,0.5c-0.6-0.4-0.9-1.1-0.6-1.8
	c0.3-1,1.1-1.7,1.8-1.5C91,24.7,91.3,25.3,91.2,25.8z M111.6,63.9c-0.7,0.1-1.1-0.2-1.1-0.9s1.3-1.9,2.1-1.8c0.6-0.1,1.1,0.4,1.2,1
	C113.8,62.9,112.6,63.9,111.6,63.9z M94.2,32.9c-0.5,0.1-1-0.3-1.1-0.9v-0.1c0-0.8,1.3-1.8,2.2-1.7s1.2,0.4,1.1,1.1
	C96.2,32.3,95.2,33,94.2,32.9z M107.8,57.7c0.1,0.7-0.3,1.3-0.8,1.7c-0.4,0.3-1.1,0.2-1.4-0.2c0-0.1-0.1-0.1-0.1-0.2
	c-0.2-0.6-0.2-1.3,0.1-1.9c0.3-0.6,0.7-1.1,1.4-0.9S107.8,57,107.8,57.7z M123.6,63.3c0.1,0.6-0.3,0.9-0.8,1s-1.6-1.2-1.6-2.1
	s0.2-0.9,0.7-1S123.6,62.4,123.6,63.3z M127.2,47.9c0,1-0.7,2-1.5,2s-0.9-0.3-0.9-0.8s1-2.1,1.7-2.1S127.3,47.4,127.2,47.9z"/>
<path class="st96" d="M85.8,14.6c0-0.4,0.1-0.7,0.3-1c0.4-0.5,0.7-1,1.4-0.8s0.6,1,0.5,1.6c-0.1,0.3-0.2,0.5-0.4,0.7
	c-0.2,0.5-0.6,0.9-1.1,0.7C86,15.7,85.7,15.1,85.8,14.6z"/>
<path class="st94" d="M128.3,49.1c0.6,0,1.1,0.2,1.1,0.8c-0.3,0.9-1.1,1.5-2.1,1.6c-0.6,0-0.9-0.3-0.9-0.8
	C126.6,49.8,127.4,49.1,128.3,49.1z M103.8,72.2c0,0.5-0.1,1.3-1,1.3s-0.9-0.8-1-1.5c0-0.6-0.1-1.4,0.8-1.5S103.8,71.1,103.8,72.2z
	 M127,33.6c0,0.8-0.9,1.8-1.5,1.7s-0.7-0.6-0.7-1.2s0.7-1.8,1.4-1.7S127,33,127,33.6z M125.8,61.9c0,0.8-0.1,1.5-0.9,1.6
	s-1-0.7-1.1-1.4v-0.6c0-0.5,0.1-1.1,0.8-1.2s0.9,0.5,1.1,1C125.8,61.5,125.8,61.7,125.8,61.9z M127.4,36.6c-0.5,0-0.8-0.2-0.8-0.8
	s1.1-1.9,1.9-1.8c0.4-0.1,0.8,0.3,0.9,0.7v0.1C129.2,35.8,128.4,36.5,127.4,36.6z"/>
<path class="st96" d="M106.4,71.9c0,1-0.7,1.9-1.4,1.8s-0.8-0.6-0.8-1.2s0.8-1.8,1.4-1.8S106.4,71.3,106.4,71.9z"/>
<path class="st94" d="M83.4,13.9c0-0.6,0-1.3,0.7-1.4s1,0.5,1.2,1.1c0.1,0.2,0.2,0.5,0.1,0.8c-0.1,0.5-0.2,1.2-0.9,1.2
	s-0.9-0.6-1-1.1C83.4,14.3,83.4,14.1,83.4,13.9z"/>
<path class="st96" d="M122.2,49.1c0-1,0.6-1.7,1.3-1.6s0.8,0.4,0.9,1s-0.8,1.8-1.4,1.8c-0.5,0-0.9-0.5-0.9-0.9
	C122.2,49.3,122.2,49.2,122.2,49.1z M122.8,65.9c0,0.4-0.4,0.8-0.8,0.8c-0.9-0.2-1.6-0.8-1.8-1.7c0.1-0.5,0.4-0.8,0.9-0.8
	C121.7,64.1,122.8,65.1,122.8,65.9z"/>
<path class="st156" d="M107.8,74.7c-0.1,0.8-1,1.7-1.6,1.6s-0.7-0.6-0.7-1.1s0.9-1.7,1.5-1.6C107.5,73.6,107.9,74.1,107.8,74.7
	C107.8,74.6,107.8,74.7,107.8,74.7z"/>
<path class="st96" d="M126.8,54.3c-0.5,0-0.9-0.1-1-0.8c0.2-0.8,0.9-1.3,1.7-1.3c0.5,0,1,0.1,1.1,0.7S127.7,54.3,126.8,54.3z"/>
<path class="st157" d="M87.2,17.3c0-0.9,0.6-1.2,1.2-1.7h0.3c0.7,0.2,0.8,0.7,0.7,1.3s-0.8,1.6-1.4,1.5
	C87.5,18.3,87.1,17.8,87.2,17.3z"/>
<path class="st96" d="M128.4,37.2c0.5,0,0.8,0.3,0.8,0.9c-0.2,0.8-1,1.4-1.8,1.4c-0.5,0-0.8-0.3-0.8-0.9S127.6,37.2,128.4,37.2z"/>
<path class="st94" d="M128.2,63.6c0,0.7-0.2,1.4-1,1.5s-1-0.7-1-1.3s0-1.4,1-1.5S128.1,62.9,128.2,63.6z"/>
<path class="st96" d="M122.2,34.9c0-1,0.4-1.6,1.1-1.5s0.9,0.6,0.9,1.2s-0.6,1.6-1.2,1.5S122.2,35.5,122.2,34.9z M99.8,73.9
	c0-0.8,0.1-1.3,0.8-1.3s1.2,0.8,1.2,1.7s-0.2,1-0.9,1S99.8,74.7,99.8,73.9z"/>
<path class="st94" d="M83.4,16.4c0.1,0.6-0.1,1.1-0.8,1.1s-1.2-0.8-1.2-1.7s0.1-1,0.8-1S83.4,15.6,83.4,16.4z"/>
<path class="st11" d="M99.9,46.6l-3.1,1.3c-0.1,0.2-0.3,0.2-0.5,0.1C97.4,47.2,98.6,46.7,99.9,46.6z M94.2,48.9
	c-0.8,0.4-1.6,0.7-2.5,0.9h-0.4c-0.1-0.2,0.1-0.2,0.2-0.3l0.5-0.3c0.4,0.5,0.8,0,1.2-0.1S93.8,48.8,94.2,48.9
	C94.3,48.9,94.2,48.9,94.2,48.9z"/>
<path class="st158" d="M115.7,34h0.3c0.2,0.1,0.4,0.1,0.3,0.4c-0.1,0.2-0.3,0.3-0.5,0.2h-0.1c-0.6-0.1-1.2,0.3-1.3,0.9h-0.2
	c0.1-0.8,0.5-1.1,1.3-1.1S116.3,34.5,115.7,34z"/>
<path class="st159" d="M94.2,48.9C94.2,48.8,94.2,48.8,94.2,48.9c0.4-0.3,0.8-0.3,1-0.6l1.1-0.3h0.5C96,48.6,95.1,48.9,94.2,48.9z"
	/>
<path class="st11" d="M108.1,42.4c-0.7,0.5-1.5,0.9-2.3,1.2C106.4,42.9,107.2,42.5,108.1,42.4z"/>
<path class="st160" d="M137,48.3v-2.7h0.1v2.7H137z"/>
<path class="st11" d="M101.6,45.8c-0.5,0.4-1.2,0.7-1.8,0.8C100.2,46.1,100.9,45.8,101.6,45.8z M104.5,44.4l-1.7,0.8
	C103.2,44.7,103.8,44.3,104.5,44.4z"/>
<path class="st161" d="M116,38.1c0-0.2-0.1-0.3-0.2-0.4c0.2-0.2,0.5-0.4,0.8-0.3C116.5,37.7,116.3,38,116,38.1z"/>
<path class="st11" d="M105.9,43.6c-0.4,0.4-0.9,0.7-1.5,0.8C104.7,43.8,105.3,43.7,105.9,43.6z M102.9,45.2
	c-0.4,0.3-0.8,0.5-1.3,0.6C101.8,45.3,102.4,45.1,102.9,45.2z"/>
<path class="st156" d="M106,77.9c-0.3-0.3-0.4-0.8-0.4-1.2C105.9,77,106.1,77.5,106,77.9z"/>
<path class="st11" d="M96.3,48c-0.3,0.2-0.7,0.3-1.1,0.3C95.5,48,95.9,47.9,96.3,48z"/>
<path class="st162" d="M111.8,32.8h-0.2c0.2-0.3,0.5-0.2,0.9-0.2S112,32.7,111.8,32.8z"/>
<path class="st6" d="M86.1,79.2c-0.1,0.5,0.1,1.1-0.6,1.5c-0.6,0.4-1.4,0.3-1.9-0.2c-0.6-0.4-1.4-0.7-2.2-0.6
	c-1.1,0-2.4,0.1-2.8-1.1s0.7-1.9,1.4-2.6c0.6-0.6,1.3-1,2.1-1.3c0.8-0.5,1.9-0.2,2.5,0.5C85.5,76.5,86,77.8,86.1,79.2z"/>
<path class="st93" d="M76.2,81.4c0,0.9-0.6,1.5-1.3,1.2c-0.7-0.3-1.4-0.3-2.1,0c-0.5,0.3-1.2,0.2-1.6-0.2c-0.4-0.6-0.1-1.1,0.2-1.6
	c0.4-0.7,0.9-1.3,1.5-1.7c0.5-0.5,1.3-0.5,1.8,0C75.4,79.7,76,80.5,76.2,81.4z M78,73c-0.1-0.4,0-0.8,0.2-1.1
	c0.5-1.1,1.3-1.3,2.1-0.4c0.8,0.8,0.9,1.9,0.5,2.9c-0.2,0.5-0.7,0.9-1.3,0.8c-0.7-0.2-1.3-0.8-1.4-1.5C78,73.5,78,73.2,78,73z"/>
<path class="st96" d="M76.2,76c0,0.6-0.3,1.2-0.7,1.6c-0.5,0.4-0.8,0.3-1.2-0.1c-0.5-1-0.2-2.2,0.8-2.7C75.8,74.6,76.2,75,76.2,76z"
	/>
<path class="st94" d="M73.6,76.6c0,0.4-0.1,1.1-0.8,1.2s-1-0.6-1.2-1.3c0-0.7-0.1-1.5,0.8-1.8S73.6,75.5,73.6,76.6z"/>
<path class="st163" d="M75.6,79.2c0.1-0.9,0.7-1.7,1.3-1.7s0.9,0.4,0.9,1s-0.8,1.8-1.3,1.8C76,80.2,75.6,79.7,75.6,79.2z"/>
<path class="st96" d="M71.8,79c0,0.4-0.4,0.8-0.8,0.8c-0.5,0.1-1.4-1.1-1.3-1.7s0.2-1,0.9-1C71.4,77.3,71.9,78.2,71.8,79z"/>
<path class="st164" d="M86.2,75.7c0.8,0.6,1.5,1.3,2.1,2c-1.4,0.4-2.1,0.1-2.2-0.8S86.2,76.1,86.2,75.7z"/>
<path class="st165" d="M81.5,70.4l2.2,2.7c-0.5-0.3-1.2,0-1.7-0.5C81.5,72,81.3,71.2,81.5,70.4z"/>
<path class="st166" d="M84.2,82.5c-0.5,0-0.7,0.1-1-0.1C83.5,82.3,83.9,82.3,84.2,82.5z"/>
<path class="st26" d="M83.1,67.1c0.3,0.2,0.5,0.5,0.5,0.8C83.3,67.7,83,67.5,83.1,67.1z"/>
<path class="st15" d="M53.1,79.5l0.6-3.8c1.4-0.4,1.9,0,2,1.6s-0.3,1.6-1.2,2.1C54.1,79.7,53.5,79.8,53.1,79.5z"/>
<path class="st0" d="M53.3,53.7c0.6,0,1.2,0.1,1.8,0.3c1.3,0.5,2.4-0.2,3.6-0.4s0.2-0.9,0.6-1.2s0.3,1-0.2,1.5s-0.8,0.5-0.5,1.2
	c-0.4-0.9-1-0.8-1.7-0.8c-1,0.1-2.1,0.1-3.1-0.2C53.6,54.1,53.3,54.1,53.3,53.7z M51.8,53.8c0.3,0.2,0.7,0,1,0.3s-0.1,0.3-0.2,0.3
	S52,54.1,51.8,53.8z M32.1,43l-0.4-0.7c0.4,0.1,0.7,0.3,0.9,0.6c0.2,0.5-0.3,0.1-0.3,0.3S32.1,43.1,32.1,43z"/>
<path class="st0" d="M57.9,55.4c-0.2,0-0.2-0.1-0.2-0.3s0-0.2,0.2-0.2S58,55,58,55.1S58,55.4,57.9,55.4z M65.4,38.1
	c0.1,0,0.3-0.7,0.6-0.3v0.3C65.7,38.4,65.4,38,65.4,38.1z"/>
<path class="st167" d="M84.4,69c0.1,0.3,0.3,0.6,0.6,0.7l0.3,0.4c0.3,0.5,0.1,1.1-0.4,1.4h-0.1c-0.2-0.1-0.3-0.3-0.4-0.5
	c0.1-0.5,0-1-0.1-1.5C84.2,69.3,83.9,69,84.4,69z"/>
<path class="st168" d="M88,73.7c0,0.6-0.5,0.6-0.8,0.8s-0.4-0.3-0.6-0.6S87.5,73.2,88,73.7z"/>
<path class="st6" d="M34.2,37.1c0.2-0.2,0.4-0.5,0.7-0.4v0.2C34.8,37.3,34.5,37.1,34.2,37.1z"/>
<path class="st169" d="M91.6,77.4c0.1-0.3,0.3-0.2,0.4,0s0.2,0.2,0,0.3S91.7,77.6,91.6,77.4z"/>
<path class="st33" d="M89.9,50.6L89.1,51C89.2,50.5,89.5,50.5,89.9,50.6z"/>
<path class="st170" d="M28.9,60.3c0-0.2,0-0.4-0.2-0.6c-0.5-1.1-0.4-1.8,0.4-2.2c0.1,0.1,0.2,0.2,0.2,0.4c0.1,0.6,0.1,1.2,0,1.8
	c-0.2,0.2,0,0.5-0.2,0.6C29.1,60.3,28.9,60.3,28.9,60.3z"/>
<path class="st121" d="M29.1,60.3c0-0.2-0.1-0.4,0.2-0.6s0.7,0.6,1.1,0.1s0.3,0.5-0.2,0.5H29.1z"/>
<path class="st171" d="M29.1,57.5c-0.8,0.6-0.4,1.5-0.4,2.2s-0.5,0.4-0.8,0.4s-0.2-0.3-0.2-0.6s0.2-1.5-0.2-2.2s1.2,0.2,1.8-0.2
	C29.3,57.1,29.1,57.5,29.1,57.5z"/>
<path class="st172" d="M50.9,57.9h0.6l0.2,0.2c0,0.3-0.1,0.4-0.4,0.4s-0.5-0.1-0.5-0.4S50.9,58,50.9,57.9z"/>
<path class="st173" d="M51.5,57.9c-0.1,0.1,0,0.3-0.2,0.3S51.1,58,51,57.9l0.3-0.2L51.5,57.9z"/>
<path class="st174" d="M47.5,56.2c0.4-0.3,0.6-0.1,0.8,0.2c0.2,0.3,0.2,0.7,0,1c-0.1,0.3-0.3,0.4-0.6,0.4c-0.1,0-0.2,0-0.2-0.1V56.2
	z"/>
<path class="st119" d="M24.1,58.1v1C23.8,58.8,23.8,58.5,24.1,58.1z"/>
<path class="st0" d="M40.9,57.4c0.4-0.1,0.6,0.1,0.6,0.5c0,0.2-0.1,0.3-0.3,0.3c-0.5,0-0.3-0.4-0.3-0.7
	C40.9,57.5,40.9,57.4,40.9,57.4z"/>
<path class="st121" d="M29.3,59.7v-1.8C29.5,58.5,29.5,59.1,29.3,59.7z"/>
<path class="st175" d="M25.7,59.9h-0.4c-0.4-0.8-0.4-1.7,0-2.5c0.3-0.1,0.4,0.2,0.6,0.3C26,58.4,25.9,59.2,25.7,59.9z"/>
</svg>
